<svg id="kity_svg_6" xmlns="http://www.w3.org/2000/svg" xmlns:xlink="http://www.w3.org/1999/xlink" version="1.1" width="2189" height="2572" style="background: rgb(251, 251, 251); visibility: visible;" viewBox="0 0 2189 2572"><defs id="kity_defs_7"><linearGradient id="kity_linearGradient_17" x1="0" y1="0" x2="0" y2="1"><stop id="kity_stop_18" offset="0" stop-color="rgb(255, 255, 255)"></stop><stop id="kity_stop_19" offset="1" stop-color="rgb(204, 204, 204)"></stop></linearGradient><marker id="kity_marker_2" orient="auto" refX="6" refY="0" viewBox="-7 -7 14 14" markerWidth="7" markerHeight="7" markerUnits="userSpaceOnUse"><path id="kity_path_3" fill="rgb(115, 161, 191)" stroke="none" d="M6,0A6,6,0,1,1,-6,0A6,6,0,1,1,6,0"></path></marker></defs><g id="kity_g_8"><g id="minder1" text-rendering="optimize-speed"><g id="minder_connect_group1"><path id="kity_path_31" fill="none" stroke="rgb(115, 161, 191)" stroke-width="1" d="M1833.5000241845846,1844.50000692904A180,45,0,0,1,2013.5000241845846,1799.50000692904"></path><path id="kity_path_33" fill="none" stroke="rgb(115, 161, 191)" stroke-width="1" d="M2084.5000241845846,1799.50000692904C2099.5000241845846,1799.50000692904,2099.5000241845846,1787.50000692904,2114.5000241845846,1787.50000692904L2168.5000241845846,1787.50000692904"></path><path id="kity_path_35" fill="none" stroke="rgb(115, 161, 191)" stroke-width="1" d="M2084.5000241845846,1799.50000692904C2099.5000241845846,1799.50000692904,2099.5000241845846,1839.50000692904,2114.5000241845846,1839.50000692904L2168.5000241845846,1839.50000692904"></path><path id="kity_path_37" fill="none" stroke="rgb(115, 161, 191)" stroke-width="1" d="M1833.5000241845846,1844.50000692904A180,45,0,0,0,2013.5000241845846,1889.50000692904"></path><path id="kity_path_39" fill="none" stroke="rgb(115, 161, 191)" stroke-width="1" d="M1833.5000241845846,1844.50000692904A180,0,0,0,1,1653.5000241845846,1844.50000692904"></path><path id="kity_path_41" fill="none" stroke="rgb(115, 161, 191)" stroke-width="1" d="M1569.5000241845846,1844.50000692904C1554.5000241845846,1844.50000692904,1554.5000241845846,1253.50000692904,1539.5000241845846,1253.50000692904L1460.5000241845846,1253.50000692904"></path><path id="kity_path_43" fill="none" stroke="rgb(115, 161, 191)" stroke-width="1" d="M1460.5000241845846,1253.50000692904C1445.5000241845846,1253.50000692904,1445.5000241845846,305.50000692903996,1430.5000241845846,305.50000692903996L1351.5000241845846,305.50000692903996"></path><path id="kity_path_45" fill="none" stroke="rgb(115, 161, 191)" stroke-width="1" d="M1351.5000241845846,305.50000692903996C1336.5000241845846,305.50000692903996,1336.5000241845846,192.50000692903996,1321.5000241845846,192.50000692903996L1158.5000241845846,192.50000692903996"></path><path id="kity_path_47" fill="none" stroke="rgb(115, 161, 191)" stroke-width="1" d="M1158.5000241845846,192.50000692903996C1143.5000241845846,192.50000692903996,1143.5000241845846,44.500006929039955,1128.5000241845846,44.500006929039955L1028.5000241845846,44.500006929039955"></path><path id="kity_path_49" fill="none" stroke="rgb(115, 161, 191)" stroke-width="1" d="M1028.5000241845846,44.500006929039955C1013.5000241845846,44.500006929039955,1013.5000241845846,44.500006929039955,998.5000241845846,44.500006929039955L801.5000241845846,44.500006929039955"></path><path id="kity_path_51" fill="none" stroke="rgb(115, 161, 191)" stroke-width="1" d="M1158.5000241845846,192.50000692903996C1143.5000241845846,192.50000692903996,1143.5000241845846,96.50000692903996,1128.5000241845846,96.50000692903996L1065.5000241845846,96.50000692903996"></path><path id="kity_path_53" fill="none" stroke="rgb(115, 161, 191)" stroke-width="1" d="M1065.5000241845846,96.50000692903996C1050.5000241845846,96.50000692903996,1050.5000241845846,96.50000692903996,1035.5000241845846,96.50000692903996L936.5000241845846,96.50000692903996"></path><path id="kity_path_55" fill="none" stroke="rgb(115, 161, 191)" stroke-width="1" d="M1158.5000241845846,192.50000692903996C1143.5000241845846,192.50000692903996,1143.5000241845846,148.50000692903996,1128.5000241845846,148.50000692903996L1041.5000241845846,148.50000692903996"></path><path id="kity_path_57" fill="none" stroke="rgb(115, 161, 191)" stroke-width="1" d="M1158.5000241845846,192.50000692903996C1143.5000241845846,192.50000692903996,1143.5000241845846,209.50000692903996,1128.5000241845846,209.50000692903996L1053.5000241845846,209.50000692903996"></path><path id="kity_path_59" fill="none" stroke="rgb(115, 161, 191)" stroke-width="1" d="M1053.5000241845846,209.50000692903996C1038.5000241845846,209.50000692903996,1038.5000241845846,218.50000692903996,1023.5000241845846,218.50000692903996L459.5000241845846,218.50000692903996"></path><path id="kity_path_61" fill="none" stroke="rgb(115, 161, 191)" stroke-width="1" d="M1158.5000241845846,192.50000692903996C1143.5000241845846,192.50000692903996,1143.5000241845846,279.50000692903996,1128.5000241845846,279.50000692903996L1040.5000241845846,279.50000692903996"></path><path id="kity_path_63" fill="none" stroke="rgb(115, 161, 191)" stroke-width="1" d="M1040.5000241845846,279.50000692903996C1025.5000241845846,279.50000692903996,1025.5000241845846,288.50000692903996,1010.5000241845846,288.50000692903996L778.5000241845846,288.50000692903996"></path><path id="kity_path_65" fill="none" stroke="rgb(115, 161, 191)" stroke-width="1" d="M1158.5000241845846,192.50000692903996C1143.5000241845846,192.50000692903996,1143.5000241845846,340.50000692903996,1128.5000241845846,340.50000692903996L1045.5000241845846,340.50000692903996"></path><path id="kity_path_67" fill="none" stroke="rgb(115, 161, 191)" stroke-width="1" d="M1351.5000241845846,305.50000692903996C1336.5000241845846,305.50000692903996,1336.5000241845846,418.50000692903996,1321.5000241845846,418.50000692903996L1146.5000241845846,418.50000692903996"></path><path id="kity_path_69" fill="none" stroke="rgb(115, 161, 191)" stroke-width="1" d="M1146.5000241845846,418.50000692903996C1131.5000241845846,418.50000692903996,1131.5000241845846,427.50000692903996,1116.5000241845846,427.50000692903996L893.5000241845846,427.50000692903996"></path><path id="kity_path_71" fill="none" stroke="rgb(115, 161, 191)" stroke-width="1" d="M893.5000241845846,427.50000692903996C878.5000241845846,427.50000692903996,878.5000241845846,392.50000692903996,863.5000241845846,392.50000692903996L605.5000241845846,392.50000692903996"></path><path id="kity_path_73" fill="none" stroke="rgb(115, 161, 191)" stroke-width="1" d="M893.5000241845846,427.50000692903996C878.5000241845846,427.50000692903996,878.5000241845846,444.50000692903996,863.5000241845846,444.50000692903996L712.5000241845846,444.50000692903996"></path><path id="kity_path_75" fill="none" stroke="rgb(115, 161, 191)" stroke-width="1" d="M1460.5000241845846,1253.50000692904C1445.5000241845846,1253.50000692904,1445.5000241845846,904.50000692904,1430.5000241845846,904.50000692904L1246.5000241845846,904.50000692904"></path><path id="kity_path_77" fill="none" stroke="rgb(115, 161, 191)" stroke-width="1" d="M1246.5000241845846,904.50000692904C1231.5000241845846,904.50000692904,1231.5000241845846,548.50000692904,1216.5000241845846,548.50000692904L1065.5000241845846,548.50000692904"></path><path id="kity_path_79" fill="none" stroke="rgb(115, 161, 191)" stroke-width="1" d="M1065.5000241845846,548.50000692904C1050.5000241845846,548.50000692904,1050.5000241845846,496.50000692903996,1035.5000241845846,496.50000692903996L825.5000241845846,496.50000692903996"></path><path id="kity_path_81" fill="none" stroke="rgb(115, 161, 191)" stroke-width="1" d="M1065.5000241845846,548.50000692904C1050.5000241845846,548.50000692904,1050.5000241845846,548.50000692904,1035.5000241845846,548.50000692904L872.5000241845846,548.50000692904"></path><path id="kity_path_83" fill="none" stroke="rgb(115, 161, 191)" stroke-width="1" d="M1065.5000241845846,548.50000692904C1050.5000241845846,548.50000692904,1050.5000241845846,600.50000692904,1035.5000241845846,600.50000692904L849.5000241845846,600.50000692904"></path><path id="kity_path_85" fill="none" stroke="rgb(115, 161, 191)" stroke-width="1" d="M1246.5000241845846,904.50000692904C1231.5000241845846,904.50000692904,1231.5000241845846,713.50000692904,1216.5000241845846,713.50000692904L1077.5000241845846,713.50000692904"></path><path id="kity_path_87" fill="none" stroke="rgb(115, 161, 191)" stroke-width="1" d="M1077.5000241845846,713.50000692904C1062.5000241845846,713.50000692904,1062.5000241845846,670.50000692904,1047.5000241845846,670.50000692904L656.5000241845846,670.50000692904"></path><path id="kity_path_89" fill="none" stroke="rgb(115, 161, 191)" stroke-width="1" d="M1077.5000241845846,713.50000692904C1062.5000241845846,713.50000692904,1062.5000241845846,722.50000692904,1047.5000241845846,722.50000692904L692.5000241845846,722.50000692904"></path><path id="kity_path_91" fill="none" stroke="rgb(115, 161, 191)" stroke-width="1" d="M1077.5000241845846,713.50000692904C1062.5000241845846,713.50000692904,1062.5000241845846,774.50000692904,1047.5000241845846,774.50000692904L704.5000241845846,774.50000692904"></path><path id="kity_path_93" fill="none" stroke="rgb(115, 161, 191)" stroke-width="1" d="M1246.5000241845846,904.50000692904C1231.5000241845846,904.50000692904,1231.5000241845846,1022.50000692904,1216.5000241845846,1022.50000692904L857.5000241845846,1022.50000692904"></path><path id="kity_path_95" fill="none" stroke="rgb(115, 161, 191)" stroke-width="1" d="M857.5000241845846,1022.50000692904C842.5000241845846,1022.50000692904,842.5000241845846,932.50000692904,827.5000241845846,932.50000692904L430.5000241845846,932.50000692904"></path><path id="kity_path_97" fill="none" stroke="rgb(115, 161, 191)" stroke-width="1" d="M430.5000241845846,932.50000692904C415.5000241845846,932.50000692904,415.5000241845846,827.50000692904,400.5000241845846,827.50000692904L254.50002418458462,827.50000692904"></path><path id="kity_path_99" fill="none" stroke="rgb(115, 161, 191)" stroke-width="1" d="M430.5000241845846,932.50000692904C415.5000241845846,932.50000692904,415.5000241845846,879.50000692904,400.5000241845846,879.50000692904L132.50002418458462,879.50000692904"></path><path id="kity_path_101" fill="none" stroke="rgb(115, 161, 191)" stroke-width="1" d="M430.5000241845846,932.50000692904C415.5000241845846,932.50000692904,415.5000241845846,931.50000692904,400.5000241845846,931.50000692904L73.50002418458462,931.50000692904"></path><path id="kity_path_103" fill="none" stroke="rgb(115, 161, 191)" stroke-width="1" d="M430.5000241845846,932.50000692904C415.5000241845846,932.50000692904,415.5000241845846,983.50000692904,400.5000241845846,983.50000692904L19.500024184584618,983.50000692904"></path><path id="kity_path_105" fill="none" stroke="rgb(115, 161, 191)" stroke-width="1" d="M857.5000241845846,1022.50000692904C842.5000241845846,1022.50000692904,842.5000241845846,1131.50000692904,827.5000241845846,1131.50000692904L574.5000241845846,1131.50000692904"></path><path id="kity_path_107" fill="none" stroke="rgb(115, 161, 191)" stroke-width="1" d="M574.5000241845846,1131.50000692904C559.5000241845846,1131.50000692904,559.5000241845846,1035.50000692904,544.5000241845846,1035.50000692904L249.50002418458462,1035.50000692904"></path><path id="kity_path_109" fill="none" stroke="rgb(115, 161, 191)" stroke-width="1" d="M574.5000241845846,1131.50000692904C559.5000241845846,1131.50000692904,559.5000241845846,1087.50000692904,544.5000241845846,1087.50000692904L239.50002418458462,1087.50000692904"></path><path id="kity_path_111" fill="none" stroke="rgb(115, 161, 191)" stroke-width="1" d="M574.5000241845846,1131.50000692904C559.5000241845846,1131.50000692904,559.5000241845846,1139.50000692904,544.5000241845846,1139.50000692904L217.50002418458462,1139.50000692904"></path><path id="kity_path_113" fill="none" stroke="rgb(115, 161, 191)" stroke-width="1" d="M574.5000241845846,1131.50000692904C559.5000241845846,1131.50000692904,559.5000241845846,1191.50000692904,544.5000241845846,1191.50000692904L154.50002418458462,1191.50000692904"></path><path id="kity_path_115" fill="none" stroke="rgb(115, 161, 191)" stroke-width="1" d="M1246.5000241845846,904.50000692904C1231.5000241845846,904.50000692904,1231.5000241845846,1260.50000692904,1216.5000241845846,1260.50000692904L709.5000241845846,1260.50000692904"></path><path id="kity_path_117" fill="none" stroke="rgb(115, 161, 191)" stroke-width="1" d="M1460.5000241845846,1253.50000692904C1445.5000241845846,1253.50000692904,1445.5000241845846,1691.50000692904,1430.5000241845846,1691.50000692904L1375.5000241845846,1691.50000692904"></path><path id="kity_path_119" fill="none" stroke="rgb(115, 161, 191)" stroke-width="1" d="M1375.5000241845846,1691.50000692904C1360.5000241845846,1691.50000692904,1360.5000241845846,1339.50000692904,1345.5000241845846,1339.50000692904L1231.5000241845846,1339.50000692904"></path><path id="kity_path_121" fill="none" stroke="rgb(115, 161, 191)" stroke-width="1" d="M1231.5000241845846,1339.50000692904C1216.5000241845846,1339.50000692904,1216.5000241845846,1348.50000692904,1201.5000241845846,1348.50000692904L605.5000241845846,1348.50000692904"></path><path id="kity_path_123" fill="none" stroke="rgb(115, 161, 191)" stroke-width="1" d="M1375.5000241845846,1691.50000692904C1360.5000241845846,1691.50000692904,1360.5000241845846,1436.50000692904,1345.5000241845846,1436.50000692904L1121.5000241845846,1436.50000692904"></path><path id="kity_path_125" fill="none" stroke="rgb(115, 161, 191)" stroke-width="1" d="M1121.5000241845846,1436.50000692904C1106.5000241845846,1436.50000692904,1106.5000241845846,1427.50000692904,1091.5000241845846,1427.50000692904L441.5000241845846,1427.50000692904"></path><path id="kity_path_127" fill="none" stroke="rgb(115, 161, 191)" stroke-width="1" d="M1375.5000241845846,1691.50000692904C1360.5000241845846,1691.50000692904,1360.5000241845846,1488.50000692904,1345.5000241845846,1488.50000692904L1114.5000241845846,1488.50000692904"></path><path id="kity_path_129" fill="none" stroke="rgb(115, 161, 191)" stroke-width="1" d="M1375.5000241845846,1691.50000692904C1360.5000241845846,1691.50000692904,1360.5000241845846,1612.50000692904,1345.5000241845846,1612.50000692904L470.5000241845846,1612.50000692904"></path><path id="kity_path_131" fill="none" stroke="rgb(115, 161, 191)" stroke-width="1" d="M1375.5000241845846,1691.50000692904C1360.5000241845846,1691.50000692904,1360.5000241845846,1664.50000692904,1345.5000241845846,1664.50000692904L1093.5000241845846,1664.50000692904"></path><path id="kity_path_133" fill="none" stroke="rgb(115, 161, 191)" stroke-width="1" d="M1375.5000241845846,1691.50000692904C1360.5000241845846,1691.50000692904,1360.5000241845846,1716.50000692904,1345.5000241845846,1716.50000692904L1099.5000241845846,1716.50000692904"></path><path id="kity_path_135" fill="none" stroke="rgb(115, 161, 191)" stroke-width="1" d="M1375.5000241845846,1691.50000692904C1360.5000241845846,1691.50000692904,1360.5000241845846,1804.50000692904,1345.5000241845846,1804.50000692904L987.5000241845846,1804.50000692904"></path><path id="kity_path_137" fill="none" stroke="rgb(115, 161, 191)" stroke-width="1" d="M1375.5000241845846,1691.50000692904C1360.5000241845846,1691.50000692904,1360.5000241845846,2061.50000692904,1345.5000241845846,2061.50000692904L1166.5000241845846,2061.50000692904"></path><path id="kity_path_139" fill="none" stroke="rgb(115, 161, 191)" stroke-width="1" d="M1460.5000241845846,1253.50000692904C1445.5000241845846,1253.50000692904,1445.5000241845846,2149.50000692904,1430.5000241845846,2149.50000692904L1174.5000241845846,2149.50000692904"></path><path id="kity_path_141" fill="none" stroke="rgb(115, 161, 191)" stroke-width="1" d="M1460.5000241845846,1253.50000692904C1445.5000241845846,1253.50000692904,1445.5000241845846,2201.50000692904,1430.5000241845846,2201.50000692904L1351.5000241845846,2201.50000692904"></path><path id="kity_path_143" fill="none" stroke="rgb(115, 161, 191)" stroke-width="1" d="M1569.5000241845846,1844.50000692904C1554.5000241845846,1844.50000692904,1554.5000241845846,2463.50000692904,1539.5000241845846,2463.50000692904L1413.5000241845846,2463.50000692904"></path><path id="kity_path_145" fill="none" stroke="rgb(115, 161, 191)" stroke-width="1" d="M1413.5000241845846,2463.50000692904C1398.5000241845846,2463.50000692904,1398.5000241845846,2376.50000692904,1383.5000241845846,2376.50000692904L1292.5000241845846,2376.50000692904"></path><path id="kity_path_147" fill="none" stroke="rgb(115, 161, 191)" stroke-width="1" d="M1292.5000241845846,2376.50000692904C1277.5000241845846,2376.50000692904,1277.5000241845846,2289.50000692904,1262.5000241845846,2289.50000692904L1004.5000241845846,2289.50000692904"></path><path id="kity_path_149" fill="none" stroke="rgb(115, 161, 191)" stroke-width="1" d="M1292.5000241845846,2376.50000692904C1277.5000241845846,2376.50000692904,1277.5000241845846,2395.50000692904,1262.5000241845846,2395.50000692904L971.5000241845846,2395.50000692904"></path><path id="kity_path_151" fill="none" stroke="rgb(115, 161, 191)" stroke-width="1" d="M1292.5000241845846,2376.50000692904C1277.5000241845846,2376.50000692904,1277.5000241845846,2447.50000692904,1262.5000241845846,2447.50000692904L681.5000241845846,2447.50000692904"></path><path id="kity_path_153" fill="none" stroke="rgb(115, 161, 191)" stroke-width="1" d="M1292.5000241845846,2376.50000692904C1277.5000241845846,2376.50000692904,1277.5000241845846,2499.50000692904,1262.5000241845846,2499.50000692904L1066.5000241845846,2499.50000692904"></path><path id="kity_path_155" fill="none" stroke="rgb(115, 161, 191)" stroke-width="1" d="M1413.5000241845846,2463.50000692904C1398.5000241845846,2463.50000692904,1398.5000241845846,2551.50000692904,1383.5000241845846,2551.50000692904L1304.5000241845846,2551.50000692904"></path></g><g id="minder_node1"><path id="node_outline1" fill="rgb(115, 161, 191)" stroke="rgb(57, 80, 96)" d="M1776.5000241845846,1824.50000692904h114a5,5,0,0,1,5,5v30a5,5,0,0,1,-5,5h-114a5,5,0,0,1,-5,-5v-30a5,5,0,0,1,5,-5z" stroke-width="3"></path><g id="node_text1" fill="white"><text id="kity_text_22" text-rendering="inherit" font-size="16" dy=".8em" y="1834.100006762147" x="1795.5000241845846">JavaScript</text></g></g><g id="kity_g_12"><path id="kity_path_13" fill="none" stroke="none" d="M1795.5000241845846,1844.50000692904h0v0h0z"></path></g><g id="kity_g_14"><path id="kity_path_15" fill="none" stroke="none" d="M1795.5000241845846,1844.50000692904h0v0h0z"></path><path id="kity_path_16" fill="none" stroke="none"></path></g><g id="minder_node2"><g id="node_expander3" style="cursor: pointer;"><path id="kity_path_384" fill="white" stroke="gray" d="M2014.5000305324793,1799.5000055879354A6,6,0,1,1,2002.5000305324793,1799.5000055879354A6,6,0,1,1,2014.5000305324793,1799.5000055879354"></path><path id="kity_path_385" fill="none" stroke="gray" d="M2004.0000305324793,1799.5000055879354L2013.0000305324793,1799.5000055879354"></path></g><path id="node_outline4" fill="rgb(238, 243, 246)" stroke="rgb(115, 161, 191)" d="M2018.500031337142,1786.5000055879354h63a3,3,0,0,1,3,3v20a3,3,0,0,1,-3,3h-63a3,3,0,0,1,-3,-3v-20a3,3,0,0,1,3,-3z" stroke-width="1"></path><g id="node_text4" fill="black"><text id="kity_text_161" text-rendering="inherit" font-size="14" dy=".8em" y="1790.400005620718" x="2035.500031337142">文法</text></g></g><g id="minder_node3"><g id="node_expander1" display="none" style="cursor: pointer;"><path id="kity_path_378" fill="white" stroke="gray" d="M2124.5000338107347,1773.500004813075A6,6,0,1,1,2112.5000338107347,1773.500004813075A6,6,0,1,1,2124.5000338107347,1773.500004813075"></path><path id="kity_path_379" fill="none" stroke="gray"></path></g><path id="node_outline2" fill="none" stroke="none" d="M2129.500034287572,1762.500004813075h34a5,5,0,0,1,5,5v12a5,5,0,0,1,-5,5h-34a5,5,0,0,1,-5,-5v-12a5,5,0,0,1,5,-5z"></path><g id="node_text2" fill="black"><text id="kity_text_157" text-rendering="inherit" font-size="12" dy=".8em" y="1765.7000048865875" x="2134.500034287572">词法</text></g></g><g id="minder_node4"><g id="node_expander2" display="none" style="cursor: pointer;"><path id="kity_path_381" fill="white" stroke="gray" d="M2124.5000338107347,1825.5000063627958A6,6,0,1,1,2112.5000338107347,1825.5000063627958A6,6,0,1,1,2124.5000338107347,1825.5000063627958"></path><path id="kity_path_382" fill="none" stroke="gray"></path></g><path id="node_outline3" fill="none" stroke="none" d="M2129.500034287572,1814.5000063627958h34a5,5,0,0,1,5,5v12a5,5,0,0,1,-5,5h-34a5,5,0,0,1,-5,-5v-12a5,5,0,0,1,5,-5z"></path><g id="node_text3" fill="black"><text id="kity_text_159" text-rendering="inherit" font-size="12" dy=".8em" y="1817.7000064363083" x="2134.500034287572">语法</text></g></g><g id="minder_node5"><g id="node_expander4" display="none" style="cursor: pointer;"><path id="kity_path_387" fill="white" stroke="gray" d="M2014.5000305324793,1889.5000082701445A6,6,0,1,1,2002.5000305324793,1889.5000082701445A6,6,0,1,1,2014.5000305324793,1889.5000082701445"></path><path id="kity_path_388" fill="none" stroke="gray"></path></g><path id="node_outline5" fill="rgb(238, 243, 246)" stroke="rgb(115, 161, 191)" d="M2018.500031337142,1876.5000082701445h63a3,3,0,0,1,3,3v20a3,3,0,0,1,-3,3h-63a3,3,0,0,1,-3,-3v-20a3,3,0,0,1,3,-3z" stroke-width="1"></path><g id="node_text5" fill="black"><text id="kity_text_163" text-rendering="inherit" font-size="14" dy=".8em" y="1880.400008302927" x="2035.500031337142">语义</text></g></g><g id="minder_node6"><g id="node_expander63" style="cursor: pointer;"><path id="kity_path_564" fill="white" stroke="gray" d="M1664.5000201016665,1844.50000692904A6,6,0,1,1,1652.5000201016665,1844.50000692904A6,6,0,1,1,1664.5000201016665,1844.50000692904"></path><path id="kity_path_565" fill="none" stroke="gray" d="M1654.0000201016665,1844.50000692904L1663.0000201016665,1844.50000692904"></path></g><path id="node_outline64" fill="rgb(238, 243, 246)" stroke="rgb(115, 161, 191)" d="M1572.5000180453062,1831.50000692904h76a3,3,0,0,1,3,3v20a3,3,0,0,1,-3,3h-76a3,3,0,0,1,-3,-3v-20a3,3,0,0,1,3,-3z" stroke-width="1"></path><g id="node_text64" fill="black"><text id="kity_text_312" text-rendering="inherit" font-size="14" dy=".8em" y="1835.4000069618226" x="1589.5000180453062">运行时</text></g></g><g id="minder_node7"><g id="node_expander55" style="cursor: pointer;"><path id="kity_path_540" fill="white" stroke="gray" d="M1541.5000164359808,1239.499988898635A6,6,0,1,1,1529.5000164359808,1239.499988898635A6,6,0,1,1,1541.5000164359808,1239.499988898635"></path><path id="kity_path_541" fill="none" stroke="gray" d="M1531.0000164359808,1239.499988898635L1540.0000164359808,1239.499988898635"></path></g><path id="node_outline56" fill="none" stroke="none" d="M1465.5000144988298,1228.499988898635h59a5,5,0,0,1,5,5v12a5,5,0,0,1,-5,5h-59a5,5,0,0,1,-5,-5v-12a5,5,0,0,1,5,-5z"></path><g id="node_text56" fill="black"><text id="kity_text_291" text-rendering="inherit" font-size="12" dy=".8em" y="1231.6999889721474" x="1470.5000144988298">数据结构</text></g></g><g id="minder_node8"><g id="node_expander20" style="cursor: pointer;"><path id="kity_path_435" fill="white" stroke="gray" d="M1432.5000131875277,291.4999606460333A6,6,0,1,1,1420.5000131875277,291.4999606460333A6,6,0,1,1,1432.5000131875277,291.4999606460333"></path><path id="kity_path_436" fill="none" stroke="gray" d="M1422.0000131875277,291.4999606460333L1431.0000131875277,291.4999606460333"></path></g><path id="node_outline21" fill="none" stroke="none" d="M1356.5000112503767,280.4999606460333h59a5,5,0,0,1,5,5v12a5,5,0,0,1,-5,5h-59a5,5,0,0,1,-5,-5v-12a5,5,0,0,1,5,-5z"></path><g id="node_text21" fill="black"><text id="kity_text_198" text-rendering="inherit" font-size="12" dy=".8em" y="283.6999607195457" x="1361.5000112503767">数据类型</text></g></g><g id="minder_node9"><g id="node_expander15" style="cursor: pointer;"><path id="kity_path_420" fill="white" stroke="gray" d="M1323.5000099390745,178.49995727837086A6,6,0,1,1,1311.5000099390745,178.49995727837086A6,6,0,1,1,1323.5000099390745,178.49995727837086"></path><path id="kity_path_421" fill="none" stroke="gray" d="M1313.0000099390745,178.49995727837086L1322.0000099390745,178.49995727837086"></path></g><path id="node_outline16" fill="none" stroke="none" d="M1163.5000054985285,167.49995727837086h143a5,5,0,0,1,5,5v12a5,5,0,0,1,-5,5h-143a5,5,0,0,1,-5,-5v-12a5,5,0,0,1,5,-5z"></path><g id="node_text16" fill="black"><text id="kity_text_187" text-rendering="inherit" font-size="12" dy=".8em" y="170.69995735188326" x="1168.5000054985285">基本数据类型（值类型）</text></g></g><g id="minder_node10"><g id="node_expander6" style="cursor: pointer;"><path id="kity_path_393" fill="white" stroke="gray" d="M1130.5000041872263,30.499952867627144A6,6,0,1,1,1118.5000041872263,30.499952867627144A6,6,0,1,1,1130.5000041872263,30.499952867627144"></path><path id="kity_path_394" fill="none" stroke="gray" d="M1120.0000041872263,30.499952867627144L1129.0000041872263,30.499952867627144"></path></g><path id="node_outline7" fill="none" stroke="none" d="M1033.5000016242266,19.499952867627144h80a5,5,0,0,1,5,5v12a5,5,0,0,1,-5,5h-80a5,5,0,0,1,-5,-5v-12a5,5,0,0,1,5,-5z"></path><g id="node_text7" fill="black"><text id="kity_text_167" text-rendering="inherit" font-size="12" dy=".8em" y="22.699952941139543" x="1038.5000016242266">1.Undefined</text></g></g><g id="minder_node11"><g id="node_expander5" display="none" style="cursor: pointer;"><path id="kity_path_390" fill="white" stroke="gray" d="M1000.5000003129244,30.499952867627144A6,6,0,1,1,988.5000003129244,30.499952867627144A6,6,0,1,1,1000.5000003129244,30.499952867627144"></path><path id="kity_path_391" fill="none" stroke="gray"></path></g><path id="node_outline6" fill="none" stroke="none" d="M806.4999948590994,19.499952867627144h177a5,5,0,0,1,5,5v12a5,5,0,0,1,-5,5h-177a5,5,0,0,1,-5,-5v-12a5,5,0,0,1,5,-5z"></path><g id="node_text6" fill="black"><text id="kity_text_165" text-rendering="inherit" font-size="12" dy=".8em" y="22.699952941139543" x="811.4999948590994">undefined是变量、不是关键字</text></g></g><g id="minder_node12"><g id="node_expander8" style="cursor: pointer;"><path id="kity_path_399" fill="white" stroke="gray" d="M1130.5000041872263,82.49995441734791A6,6,0,1,1,1118.5000041872263,82.49995441734791A6,6,0,1,1,1130.5000041872263,82.49995441734791"></path><path id="kity_path_400" fill="none" stroke="gray" d="M1120.0000041872263,82.49995441734791L1129.0000041872263,82.49995441734791"></path></g><path id="node_outline9" fill="none" stroke="none" d="M1070.5000027269125,71.49995441734791h43a5,5,0,0,1,5,5v12a5,5,0,0,1,-5,5h-43a5,5,0,0,1,-5,-5v-12a5,5,0,0,1,5,-5z"></path><g id="node_text9" fill="black"><text id="kity_text_171" text-rendering="inherit" font-size="12" dy=".8em" y="74.6999544908603" x="1075.5000027269125">2.Null</text></g></g><g id="minder_node13"><g id="node_expander7" display="none" style="cursor: pointer;"><path id="kity_path_396" fill="white" stroke="gray" d="M1037.5000014156103,82.49995441734791A6,6,0,1,1,1025.5000014156103,82.49995441734791A6,6,0,1,1,1037.5000014156103,82.49995441734791"></path><path id="kity_path_397" fill="none" stroke="gray"></path></g><path id="node_outline8" fill="none" stroke="none" d="M941.4999988824129,71.49995441734791h79a5,5,0,0,1,5,5v12a5,5,0,0,1,-5,5h-79a5,5,0,0,1,-5,-5v-12a5,5,0,0,1,5,-5z"></path><g id="node_text8" fill="black"><text id="kity_text_169" text-rendering="inherit" font-size="12" dy=".8em" y="74.6999544908603" x="946.4999988824129">null是关键字</text></g></g><g id="minder_node14"><g id="node_expander9" display="none" style="cursor: pointer;"><path id="kity_path_402" fill="white" stroke="gray" d="M1130.5000041872263,134.49995596706867A6,6,0,1,1,1118.5000041872263,134.49995596706867A6,6,0,1,1,1130.5000041872263,134.49995596706867"></path><path id="kity_path_403" fill="none" stroke="gray"></path></g><path id="node_outline10" fill="none" stroke="none" d="M1046.5000020116568,123.49995596706867h67a5,5,0,0,1,5,5v12a5,5,0,0,1,-5,5h-67a5,5,0,0,1,-5,-5v-12a5,5,0,0,1,5,-5z"></path><g id="node_text10" fill="black"><text id="kity_text_173" text-rendering="inherit" font-size="12" dy=".8em" y="126.69995604058107" x="1051.5000020116568">3.Boolean</text></g></g><g id="minder_node15"><g id="node_expander11" style="cursor: pointer;"><path id="kity_path_408" fill="white" stroke="gray" d="M1130.5000041872263,195.49995778501034A6,6,0,1,1,1118.5000041872263,195.49995778501034A6,6,0,1,1,1130.5000041872263,195.49995778501034"></path><path id="kity_path_409" fill="none" stroke="gray" d="M1120.0000041872263,195.49995778501034L1129.0000041872263,195.49995778501034"></path></g><path id="node_outline12" fill="none" stroke="none" d="M1058.5000023692846,184.49995778501034h55a5,5,0,0,1,5,5v12a5,5,0,0,1,-5,5h-55a5,5,0,0,1,-5,-5v-12a5,5,0,0,1,5,-5z"></path><g id="node_text12" fill="black"><text id="kity_text_178" text-rendering="inherit" font-size="12" dy=".8em" y="187.69995785852274" x="1063.5000023692846">4.String</text></g></g><g id="minder_node16"><g id="node_expander10" display="none" style="cursor: pointer;"><path id="kity_path_405" fill="white" stroke="gray" d="M1025.5000010579824,195.49995778501034A6,6,0,1,1,1013.5000010579824,195.49995778501034A6,6,0,1,1,1025.5000010579824,195.49995778501034"></path><path id="kity_path_406" fill="none" stroke="gray"></path></g><path id="node_outline11" fill="none" stroke="none" d="M464.49998466670513,175.49995778501034h544a5,5,0,0,1,5,5v30a5,5,0,0,1,-5,5h-544a5,5,0,0,1,-5,-5v-30a5,5,0,0,1,5,-5z"></path><g id="node_text11" fill="black"><text id="kity_text_175" text-rendering="inherit" font-size="12" dy=".8em" y="178.69995785852274" x="469.49998466670513">字符串所占字节数</text><text id="kity_text_176" text-rendering="inherit" font-size="12" dy=".8em" y="196.69995785852274" x="469.49998466670513">http://www.alloyteam.com/2013/12/js-calculate-the-number-of-bytes-occupied-by-a-string/</text></g></g><g id="minder_node17"><g id="node_expander13" style="cursor: pointer;"><path id="kity_path_414" fill="white" stroke="gray" d="M1130.5000041872263,265.4999598711729A6,6,0,1,1,1118.5000041872263,265.4999598711729A6,6,0,1,1,1130.5000041872263,265.4999598711729"></path><path id="kity_path_415" fill="none" stroke="gray" d="M1120.0000041872263,265.4999598711729L1129.0000041872263,265.4999598711729"></path></g><path id="node_outline14" fill="none" stroke="none" d="M1045.5000019818544,254.4999598711729h68a5,5,0,0,1,5,5v12a5,5,0,0,1,-5,5h-68a5,5,0,0,1,-5,-5v-12a5,5,0,0,1,5,-5z"></path><g id="node_text14" fill="black"><text id="kity_text_183" text-rendering="inherit" font-size="12" dy=".8em" y="257.6999599446853" x="1050.5000019818544">5.Number</text></g></g><g id="minder_node18"><g id="node_expander12" display="none" style="cursor: pointer;"><path id="kity_path_411" fill="white" stroke="gray" d="M1012.5000006705523,265.4999598711729A6,6,0,1,1,1000.5000006705523,265.4999598711729A6,6,0,1,1,1012.5000006705523,265.4999598711729"></path><path id="kity_path_412" fill="none" stroke="gray"></path></g><path id="node_outline13" fill="none" stroke="none" d="M783.499994173646,245.4999598711729h212a5,5,0,0,1,5,5v30a5,5,0,0,1,-5,5h-212a5,5,0,0,1,-5,-5v-30a5,5,0,0,1,5,-5z"></path><g id="node_text13" fill="black"><text id="kity_text_180" text-rendering="inherit" font-size="12" dy=".8em" y="248.6999599446853" x="788.499994173646">IEEE 754-2008 规范的一些问题</text><text id="kity_text_181" text-rendering="inherit" font-size="12" dy=".8em" y="266.6999599446853" x="788.499994173646">https://www.html.cn/archives/7340</text></g></g><g id="minder_node19"><g id="node_expander14" display="none" style="cursor: pointer;"><path id="kity_path_417" fill="white" stroke="gray" d="M1130.5000041872263,326.49996168911457A6,6,0,1,1,1118.5000041872263,326.49996168911457A6,6,0,1,1,1130.5000041872263,326.49996168911457"></path><path id="kity_path_418" fill="none" stroke="gray"></path></g><path id="node_outline15" fill="none" stroke="none" d="M1050.500002130866,315.49996168911457h63a5,5,0,0,1,5,5v12a5,5,0,0,1,-5,5h-63a5,5,0,0,1,-5,-5v-12a5,5,0,0,1,5,-5z"></path><g id="node_text15" fill="black"><text id="kity_text_185" text-rendering="inherit" font-size="12" dy=".8em" y="318.69996176262697" x="1055.500002130866">6.Symbol</text></g></g><g id="minder_node20"><g id="node_expander19" style="cursor: pointer;"><path id="kity_path_432" fill="white" stroke="gray" d="M1323.5000099390745,404.4999640136957A6,6,0,1,1,1311.5000099390745,404.4999640136957A6,6,0,1,1,1323.5000099390745,404.4999640136957"></path><path id="kity_path_433" fill="none" stroke="gray" d="M1313.0000099390745,404.4999640136957L1322.0000099390745,404.4999640136957"></path></g><path id="node_outline20" fill="none" stroke="none" d="M1151.5000051409006,393.4999640136957h155a5,5,0,0,1,5,5v12a5,5,0,0,1,-5,5h-155a5,5,0,0,1,-5,-5v-12a5,5,0,0,1,5,-5z"></path><g id="node_text20" fill="black"><text id="kity_text_196" text-rendering="inherit" font-size="12" dy=".8em" y="396.6999640872081" x="1156.5000051409006">对象数据类型（引用类型）</text></g></g><g id="minder_node21"><g id="node_expander18" style="cursor: pointer;"><path id="kity_path_429" fill="white" stroke="gray" d="M1118.5000038295984,404.4999640136957A6,6,0,1,1,1106.5000038295984,404.4999640136957A6,6,0,1,1,1118.5000038295984,404.4999640136957"></path><path id="kity_path_430" fill="none" stroke="gray" d="M1108.0000038295984,404.4999640136957L1117.0000038295984,404.4999640136957"></path></g><path id="node_outline19" fill="none" stroke="none" d="M898.499997600913,384.4999640136957h203a5,5,0,0,1,5,5v30a5,5,0,0,1,-5,5h-203a5,5,0,0,1,-5,-5v-30a5,5,0,0,1,5,-5z"></path><g id="node_text19" fill="black"><text id="kity_text_193" text-rendering="inherit" font-size="12" dy=".8em" y="387.6999640872081" x="903.499997600913">7.Object</text><text id="kity_text_194" text-rendering="inherit" font-size="12" dy=".8em" y="405.6999640872081" x="903.499997600913">在JS中，对象数据类型基本分为两类</text></g></g><g id="minder_node22"><g id="node_expander16" display="none" style="cursor: pointer;"><path id="kity_path_423" fill="white" stroke="gray" d="M865.4999962896109,378.49996323883533A6,6,0,1,1,853.4999962896109,378.49996323883533A6,6,0,1,1,865.4999962896109,378.49996323883533"></path><path id="kity_path_424" fill="none" stroke="gray"></path></g><path id="node_outline17" fill="none" stroke="none" d="M610.4999890178442,367.49996323883533h238a5,5,0,0,1,5,5v12a5,5,0,0,1,-5,5h-238a5,5,0,0,1,-5,-5v-12a5,5,0,0,1,5,-5z"></path><g id="node_text17" fill="black"><text id="kity_text_189" text-rendering="inherit" font-size="12" dy=".8em" y="370.69996331234773" x="615.4999890178442">可以new的函数对象（构造函数、构造器）</text></g></g><g id="minder_node23"><g id="node_expander17" display="none" style="cursor: pointer;"><path id="kity_path_426" fill="white" stroke="gray" d="M865.4999962896109,430.4999647885561A6,6,0,1,1,853.4999962896109,430.4999647885561A6,6,0,1,1,865.4999962896109,430.4999647885561"></path><path id="kity_path_427" fill="none" stroke="gray"></path></g><path id="node_outline18" fill="none" stroke="none" d="M717.4999922066927,419.4999647885561h131a5,5,0,0,1,5,5v12a5,5,0,0,1,-5,5h-131a5,5,0,0,1,-5,-5v-12a5,5,0,0,1,5,-5z"></path><g id="node_text18" fill="black"><text id="kity_text_191" text-rendering="inherit" font-size="12" dy=".8em" y="422.6999648620685" x="722.4999922066927">不可以new的普通对象</text></g></g><g id="minder_node24"><g id="node_expander41" style="cursor: pointer;"><path id="kity_path_498" fill="white" stroke="gray" d="M1432.5000131875277,890.4999784976244A6,6,0,1,1,1420.5000131875277,890.4999784976244A6,6,0,1,1,1432.5000131875277,890.4999784976244"></path><path id="kity_path_499" fill="none" stroke="gray" d="M1422.0000131875277,890.4999784976244L1431.0000131875277,890.4999784976244"></path></g><path id="node_outline42" fill="none" stroke="none" d="M1251.5000081211329,879.4999784976244h164a5,5,0,0,1,5,5v12a5,5,0,0,1,-5,5h-164a5,5,0,0,1,-5,-5v-12a5,5,0,0,1,5,-5z"></path><g id="node_text42" fill="black"><text id="kity_text_249" text-rendering="inherit" font-size="12" dy=".8em" y="882.6999785711369" x="1256.5000081211329">理解JavaScript是面向对象的</text></g></g><g id="minder_node25"><g id="node_expander24" style="cursor: pointer;"><path id="kity_path_447" fill="white" stroke="gray" d="M1218.5000068098307,534.4999678879976A6,6,0,1,1,1206.5000068098307,534.4999678879976A6,6,0,1,1,1218.5000068098307,534.4999678879976"></path><path id="kity_path_448" fill="none" stroke="gray" d="M1208.0000068098307,534.4999678879976L1217.0000068098307,534.4999678879976"></path></g><path id="node_outline25" fill="none" stroke="none" d="M1070.5000027269125,523.4999678879976h131a5,5,0,0,1,5,5v12a5,5,0,0,1,-5,5h-131a5,5,0,0,1,-5,-5v-12a5,5,0,0,1,5,-5z"></path><g id="node_text25" fill="black"><text id="kity_text_206" text-rendering="inherit" font-size="12" dy=".8em" y="526.6999679615101" x="1075.5000027269125">人类对对象的朴素认知</text></g></g><g id="minder_node26"><g id="node_expander21" display="none" style="cursor: pointer;"><path id="kity_path_438" fill="white" stroke="gray" d="M1037.5000014156103,482.49996633827686A6,6,0,1,1,1025.5000014156103,482.49996633827686A6,6,0,1,1,1037.5000014156103,482.49996633827686"></path><path id="kity_path_439" fill="none" stroke="gray"></path></g><path id="node_outline22" fill="none" stroke="none" d="M830.4999955743551,471.49996633827686h190a5,5,0,0,1,5,5v12a5,5,0,0,1,-5,5h-190a5,5,0,0,1,-5,-5v-12a5,5,0,0,1,5,-5z"></path><g id="node_text22" fill="black"><text id="kity_text_200" text-rendering="inherit" font-size="12" dy=".8em" y="474.69996641178926" x="835.4999955743551">一个可以触摸或者可以看见的东西</text></g></g><g id="minder_node27"><g id="node_expander22" display="none" style="cursor: pointer;"><path id="kity_path_441" fill="white" stroke="gray" d="M1037.5000014156103,534.4999678879976A6,6,0,1,1,1025.5000014156103,534.4999678879976A6,6,0,1,1,1037.5000014156103,534.4999678879976"></path><path id="kity_path_442" fill="none" stroke="gray"></path></g><path id="node_outline23" fill="none" stroke="none" d="M877.4999969750643,523.4999678879976h143a5,5,0,0,1,5,5v12a5,5,0,0,1,-5,5h-143a5,5,0,0,1,-5,-5v-12a5,5,0,0,1,5,-5z"></path><g id="node_text23" fill="black"><text id="kity_text_202" text-rendering="inherit" font-size="12" dy=".8em" y="526.6999679615101" x="882.4999969750643">人的智力可以理解的东西</text></g></g><g id="minder_node28"><g id="node_expander23" display="none" style="cursor: pointer;"><path id="kity_path_444" fill="white" stroke="gray" d="M1037.5000014156103,586.4999694377184A6,6,0,1,1,1025.5000014156103,586.4999694377184A6,6,0,1,1,1037.5000014156103,586.4999694377184"></path><path id="kity_path_445" fill="none" stroke="gray"></path></g><path id="node_outline24" fill="none" stroke="none" d="M854.4999962896109,575.4999694377184h166a5,5,0,0,1,5,5v12a5,5,0,0,1,-5,5h-166a5,5,0,0,1,-5,-5v-12a5,5,0,0,1,5,-5z"></path><g id="node_text24" fill="black"><text id="kity_text_204" text-rendering="inherit" font-size="12" dy=".8em" y="578.6999695112308" x="859.4999962896109">可以指导思考或者行动的东西</text></g></g><g id="minder_node29"><g id="node_expander28" style="cursor: pointer;"><path id="kity_path_459" fill="white" stroke="gray" d="M1218.5000068098307,699.4999728053808A6,6,0,1,1,1206.5000068098307,699.4999728053808A6,6,0,1,1,1218.5000068098307,699.4999728053808"></path><path id="kity_path_460" fill="none" stroke="gray" d="M1208.0000068098307,699.4999728053808L1217.0000068098307,699.4999728053808"></path></g><path id="node_outline29" fill="none" stroke="none" d="M1082.5000030845404,688.4999728053808h119a5,5,0,0,1,5,5v12a5,5,0,0,1,-5,5h-119a5,5,0,0,1,-5,-5v-12a5,5,0,0,1,5,-5z"></path><g id="node_text29" fill="black"><text id="kity_text_215" text-rendering="inherit" font-size="12" dy=".8em" y="691.6999728788933" x="1087.5000030845404">面向对象的基础理论</text></g></g><g id="minder_node30"><g id="node_expander25" display="none" style="cursor: pointer;"><path id="kity_path_450" fill="white" stroke="gray" d="M1049.5000017732382,647.4999712556601A6,6,0,1,1,1037.5000017732382,647.4999712556601A6,6,0,1,1,1049.5000017732382,647.4999712556601"></path><path id="kity_path_451" fill="none" stroke="gray"></path></g><path id="node_outline26" fill="none" stroke="none" d="M661.4999905377626,627.4999712556601h371a5,5,0,0,1,5,5v30a5,5,0,0,1,-5,5h-371a5,5,0,0,1,-5,-5v-30a5,5,0,0,1,5,-5z"></path><g id="node_text26" fill="black"><text id="kity_text_208" text-rendering="inherit" font-size="12" dy=".8em" y="630.6999713291725" x="666.4999905377626">对象具有唯一标识性：即使完全相同的两个对象，也并非同一个对象</text><text id="kity_text_209" text-rendering="inherit" font-size="12" dy=".8em" y="648.6999713291725" x="666.4999905377626">（各种语言一般而言使用内存地址来体现）</text></g></g><g id="minder_node31"><g id="node_expander26" display="none" style="cursor: pointer;"><path id="kity_path_453" fill="white" stroke="gray" d="M1049.5000017732382,708.4999730736017A6,6,0,1,1,1037.5000017732382,708.4999730736017A6,6,0,1,1,1049.5000017732382,708.4999730736017"></path><path id="kity_path_454" fill="none" stroke="gray"></path></g><path id="node_outline27" fill="none" stroke="none" d="M697.4999916106462,697.4999730736017h335a5,5,0,0,1,5,5v12a5,5,0,0,1,-5,5h-335a5,5,0,0,1,-5,-5v-12a5,5,0,0,1,5,-5z"></path><g id="node_text27" fill="black"><text id="kity_text_211" text-rendering="inherit" font-size="12" dy=".8em" y="700.6999731471142" x="702.4999916106462">对象有状态：对象具有状态，同一对象可能处于不同状态之下</text></g></g><g id="minder_node32"><g id="node_expander27" display="none" style="cursor: pointer;"><path id="kity_path_456" fill="white" stroke="gray" d="M1049.5000017732382,760.4999746233225A6,6,0,1,1,1037.5000017732382,760.4999746233225A6,6,0,1,1,1049.5000017732382,760.4999746233225"></path><path id="kity_path_457" fill="none" stroke="gray"></path></g><path id="node_outline28" fill="none" stroke="none" d="M709.4999919682741,749.4999746233225h323a5,5,0,0,1,5,5v12a5,5,0,0,1,-5,5h-323a5,5,0,0,1,-5,-5v-12a5,5,0,0,1,5,-5z"></path><g id="node_text28" fill="black"><text id="kity_text_213" text-rendering="inherit" font-size="12" dy=".8em" y="752.6999746968349" x="714.4999919682741">对象具有行为：即对象的状态，可能因为它的行为产生变迁</text></g></g><g id="minder_node33"><g id="node_expander39" style="cursor: pointer;"><path id="kity_path_492" fill="white" stroke="gray" d="M1218.5000068098307,990.4999814778566A6,6,0,1,1,1206.5000068098307,990.4999814778566A6,6,0,1,1,1218.5000068098307,990.4999814778566"></path><path id="kity_path_493" fill="none" stroke="gray" d="M1208.0000068098307,990.4999814778566L1217.0000068098307,990.4999814778566"></path></g><path id="node_outline40" fill="none" stroke="none" d="M862.4999965280294,961.4999814778566h339a5,5,0,0,1,5,5v48a5,5,0,0,1,-5,5h-339a5,5,0,0,1,-5,-5v-48a5,5,0,0,1,5,-5z"></path><g id="node_text40" fill="black"><text id="kity_text_242" text-rendering="inherit" font-size="12" dy=".8em" y="964.6999815513691" x="867.4999965280294">在 JavaScript 中，对象的状态和行为其实都被抽象为了属性</text><text id="kity_text_243" text-rendering="inherit" font-size="12" dy=".8em" y="982.6999815513691" x="867.4999965280294">对 JavaScript 来说，属性并非只是简单的名称和值</text><text id="kity_text_244" text-rendering="inherit" font-size="12" dy=".8em" y="1000.6999815513691" x="867.4999965280294">JavaScript 用一组特征（attribute）来描述属性（property）</text></g></g><g id="minder_node34"><g id="node_expander33" style="cursor: pointer;"><path id="kity_path_474" fill="white" stroke="gray" d="M829.4999952167273,891.4999785274267A6,6,0,1,1,817.4999952167273,891.4999785274267A6,6,0,1,1,829.4999952167273,891.4999785274267"></path><path id="kity_path_475" fill="none" stroke="gray" d="M818.9999952167273,891.4999785274267L827.9999952167273,891.4999785274267"></path></g><path id="node_outline34" fill="none" stroke="none" d="M435.4999838024378,853.4999785274267h377a5,5,0,0,1,5,5v66a5,5,0,0,1,-5,5h-377a5,5,0,0,1,-5,-5v-66a5,5,0,0,1,5,-5z"></path><g id="node_text34" fill="black"><text id="kity_text_225" text-rendering="inherit" font-size="12" dy=".8em" y="856.6999786009392" x="440.4999838024378">数据属性</text><text id="kity_text_226" text-rendering="inherit" font-size="12" dy=".8em" y="874.6999786009392" x="440.4999838024378">new Object()/对象字面量/Object.create()/Object.defineProperty()</text><text id="kity_text_227" text-rendering="inherit" font-size="12" dy=".8em" y="892.6999786009392" x="440.4999838024378">数据属性具有四个特征</text><text id="kity_text_228" text-rendering="inherit" font-size="12" dy=".8em" y="910.6999786009392" x="440.4999838024378">使用Object.getOwnPropertyDescriptor()查看</text></g></g><g id="minder_node35"><g id="node_expander29" display="none" style="cursor: pointer;"><path id="kity_path_462" fill="white" stroke="gray" d="M402.4999824911356,813.4999762028456A6,6,0,1,1,390.4999824911356,813.4999762028456A6,6,0,1,1,402.4999824911356,813.4999762028456"></path><path id="kity_path_463" fill="none" stroke="gray"></path></g><path id="node_outline30" fill="none" stroke="none" d="M259.49997855722904,802.4999762028456h126a5,5,0,0,1,5,5v12a5,5,0,0,1,-5,5h-126a5,5,0,0,1,-5,-5v-12a5,5,0,0,1,5,-5z"></path><g id="node_text30" fill="black"><text id="kity_text_217" text-rendering="inherit" font-size="12" dy=".8em" y="805.699976276358" x="264.49997855722904">value：就是属性的值 </text></g></g><g id="minder_node36"><g id="node_expander30" display="none" style="cursor: pointer;"><path id="kity_path_465" fill="white" stroke="gray" d="M402.4999824911356,865.4999777525663A6,6,0,1,1,390.4999824911356,865.4999777525663A6,6,0,1,1,402.4999824911356,865.4999777525663"></path><path id="kity_path_466" fill="none" stroke="gray"></path></g><path id="node_outline31" fill="none" stroke="none" d="M137.4999749213457,854.4999777525663h248a5,5,0,0,1,5,5v12a5,5,0,0,1,-5,5h-248a5,5,0,0,1,-5,-5v-12a5,5,0,0,1,5,-5z"></path><g id="node_text31" fill="black"><text id="kity_text_219" text-rendering="inherit" font-size="12" dy=".8em" y="857.6999778260788" x="142.4999749213457">writable：决定属性能否被赋值，默认为true</text></g></g><g id="minder_node37"><g id="node_expander31" display="none" style="cursor: pointer;"><path id="kity_path_468" fill="white" stroke="gray" d="M402.4999824911356,917.4999793022871A6,6,0,1,1,390.4999824911356,917.4999793022871A6,6,0,1,1,402.4999824911356,917.4999793022871"></path><path id="kity_path_469" fill="none" stroke="gray"></path></g><path id="node_outline32" fill="none" stroke="none" d="M78.49997316300869,906.4999793022871h307a5,5,0,0,1,5,5v12a5,5,0,0,1,-5,5h-307a5,5,0,0,1,-5,-5v-12a5,5,0,0,1,5,-5z"></path><g id="node_text32" fill="black"><text id="kity_text_221" text-rendering="inherit" font-size="12" dy=".8em" y="909.6999793757996" x="83.49997316300869">enumerable：决定 for in 能否枚举该属性，默认为true</text></g></g><g id="minder_node38"><g id="node_expander32" display="none" style="cursor: pointer;"><path id="kity_path_471" fill="white" stroke="gray" d="M402.4999824911356,969.4999808520079A6,6,0,1,1,390.4999824911356,969.4999808520079A6,6,0,1,1,402.4999824911356,969.4999808520079"></path><path id="kity_path_472" fill="none" stroke="gray"></path></g><path id="node_outline33" fill="none" stroke="none" d="M24.49997155368328,958.4999808520079h361a5,5,0,0,1,5,5v12a5,5,0,0,1,-5,5h-361a5,5,0,0,1,-5,-5v-12a5,5,0,0,1,5,-5z"></path><g id="node_text33" fill="black"><text id="kity_text_223" text-rendering="inherit" font-size="12" dy=".8em" y="961.6999809255203" x="29.49997155368328">configurable：决定该属性能否被删除或者改变特征值,默认为true</text></g></g><g id="minder_node39"><g id="node_expander38" style="cursor: pointer;"><path id="kity_path_489" fill="white" stroke="gray" d="M829.4999952167273,1099.4999847263098A6,6,0,1,1,817.4999952167273,1099.4999847263098A6,6,0,1,1,829.4999952167273,1099.4999847263098"></path><path id="kity_path_490" fill="none" stroke="gray" d="M818.9999952167273,1099.4999847263098L827.9999952167273,1099.4999847263098"></path></g><path id="node_outline39" fill="none" stroke="none" d="M579.4999880939722,1070.4999847263098h233a5,5,0,0,1,5,5v48a5,5,0,0,1,-5,5h-233a5,5,0,0,1,-5,-5v-48a5,5,0,0,1,5,-5z"></path><g id="node_text39" fill="black"><text id="kity_text_238" text-rendering="inherit" font-size="12" dy=".8em" y="1073.6999847998222" x="584.4999880939722">访问器属性</text><text id="kity_text_239" text-rendering="inherit" font-size="12" dy=".8em" y="1091.6999847998222" x="584.4999880939722">只能使用&#xa0;Object.defineProperty()来定义</text><text id="kity_text_240" text-rendering="inherit" font-size="12" dy=".8em" y="1109.6999847998222" x="584.4999880939722">访问器属性也有四个特征</text></g></g><g id="minder_node40"><g id="node_expander34" display="none" style="cursor: pointer;"><path id="kity_path_477" fill="white" stroke="gray" d="M546.49998678267,1021.4999824017286A6,6,0,1,1,534.49998678267,1021.4999824017286A6,6,0,1,1,546.49998678267,1021.4999824017286"></path><path id="kity_path_478" fill="none" stroke="gray"></path></g><path id="node_outline35" fill="none" stroke="none" d="M254.49997840821743,1010.4999824017286h275a5,5,0,0,1,5,5v12a5,5,0,0,1,-5,5h-275a5,5,0,0,1,-5,-5v-12a5,5,0,0,1,5,-5z"></path><g id="node_text35" fill="black"><text id="kity_text_230" text-rendering="inherit" font-size="12" dy=".8em" y="1013.6999824752411" x="259.49997840821743">getter：函数或 undefined，在取属性值时被调用 </text></g></g><g id="minder_node41"><g id="node_expander35" display="none" style="cursor: pointer;"><path id="kity_path_480" fill="white" stroke="gray" d="M546.49998678267,1073.4999839514494A6,6,0,1,1,534.49998678267,1073.4999839514494A6,6,0,1,1,546.49998678267,1073.4999839514494"></path><path id="kity_path_481" fill="none" stroke="gray"></path></g><path id="node_outline36" fill="none" stroke="none" d="M244.4999781101942,1062.4999839514494h285a5,5,0,0,1,5,5v12a5,5,0,0,1,-5,5h-285a5,5,0,0,1,-5,-5v-12a5,5,0,0,1,5,-5z"></path><g id="node_text36" fill="black"><text id="kity_text_232" text-rendering="inherit" font-size="12" dy=".8em" y="1065.6999840249619" x="249.4999781101942">setter：函数或 undefined，在设置属性值时被调用</text></g></g><g id="minder_node42"><g id="node_expander36" display="none" style="cursor: pointer;"><path id="kity_path_483" fill="white" stroke="gray" d="M546.49998678267,1125.4999855011702A6,6,0,1,1,534.49998678267,1125.4999855011702A6,6,0,1,1,546.49998678267,1125.4999855011702"></path><path id="kity_path_484" fill="none" stroke="gray"></path></g><path id="node_outline37" fill="none" stroke="none" d="M222.4999774545431,1114.4999855011702h307a5,5,0,0,1,5,5v12a5,5,0,0,1,-5,5h-307a5,5,0,0,1,-5,-5v-12a5,5,0,0,1,5,-5z"></path><g id="node_text37" fill="black"><text id="kity_text_234" text-rendering="inherit" font-size="12" dy=".8em" y="1117.6999855746826" x="227.4999774545431">enumerable：决定 for in 能否枚举该属性，默认为true</text></g></g><g id="minder_node43"><g id="node_expander37" display="none" style="cursor: pointer;"><path id="kity_path_486" fill="white" stroke="gray" d="M546.49998678267,1177.499987050891A6,6,0,1,1,534.49998678267,1177.499987050891A6,6,0,1,1,546.49998678267,1177.499987050891"></path><path id="kity_path_487" fill="none" stroke="gray"></path></g><path id="node_outline38" fill="none" stroke="none" d="M159.4999755769968,1166.499987050891h370a5,5,0,0,1,5,5v12a5,5,0,0,1,-5,5h-370a5,5,0,0,1,-5,-5v-12a5,5,0,0,1,5,-5z"></path><g id="node_text38" fill="black"><text id="kity_text_236" text-rendering="inherit" font-size="12" dy=".8em" y="1169.6999871244034" x="164.4999755769968">configurable：决定该属性能否被删除或者改变特征值，默认为true</text></g></g><g id="minder_node44"><g id="node_expander40" display="none" style="cursor: pointer;"><path id="kity_path_495" fill="white" stroke="gray" d="M1218.5000068098307,1237.4999888390303A6,6,0,1,1,1206.5000068098307,1237.4999888390303A6,6,0,1,1,1218.5000068098307,1237.4999888390303"></path><path id="kity_path_496" fill="none" stroke="gray"></path></g><path id="node_outline41" fill="none" stroke="none" d="M714.4999921172857,1217.4999888390303h487a5,5,0,0,1,5,5v30a5,5,0,0,1,-5,5h-487a5,5,0,0,1,-5,-5v-30a5,5,0,0,1,5,-5z"></path><g id="node_text41" fill="black"><text id="kity_text_246" text-rendering="inherit" font-size="12" dy=".8em" y="1220.6999889125427" x="719.4999921172857">在实现了对象基本特征的基础上, JavaScript 中对象独有的特色是：对象具有高度的动态性</text><text id="kity_text_247" text-rendering="inherit" font-size="12" dy=".8em" y="1238.6999889125427" x="719.4999921172857">这是因为 JavaScript 赋予了使用者在运行时为对象添改状态和行为的能力。</text></g></g><g id="minder_node45"><g id="node_expander52" style="cursor: pointer;"><path id="kity_path_531" fill="white" stroke="gray" d="M1432.5000131875277,1677.5000019520521A6,6,0,1,1,1420.5000131875277,1677.5000019520521A6,6,0,1,1,1432.5000131875277,1677.5000019520521"></path><path id="kity_path_532" fill="none" stroke="gray" d="M1422.0000131875277,1677.5000019520521L1431.0000131875277,1677.5000019520521"></path></g><path id="node_outline53" fill="none" stroke="none" d="M1380.5000119656324,1666.5000019520521h35a5,5,0,0,1,5,5v12a5,5,0,0,1,-5,5h-35a5,5,0,0,1,-5,-5v-12a5,5,0,0,1,5,-5z"></path><g id="node_text53" fill="black"><text id="kity_text_283" text-rendering="inherit" font-size="12" dy=".8em" y="1669.7000020255646" x="1385.5000119656324">原型</text></g></g><g id="minder_node46"><g id="node_expander43" style="cursor: pointer;"><path id="kity_path_504" fill="white" stroke="gray" d="M1347.5000106543303,1316.4999911934137A6,6,0,1,1,1335.5000106543303,1316.4999911934137A6,6,0,1,1,1347.5000106543303,1316.4999911934137"></path><path id="kity_path_505" fill="none" stroke="gray" d="M1337.0000106543303,1316.4999911934137L1346.0000106543303,1316.4999911934137"></path></g><path id="node_outline44" fill="none" stroke="none" d="M1236.500007674098,1296.4999911934137h94a5,5,0,0,1,5,5v30a5,5,0,0,1,-5,5h-94a5,5,0,0,1,-5,-5v-30a5,5,0,0,1,5,-5z"></path><g id="node_text44" fill="black"><text id="kity_text_255" text-rendering="inherit" font-size="12" dy=".8em" y="1299.6999912669262" x="1241.500007674098">显示原型对象</text><text id="kity_text_256" text-rendering="inherit" font-size="12" dy=".8em" y="1317.6999912669262" x="1241.500007674098">函数对象特有的</text></g></g><g id="minder_node47"><g id="node_expander42" display="none" style="cursor: pointer;"><path id="kity_path_501" fill="white" stroke="gray" d="M1203.5000063627958,1316.4999911934137A6,6,0,1,1,1191.5000063627958,1316.4999911934137A6,6,0,1,1,1203.5000063627958,1316.4999911934137"></path><path id="kity_path_502" fill="none" stroke="gray"></path></g><path id="node_outline43" fill="none" stroke="none" d="M610.4999890178442,1287.4999911934137h576a5,5,0,0,1,5,5v48a5,5,0,0,1,-5,5h-576a5,5,0,0,1,-5,-5v-48a5,5,0,0,1,5,-5z"></path><g id="node_text43" fill="black"><text id="kity_text_251" text-rendering="inherit" font-size="12" dy=".8em" y="1290.6999912669262" x="615.4999890178442">我们所创建的每一个函数，解析器都会向函数中添加一个prototype属性 原型对象就相当于一个公共的区域</text><text id="kity_text_252" text-rendering="inherit" font-size="12" dy=".8em" y="1308.6999912669262" x="615.4999890178442">所有同一个函数的实例都可以访问到这个原型对象，可以将对象中共有的内容设置到原型对象中</text><text id="kity_text_253" text-rendering="inherit" font-size="12" dy=".8em" y="1326.6999912669262" x="615.4999890178442">显式原型对象prototype中会添加一个属性constructor指向函数自身</text></g></g><g id="minder_node48"><g id="node_expander45" style="cursor: pointer;"><path id="kity_path_510" fill="white" stroke="gray" d="M1347.5000106543303,1404.499993816018A6,6,0,1,1,1335.5000106543303,1404.499993816018A6,6,0,1,1,1347.5000106543303,1404.499993816018"></path><path id="kity_path_511" fill="none" stroke="gray" d="M1337.0000106543303,1404.499993816018L1346.0000106543303,1404.499993816018"></path></g><path id="node_outline46" fill="none" stroke="none" d="M1126.5000043958426,1375.499993816018h204a5,5,0,0,1,5,5v48a5,5,0,0,1,-5,5h-204a5,5,0,0,1,-5,-5v-48a5,5,0,0,1,5,-5z"></path><g id="node_text46" fill="black"><text id="kity_text_261" text-rendering="inherit" font-size="12" dy=".8em" y="1378.6999938895306" x="1131.5000043958426">隐式原型对象</text><text id="kity_text_262" text-rendering="inherit" font-size="12" dy=".8em" y="1396.6999938895306" x="1131.5000043958426">函数对象和普通对象都有</text><text id="kity_text_263" text-rendering="inherit" font-size="12" dy=".8em" y="1414.6999938895306" x="1131.5000043958426">函数对像本身是Function函数的实例</text></g></g><g id="minder_node49"><g id="node_expander44" display="none" style="cursor: pointer;"><path id="kity_path_507" fill="white" stroke="gray" d="M1093.5000030845404,1404.499993816018A6,6,0,1,1,1081.5000030845404,1404.499993816018A6,6,0,1,1,1093.5000030845404,1404.499993816018"></path><path id="kity_path_508" fill="none" stroke="gray"></path></g><path id="node_outline45" fill="none" stroke="none" d="M446.49998413026333,1384.499993816018h630a5,5,0,0,1,5,5v30a5,5,0,0,1,-5,5h-630a5,5,0,0,1,-5,-5v-30a5,5,0,0,1,5,-5z"></path><g id="node_text45" fill="black"><text id="kity_text_258" text-rendering="inherit" font-size="12" dy=".8em" y="1387.6999938895306" x="451.49998413026333">通过构造函数创建的对象会有一个__proto__指向它的构造函数的prototype</text><text id="kity_text_259" text-rendering="inherit" font-size="12" dy=".8em" y="1405.6999938895306" x="451.49998413026333">当我们调用一个对象的属性或者方法时，会沿着对象的__proto__一路寻找 一直找到Object.prototype.__proto__为止</text></g></g><g id="minder_node50"><g id="node_expander46" display="none" style="cursor: pointer;"><path id="kity_path_513" fill="white" stroke="gray" d="M1347.5000106543303,1474.4999959021807A6,6,0,1,1,1335.5000106543303,1474.4999959021807A6,6,0,1,1,1347.5000106543303,1474.4999959021807"></path><path id="kity_path_514" fill="none" stroke="gray"></path></g><path id="node_outline47" fill="none" stroke="none" d="M1119.5000041872263,1463.4999959021807h211a5,5,0,0,1,5,5v12a5,5,0,0,1,-5,5h-211a5,5,0,0,1,-5,-5v-12a5,5,0,0,1,5,-5z"></path><g id="node_text47" fill="black"><text id="kity_text_265" text-rendering="inherit" font-size="12" dy=".8em" y="1466.6999959756931" x="1124.5000041872263">Object.prototype.__proto__ == null</text></g></g><g id="minder_node51"><g id="node_expander47" display="none" style="cursor: pointer;"><path id="kity_path_516" fill="white" stroke="gray" d="M1347.5000106543303,1562.499998524785A6,6,0,1,1,1335.5000106543303,1562.499998524785A6,6,0,1,1,1347.5000106543303,1562.499998524785"></path><path id="kity_path_517" fill="none" stroke="gray"></path></g><path id="node_outline48" fill="none" stroke="none" d="M475.4999849945307,1515.499998524785h855a5,5,0,0,1,5,5v84a5,5,0,0,1,-5,5h-855a5,5,0,0,1,-5,-5v-84a5,5,0,0,1,5,-5z"></path><g id="node_text48" fill="black"><text id="kity_text_267" text-rendering="inherit" font-size="12" dy=".8em" y="1518.6999985982975" x="480.4999849945307">除Object外每一个函数的prototype.__proto__ == Object.prototype ，意味着函数prototype的初始化是prototype=new Object()</text><text id="kity_text_268" text-rendering="inherit" font-size="12" dy=".8em" y="1536.6999985982975" x="480.4999849945307">让人头大的是，包括Object与Function在内的每一个函数的__proto__ == Function.prototype，所以其实所有的函数对象包括Object都是Function构造出来的</text><text id="kity_text_269" text-rendering="inherit" font-size="12" dy=".8em" y="1554.6999985982975" x="480.4999849945307">应该是先有Function才有Object然后才有Function.prototype</text><text id="kity_text_270" text-rendering="inherit" font-size="12" dy=".8em" y="1572.6999985982975" x="480.4999849945307">Function.prototype = new Object()</text><text id="kity_text_271" text-rendering="inherit" font-size="12" dy=".8em" y="1590.6999985982975" x="480.4999849945307">Function是所有对象的真正起点</text></g></g><g id="minder_node52"><g id="node_expander48" display="none" style="cursor: pointer;"><path id="kity_path_519" fill="white" stroke="gray" d="M1347.5000106543303,1650.5000011473894A6,6,0,1,1,1335.5000106543303,1650.5000011473894A6,6,0,1,1,1347.5000106543303,1650.5000011473894"></path><path id="kity_path_520" fill="none" stroke="gray"></path></g><path id="node_outline49" fill="none" stroke="none" d="M1098.5000035613775,1639.5000011473894h232a5,5,0,0,1,5,5v12a5,5,0,0,1,-5,5h-232a5,5,0,0,1,-5,-5v-12a5,5,0,0,1,5,-5z"></path><g id="node_text49" fill="black"><text id="kity_text_273" text-rendering="inherit" font-size="12" dy=".8em" y="1642.7000012209019" x="1103.5000035613775">所有的函数对象都是Function new出来的</text></g></g><g id="minder_node53"><g id="node_expander49" display="none" style="cursor: pointer;"><path id="kity_path_522" fill="white" stroke="gray" d="M1347.5000106543303,1702.5000026971102A6,6,0,1,1,1335.5000106543303,1702.5000026971102A6,6,0,1,1,1347.5000106543303,1702.5000026971102"></path><path id="kity_path_523" fill="none" stroke="gray"></path></g><path id="node_outline50" fill="none" stroke="none" d="M1104.5000037401915,1691.5000026971102h226a5,5,0,0,1,5,5v12a5,5,0,0,1,-5,5h-226a5,5,0,0,1,-5,-5v-12a5,5,0,0,1,5,-5z"></path><g id="node_text50" fill="black"><text id="kity_text_275" text-rendering="inherit" font-size="12" dy=".8em" y="1694.7000027706226" x="1109.5000037401915">所有的普通对象对象都是函数new出来的</text></g></g><g id="minder_node54"><g id="node_expander50" display="none" style="cursor: pointer;"><path id="kity_path_525" fill="white" stroke="gray" d="M1347.5000106543303,1772.5000047832727A6,6,0,1,1,1335.5000106543303,1772.5000047832727A6,6,0,1,1,1347.5000106543303,1772.5000047832727"></path><path id="kity_path_526" fill="none" stroke="gray"></path></g><path id="node_outline51" fill="none" stroke="none" d="M992.5000004023314,1743.5000047832727h338a5,5,0,0,1,5,5v48a5,5,0,0,1,-5,5h-338a5,5,0,0,1,-5,-5v-48a5,5,0,0,1,5,-5z"></path><g id="node_text51" fill="black"><text id="kity_text_277" text-rendering="inherit" font-size="12" dy=".8em" y="1746.7000048567852" x="997.5000004023314">Object.create() 根据指定的原型创建新对象，原型可以是 null</text><text id="kity_text_278" text-rendering="inherit" font-size="12" dy=".8em" y="1764.7000048567852" x="997.5000004023314">Object.getPrototypeOf() 获得一个对象的原型</text><text id="kity_text_279" text-rendering="inherit" font-size="12" dy=".8em" y="1782.7000048567852" x="997.5000004023314">Object.setPrototypeOf()设置一个对象的原型</text></g></g><g id="minder_node55"><g id="node_expander51" display="none" style="cursor: pointer;"><path id="kity_path_528" fill="white" stroke="gray" d="M1347.5000106543303,1945.0000099241734A6,6,0,1,1,1335.5000106543303,1945.0000099241734A6,6,0,1,1,1347.5000106543303,1945.0000099241734"></path><path id="kity_path_529" fill="none" stroke="gray"></path></g><path id="node_outline52" fill="none" stroke="none" d="M1171.5000072270632,1831.5000129789114h159a5,5,0,0,1,5,5v217a5,5,0,0,1,-5,5h-159a5,5,0,0,1,-5,-5v-217a5,5,0,0,1,5,-5z"></path><g id="node_text52" fill="black"><text id="kity_text_281" text-rendering="inherit" font-size="12" dy=".8em" y="2039.7000130524239" x="1226.5000072270632">原型继承</text></g><image id="kity_image_313" xlink:href="https://oss-liuchengtu.hudunsoft.com/1d/1d14cd88ec185b822c48ae4b2337a14f.png" x="1176.5000072270632" y="1836.5000129789114" width="149" height="200"></image></g><g id="minder_node56"><g id="node_expander53" display="none" style="cursor: pointer;"><path id="kity_path_534" fill="white" stroke="gray" d="M1432.5000131875277,2117.500015065074A6,6,0,1,1,1420.5000131875277,2117.500015065074A6,6,0,1,1,1432.5000131875277,2117.500015065074"></path><path id="kity_path_535" fill="none" stroke="gray"></path></g><path id="node_outline54" fill="none" stroke="none" d="M1179.5000059753656,2088.500015065074h236a5,5,0,0,1,5,5v48a5,5,0,0,1,-5,5h-236a5,5,0,0,1,-5,-5v-48a5,5,0,0,1,5,-5z"></path><g id="node_text54" fill="black"><text id="kity_text_285" text-rendering="inherit" font-size="12" dy=".8em" y="2091.7000151385864" x="1184.5000059753656">class（类）</text><text id="kity_text_286" text-rendering="inherit" font-size="12" dy=".8em" y="2109.7000151385864" x="1184.5000059753656">ES6新特性，语法糖，底层仍然是原型</text><text id="kity_text_287" text-rendering="inherit" font-size="12" dy=".8em" y="2127.7000151385864" x="1184.5000059753656">用来取代new 跟 function 的怪异搭配语法</text></g></g><g id="minder_node57"><g id="node_expander54" display="none" style="cursor: pointer;"><path id="kity_path_537" fill="white" stroke="gray" d="M1432.5000131875277,2187.5000171512365A6,6,0,1,1,1420.5000131875277,2187.5000171512365A6,6,0,1,1,1432.5000131875277,2187.5000171512365"></path><path id="kity_path_538" fill="none" stroke="gray"></path></g><path id="node_outline55" fill="none" stroke="none" d="M1356.5000112503767,2176.5000171512365h59a5,5,0,0,1,5,5v12a5,5,0,0,1,-5,5h-59a5,5,0,0,1,-5,-5v-12a5,5,0,0,1,5,-5z"></path><g id="node_text55" fill="black"><text id="kity_text_289" text-rendering="inherit" font-size="12" dy=".8em" y="2179.700017224749" x="1361.5000112503767">对象分类</text></g></g><g id="minder_node58"><g id="node_expander62" style="cursor: pointer;"><path id="kity_path_561" fill="white" stroke="gray" d="M1541.5000164359808,2449.500024959445A6,6,0,1,1,1529.5000164359808,2449.500024959445A6,6,0,1,1,1541.5000164359808,2449.500024959445"></path><path id="kity_path_562" fill="none" stroke="gray" d="M1531.0000164359808,2449.500024959445L1540.0000164359808,2449.500024959445"></path></g><path id="node_outline63" fill="none" stroke="none" d="M1418.5000130981207,2438.500024959445h106a5,5,0,0,1,5,5v12a5,5,0,0,1,-5,5h-106a5,5,0,0,1,-5,-5v-12a5,5,0,0,1,5,-5z"></path><g id="node_text63" fill="black"><text id="kity_text_310" text-rendering="inherit" font-size="12" dy=".8em" y="2441.7000250329575" x="1423.5000130981207">执行过程（算法）</text></g></g><g id="minder_node59"><g id="node_expander60" style="cursor: pointer;"><path id="kity_path_555" fill="white" stroke="gray" d="M1385.5000117868185,2362.500022366643A6,6,0,1,1,1373.5000117868185,2362.500022366643A6,6,0,1,1,1385.5000117868185,2362.500022366643"></path><path id="kity_path_556" fill="none" stroke="gray" d="M1375.0000117868185,2362.500022366643L1384.0000117868185,2362.500022366643"></path></g><path id="node_outline61" fill="none" stroke="none" d="M1297.5000094920397,2351.500022366643h71a5,5,0,0,1,5,5v12a5,5,0,0,1,-5,5h-71a5,5,0,0,1,-5,-5v-12a5,5,0,0,1,5,-5z"></path><g id="node_text61" fill="black"><text id="kity_text_306" text-rendering="inherit" font-size="12" dy=".8em" y="2354.7000224401554" x="1302.5000094920397">装箱与拆箱</text></g></g><g id="minder_node60"><g id="node_expander56" display="none" style="cursor: pointer;"><path id="kity_path_543" fill="white" stroke="gray" d="M1264.5000081807375,2257.500019237399A6,6,0,1,1,1252.5000081807375,2257.500019237399A6,6,0,1,1,1264.5000081807375,2257.500019237399"></path><path id="kity_path_544" fill="none" stroke="gray"></path></g><path id="node_outline57" fill="none" stroke="none" d="M1009.5000009089708,2228.500019237399h238a5,5,0,0,1,5,5v48a5,5,0,0,1,-5,5h-238a5,5,0,0,1,-5,-5v-48a5,5,0,0,1,5,-5z"></path><g id="node_text57" fill="black"><text id="kity_text_293" text-rendering="inherit" font-size="12" dy=".8em" y="2231.7000193109116" x="1014.5000009089708">一个区分：</text><text id="kity_text_294" text-rendering="inherit" font-size="12" dy=".8em" y="2249.7000193109116" x="1014.5000009089708">3与new Number(3)是完全不同的</text><text id="kity_text_295" text-rendering="inherit" font-size="12" dy=".8em" y="2267.7000193109116" x="1014.5000009089708">前者是基本数据类型，后者是对象数据类型</text></g></g><g id="minder_node61"><g id="node_expander57" display="none" style="cursor: pointer;"><path id="kity_path_546" fill="white" stroke="gray" d="M1264.5000081807375,2354.5000221282244A6,6,0,1,1,1252.5000081807375,2354.5000221282244A6,6,0,1,1,1264.5000081807375,2354.5000221282244"></path><path id="kity_path_547" fill="none" stroke="gray"></path></g><path id="node_outline58" fill="none" stroke="none" d="M976.4999999254942,2316.5000221282244h271a5,5,0,0,1,5,5v66a5,5,0,0,1,-5,5h-271a5,5,0,0,1,-5,-5v-66a5,5,0,0,1,5,-5z"></path><g id="node_text58" fill="black"><text id="kity_text_297" text-rendering="inherit" font-size="12" dy=".8em" y="2319.700022201737" x="981.4999999254942">小提示：</text><text id="kity_text_298" text-rendering="inherit" font-size="12" dy=".8em" y="2337.700022201737" x="981.4999999254942">Number、String、Boolean三个构造器是两用的</text><text id="kity_text_299" text-rendering="inherit" font-size="12" dy=".8em" y="2355.700022201737" x="981.4999999254942">跟new搭配时，生成普通对象</text><text id="kity_text_300" text-rendering="inherit" font-size="12" dy=".8em" y="2373.700022201737" x="981.4999999254942">直接调用时，表示强制类型转换</text></g></g><g id="minder_node62"><g id="node_expander58" display="none" style="cursor: pointer;"><path id="kity_path_549" fill="white" stroke="gray" d="M1264.5000081807375,2433.500024482608A6,6,0,1,1,1252.5000081807375,2433.500024482608A6,6,0,1,1,1264.5000081807375,2433.500024482608"></path><path id="kity_path_550" fill="none" stroke="gray"></path></g><path id="node_outline59" fill="none" stroke="none" d="M686.4999912828207,2422.500024482608h561a5,5,0,0,1,5,5v12a5,5,0,0,1,-5,5h-561a5,5,0,0,1,-5,-5v-12a5,5,0,0,1,5,-5z"></path><g id="node_text59" fill="black"><text id="kity_text_302" text-rendering="inherit" font-size="12" dy=".8em" y="2425.7000245561203" x="691.4999912828207">js会根据基本数据类型生成一个临时对象，使得我们能够在基础类型上调用相应对象的方法，这就是装箱</text></g></g><g id="minder_node63"><g id="node_expander59" display="none" style="cursor: pointer;"><path id="kity_path_552" fill="white" stroke="gray" d="M1264.5000081807375,2485.5000260323286A6,6,0,1,1,1252.5000081807375,2485.5000260323286A6,6,0,1,1,1264.5000081807375,2485.5000260323286"></path><path id="kity_path_553" fill="none" stroke="gray"></path></g><path id="node_outline60" fill="none" stroke="none" d="M1071.5000027567148,2474.5000260323286h176a5,5,0,0,1,5,5v12a5,5,0,0,1,-5,5h-176a5,5,0,0,1,-5,-5v-12a5,5,0,0,1,5,-5z"></path><g id="node_text60" fill="black"><text id="kity_text_304" text-rendering="inherit" font-size="12" dy=".8em" y="2477.700026105841" x="1076.5000027567148">Object()可以显示调用装箱能力</text></g></g><g id="minder_node64"><g id="node_expander61" display="none" style="cursor: pointer;"><path id="kity_path_558" fill="white" stroke="gray" d="M1385.5000117868185,2537.5000275820494A6,6,0,1,1,1373.5000117868185,2537.5000275820494A6,6,0,1,1,1385.5000117868185,2537.5000275820494"></path><path id="kity_path_559" fill="none" stroke="gray"></path></g><path id="node_outline62" fill="none" stroke="none" d="M1309.5000098496675,2526.5000275820494h59a5,5,0,0,1,5,5v12a5,5,0,0,1,-5,5h-59a5,5,0,0,1,-5,-5v-12a5,5,0,0,1,5,-5z"></path><g id="node_text62" fill="black"><text id="kity_text_308" text-rendering="inherit" font-size="12" dy=".8em" y="2529.700027655562" x="1314.5000098496675">分支主题</text></g></g></g></g></svg>