<svg id="kity_svg_6" xmlns="http://www.w3.org/2000/svg" xmlns:xlink="http://www.w3.org/1999/xlink" version="1.1" width="1287" height="1009" style="background: rgb(251, 251, 251); visibility: visible;" viewBox="0 0 1287 1009"><defs id="kity_defs_7"><linearGradient id="kity_linearGradient_17" x1="0" y1="0" x2="0" y2="1"><stop id="kity_stop_18" offset="0" stop-color="rgb(255, 255, 255)"></stop><stop id="kity_stop_19" offset="1" stop-color="rgb(204, 204, 204)"></stop></linearGradient><marker id="kity_marker_2" orient="auto" refX="6" refY="0" viewBox="-7 -7 14 14" markerWidth="7" markerHeight="7" markerUnits="userSpaceOnUse"><path id="kity_path_3" fill="rgb(115, 161, 191)" stroke="none" d="M6,0A6,6,0,1,1,-6,0A6,6,0,1,1,6,0"></path></marker></defs><g id="kity_g_8"><g id="minder1" text-rendering="optimize-speed"><g id="minder_connect_group1"><path id="kity_path_294" fill="none" stroke="rgb(115, 161, 191)" stroke-width="1" d="M76.49999816715717,708.5000203102827A174,0,0,0,1,250.49999816715717,708.5000203102827"></path><path id="kity_path_556" fill="none" stroke="rgb(115, 161, 191)" stroke-width="1" d="M899.4999981671572,89.50002031028271C914.4999981671572,89.50002031028271,914.4999981671572,116.50002031028271,929.4999981671572,116.50002031028271L1101.4999981671572,116.50002031028271"></path><path id="kity_path_557" fill="none" stroke="rgb(115, 161, 191)" stroke-width="1" d="M672.4999981671572,80.50002031028271C687.4999981671572,80.50002031028271,687.4999981671572,89.50002031028271,702.4999981671572,89.50002031028271L899.4999981671572,89.50002031028271"></path><path id="kity_path_558" fill="none" stroke="rgb(115, 161, 191)" stroke-width="1" d="M542.4999981671572,482.5000203102827C557.4999981671572,482.5000203102827,557.4999981671572,80.50002031028271,572.4999981671572,80.50002031028271L672.4999981671572,80.50002031028271"></path><path id="kity_path_559" fill="none" stroke="rgb(115, 161, 191)" stroke-width="1" d="M875.4999981671572,186.5000203102827C890.4999981671572,186.5000203102827,890.4999981671572,186.5000203102827,905.4999981671572,186.5000203102827L1039.4999981671572,186.5000203102827"></path><path id="kity_path_560" fill="none" stroke="rgb(115, 161, 191)" stroke-width="1" d="M635.4999981671572,177.5000203102827C650.4999981671572,177.5000203102827,650.4999981671572,186.5000203102827,665.4999981671572,186.5000203102827L875.4999981671572,186.5000203102827"></path><path id="kity_path_561" fill="none" stroke="rgb(115, 161, 191)" stroke-width="1" d="M542.4999981671572,482.5000203102827C557.4999981671572,482.5000203102827,557.4999981671572,177.5000203102827,572.4999981671572,177.5000203102827L635.4999981671572,177.5000203102827"></path><path id="kity_path_562" fill="none" stroke="rgb(115, 161, 191)" stroke-width="1" d="M542.4999981671572,482.5000203102827C557.4999981671572,482.5000203102827,557.4999981671572,238.5000203102827,572.4999981671572,238.5000203102827L659.4999981671572,238.5000203102827"></path><path id="kity_path_563" fill="none" stroke="rgb(115, 161, 191)" stroke-width="1" d="M768.4999981671572,360.5000203102827C783.4999981671572,360.5000203102827,783.4999981671572,290.5000203102827,798.4999981671572,290.5000203102827L852.4999981671572,290.5000203102827"></path><path id="kity_path_564" fill="none" stroke="rgb(115, 161, 191)" stroke-width="1" d="M853.4999981671572,342.5000203102827C868.4999981671572,342.5000203102827,868.4999981671572,342.5000203102827,883.4999981671572,342.5000203102827L1118.4999981671572,342.5000203102827"></path><path id="kity_path_565" fill="none" stroke="rgb(115, 161, 191)" stroke-width="1" d="M768.4999981671572,360.5000203102827C783.4999981671572,360.5000203102827,783.4999981671572,342.5000203102827,798.4999981671572,342.5000203102827L853.4999981671572,342.5000203102827"></path><path id="kity_path_566" fill="none" stroke="rgb(115, 161, 191)" stroke-width="1" d="M865.4999981671572,430.5000203102827C880.4999981671572,430.5000203102827,880.4999981671572,466.5000203102827,895.4999981671572,466.5000203102827L979.4999981671572,466.5000203102827"></path><path id="kity_path_567" fill="none" stroke="rgb(115, 161, 191)" stroke-width="1" d="M768.4999981671572,360.5000203102827C783.4999981671572,360.5000203102827,783.4999981671572,430.5000203102827,798.4999981671572,430.5000203102827L865.4999981671572,430.5000203102827"></path><path id="kity_path_568" fill="none" stroke="rgb(115, 161, 191)" stroke-width="1" d="M647.4999981671572,448.5000203102827C662.4999981671572,448.5000203102827,662.4999981671572,360.5000203102827,677.4999981671572,360.5000203102827L768.4999981671572,360.5000203102827"></path><path id="kity_path_569" fill="none" stroke="rgb(115, 161, 191)" stroke-width="1" d="M647.4999981671572,448.5000203102827C662.4999981671572,448.5000203102827,662.4999981671572,536.5000203102827,677.4999981671572,536.5000203102827L1241.4999981671572,536.5000203102827"></path><path id="kity_path_570" fill="none" stroke="rgb(115, 161, 191)" stroke-width="1" d="M542.4999981671572,482.5000203102827C557.4999981671572,482.5000203102827,557.4999981671572,448.5000203102827,572.4999981671572,448.5000203102827L647.4999981671572,448.5000203102827"></path><path id="kity_path_571" fill="none" stroke="rgb(115, 161, 191)" stroke-width="1" d="M1151.4999981671572,615.5000203102827C1166.4999981671572,615.5000203102827,1166.4999981671572,589.5000203102827,1181.4999981671572,589.5000203102827L1267.4999981671572,589.5000203102827"></path><path id="kity_path_572" fill="none" stroke="rgb(115, 161, 191)" stroke-width="1" d="M1151.4999981671572,615.5000203102827C1166.4999981671572,615.5000203102827,1166.4999981671572,641.5000203102827,1181.4999981671572,641.5000203102827L1267.4999981671572,641.5000203102827"></path><path id="kity_path_573" fill="none" stroke="rgb(115, 161, 191)" stroke-width="1" d="M1030.4999981671572,680.5000203102827C1045.4999981671572,680.5000203102827,1045.4999981671572,615.5000203102827,1060.4999981671572,615.5000203102827L1151.4999981671572,615.5000203102827"></path><path id="kity_path_574" fill="none" stroke="rgb(115, 161, 191)" stroke-width="1" d="M1030.4999981671572,680.5000203102827C1045.4999981671572,680.5000203102827,1045.4999981671572,693.5000203102827,1060.4999981671572,693.5000203102827L1153.4999981671572,693.5000203102827"></path><path id="kity_path_575" fill="none" stroke="rgb(115, 161, 191)" stroke-width="1" d="M1030.4999981671572,680.5000203102827C1045.4999981671572,680.5000203102827,1045.4999981671572,745.5000203102827,1060.4999981671572,745.5000203102827L1153.4999981671572,745.5000203102827"></path><path id="kity_path_576" fill="none" stroke="rgb(115, 161, 191)" stroke-width="1" d="M921.4999981671572,680.5000203102827C936.4999981671572,680.5000203102827,936.4999981671572,680.5000203102827,951.4999981671572,680.5000203102827L1030.4999981671572,680.5000203102827"></path><path id="kity_path_577" fill="none" stroke="rgb(115, 161, 191)" stroke-width="1" d="M660.4999981671572,756.5000203102827C675.4999981671572,756.5000203102827,675.4999981671572,680.5000203102827,690.4999981671572,680.5000203102827L921.4999981671572,680.5000203102827"></path><path id="kity_path_578" fill="none" stroke="rgb(115, 161, 191)" stroke-width="1" d="M660.4999981671572,756.5000203102827C675.4999981671572,756.5000203102827,675.4999981671572,833.5000203102827,690.4999981671572,833.5000203102827L966.4999981671572,833.5000203102827"></path><path id="kity_path_579" fill="none" stroke="rgb(115, 161, 191)" stroke-width="1" d="M542.4999981671572,482.5000203102827C557.4999981671572,482.5000203102827,557.4999981671572,756.5000203102827,572.4999981671572,756.5000203102827L660.4999981671572,756.5000203102827"></path><path id="kity_path_580" fill="none" stroke="rgb(115, 161, 191)" stroke-width="1" d="M542.4999981671572,482.5000203102827C557.4999981671572,482.5000203102827,557.4999981671572,884.5000203102827,572.4999981671572,884.5000203102827L655.4999981671572,884.5000203102827"></path><path id="kity_path_581" fill="none" stroke="rgb(115, 161, 191)" stroke-width="1" d="M349.4999981671572,708.5000203102827C364.4999981671572,708.5000203102827,364.4999981671572,482.5000203102827,379.4999981671572,482.5000203102827L542.4999981671572,482.5000203102827"></path><path id="kity_path_582" fill="none" stroke="rgb(115, 161, 191)" stroke-width="1" d="M807.4999981671572,971.5000203102827C822.4999981671572,971.5000203102827,822.4999981671572,936.5000203102827,837.4999981671572,936.5000203102827L1095.4999981671572,936.5000203102827"></path><path id="kity_path_583" fill="none" stroke="rgb(115, 161, 191)" stroke-width="1" d="M807.4999981671572,971.5000203102827C822.4999981671572,971.5000203102827,822.4999981671572,988.5000203102827,837.4999981671572,988.5000203102827L988.4999981671572,988.5000203102827"></path><path id="kity_path_584" fill="none" stroke="rgb(115, 161, 191)" stroke-width="1" d="M554.4999981671572,962.5000203102827C569.4999981671572,962.5000203102827,569.4999981671572,971.5000203102827,584.4999981671572,971.5000203102827L807.4999981671572,971.5000203102827"></path><path id="kity_path_585" fill="none" stroke="rgb(115, 161, 191)" stroke-width="1" d="M349.4999981671572,708.5000203102827C364.4999981671572,708.5000203102827,364.4999981671572,962.5000203102827,379.4999981671572,962.5000203102827L554.4999981671572,962.5000203102827"></path></g><g id="minder_node1"><path id="node_outline1" fill="rgb(115, 161, 191)" stroke="rgb(115, 161, 191)" d="M25.499998167157173,688.5000203102827h102a5,5,0,0,1,5,5v30a5,5,0,0,1,-5,5h-102a5,5,0,0,1,-5,-5v-30a5,5,0,0,1,5,-5z" stroke-width="3"></path><g id="node_text1" fill="white"><text id="kity_text_22" text-rendering="inherit" font-size="16" dy=".8em" y="698.1000201433897" x="44.49999816715717">中心主题</text></g></g><g id="kity_g_14" display="none"><path id="kity_path_15" fill="none" stroke="none" d="M44.49999816715717,708.5000203102827h0v0h0z"></path><path id="kity_path_16" fill="none" stroke="none"></path></g><g id="minder_node33" opacity="1"><g id="node_expander62" style="cursor: pointer;"><path id="kity_path_554" fill="white" stroke="gray" d="M251.50000415742397,708.5000203102827A6,6,0,1,1,239.50000415742397,708.5000203102827A6,6,0,1,1,251.50000415742397,708.5000203102827"></path><path id="kity_path_555" fill="none" stroke="gray" d="M241.00000415742397,708.5000203102827L250.00000415742397,708.5000203102827"></path></g><path id="node_outline63" fill="rgb(238, 243, 246)" stroke="rgb(115, 161, 191)" d="M255.50000496208668,695.5000203102827h91a3,3,0,0,1,3,3v20a3,3,0,0,1,-3,3h-91a3,3,0,0,1,-3,-3v-20a3,3,0,0,1,3,-3z" stroke-width="1"></path><g id="node_text63" fill="black"><text id="kity_text_431" text-rendering="inherit" font-size="14" dy=".8em" y="699.4000203430653" x="272.5000049620867">数据类型</text></g></g><g id="kity_g_12" display="none"><path id="kity_path_13" fill="none" stroke="rgb(66, 94, 112)" d="M25.499998167157173,688.5000203102827h102a5,5,0,0,1,5,5v30a5,5,0,0,1,-5,5h-102a5,5,0,0,1,-5,-5v-30a5,5,0,0,1,5,-5z" stroke-width="5"></path></g><g id="minder_node37"><g id="node_expander32" style="cursor: pointer;" display="none"><path id="kity_path_464" fill="white" stroke="gray" d="M939.5000246614218,66.50000117719173A6,6,0,1,1,927.5000246614218,66.50000117719173A6,6,0,1,1,939.5000246614218,66.50000117719173"></path><path id="kity_path_465" fill="none" stroke="gray"></path></g><path id="node_outline33" fill="none" stroke="none" d="M944.5000251382589,19.500001177191734h152a5,5,0,0,1,5,5v84a5,5,0,0,1,-5,5h-152a5,5,0,0,1,-5,-5v-84a5,5,0,0,1,5,-5z"></path><g id="node_text33" fill="black"><text id="kity_text_356" text-rendering="inherit" font-size="12" dy=".8em" y="22.700001250704133" x="949.5000251382589">可以重新赋值</text><text id="kity_text_357" text-rendering="inherit" font-size="12" dy=".8em" y="40.70000125070413" x="949.5000251382589">function test() {</text><text id="kity_text_358" text-rendering="inherit" font-size="12" dy=".8em" y="58.70000125070413" x="949.5000251382589">&#xa0; undefined = 1;</text><text id="kity_text_359" text-rendering="inherit" font-size="12" dy=".8em" y="76.70000125070413" x="949.5000251382589">&#xa0; console.log(undefined);</text><text id="kity_text_360" text-rendering="inherit" font-size="12" dy=".8em" y="94.70000125070413" x="949.5000251382589">}</text></g></g><g id="minder_node36"><g id="node_expander33" style="cursor: pointer;"><path id="kity_path_467" fill="white" stroke="gray" d="M712.5000178962946,66.50000117719173A6,6,0,1,1,700.5000178962946,66.50000117719173A6,6,0,1,1,712.5000178962946,66.50000117719173"></path><path id="kity_path_468" fill="none" stroke="gray" d="M702.0000178962946,66.50000117719173L711.0000178962946,66.50000117719173"></path></g><path id="node_outline34" fill="none" stroke="none" d="M717.5000183731318,46.500001177191734h177a5,5,0,0,1,5,5v30a5,5,0,0,1,-5,5h-177a5,5,0,0,1,-5,-5v-30a5,5,0,0,1,5,-5z"></path><g id="node_text34" fill="black"><text id="kity_text_362" text-rendering="inherit" font-size="12" dy=".8em" y="49.70000125070413" x="722.5000183731318">undefined是变量、不是关键字</text><text id="kity_text_363" text-rendering="inherit" font-size="12" dy=".8em" y="67.70000125070413" x="722.5000183731318">表示从来没有给变量赋值</text></g></g><g id="minder_node35"><g id="node_expander34" style="cursor: pointer;"><path id="kity_path_470" fill="white" stroke="gray" d="M582.5000140219927,66.50000117719173A6,6,0,1,1,570.5000140219927,66.50000117719173A6,6,0,1,1,582.5000140219927,66.50000117719173"></path><path id="kity_path_471" fill="none" stroke="gray" d="M572.0000140219927,66.50000117719173L581.0000140219927,66.50000117719173"></path></g><path id="node_outline35" fill="none" stroke="none" d="M587.5000144988298,55.500001177191734h80a5,5,0,0,1,5,5v12a5,5,0,0,1,-5,5h-80a5,5,0,0,1,-5,-5v-12a5,5,0,0,1,5,-5z"></path><g id="node_text35" fill="black"><text id="kity_text_365" text-rendering="inherit" font-size="12" dy=".8em" y="58.70000125070413" x="592.5000144988298">1.Undefined</text></g></g><g id="minder_node40"><g id="node_expander35" style="cursor: pointer;" display="none"><path id="kity_path_473" fill="white" stroke="gray" d="M915.500023946166,163.500004068017A6,6,0,1,1,903.500023946166,163.500004068017A6,6,0,1,1,915.500023946166,163.500004068017"></path><path id="kity_path_474" fill="none" stroke="gray"></path></g><path id="node_outline36" fill="none" stroke="none" d="M920.5000244230032,143.500004068017h114a5,5,0,0,1,5,5v30a5,5,0,0,1,-5,5h-114a5,5,0,0,1,-5,-5v-30a5,5,0,0,1,5,-5z"></path><g id="node_text36" fill="black"><text id="kity_text_367" text-rendering="inherit" font-size="12" dy=".8em" y="146.7000041415294" x="925.5000244230032">不可以重新赋值</text><text id="kity_text_368" text-rendering="inherit" font-size="12" dy=".8em" y="164.7000041415294" x="925.5000244230032">null = 1会直接抛错</text></g></g><g id="minder_node39"><g id="node_expander36" style="cursor: pointer;"><path id="kity_path_476" fill="white" stroke="gray" d="M675.5000167936087,163.500004068017A6,6,0,1,1,663.5000167936087,163.500004068017A6,6,0,1,1,675.5000167936087,163.500004068017"></path><path id="kity_path_477" fill="none" stroke="gray" d="M665.0000167936087,163.500004068017L674.0000167936087,163.500004068017"></path></g><path id="node_outline37" fill="none" stroke="none" d="M680.5000172704458,143.500004068017h190a5,5,0,0,1,5,5v30a5,5,0,0,1,-5,5h-190a5,5,0,0,1,-5,-5v-30a5,5,0,0,1,5,-5z"></path><g id="node_text37" fill="black"><text id="kity_text_370" text-rendering="inherit" font-size="12" dy=".8em" y="146.7000041415294" x="685.5000172704458">null是关键字</text><text id="kity_text_371" text-rendering="inherit" font-size="12" dy=".8em" y="164.7000041415294" x="685.5000172704458">表示给变量赋值了，变量的值为空</text></g></g><g id="minder_node38"><g id="node_expander37" style="cursor: pointer;"><path id="kity_path_479" fill="white" stroke="gray" d="M582.5000140219927,163.500004068017A6,6,0,1,1,570.5000140219927,163.500004068017A6,6,0,1,1,582.5000140219927,163.500004068017"></path><path id="kity_path_480" fill="none" stroke="gray" d="M572.0000140219927,163.500004068017L581.0000140219927,163.500004068017"></path></g><path id="node_outline38" fill="none" stroke="none" d="M587.5000144988298,152.500004068017h43a5,5,0,0,1,5,5v12a5,5,0,0,1,-5,5h-43a5,5,0,0,1,-5,-5v-12a5,5,0,0,1,5,-5z"></path><g id="node_text38" fill="black"><text id="kity_text_373" text-rendering="inherit" font-size="12" dy=".8em" y="155.7000041415294" x="592.5000144988298">2.Null</text></g></g><g id="minder_node41"><g id="node_expander38" style="cursor: pointer;" display="none"><path id="kity_path_482" fill="white" stroke="gray" d="M582.5000140219927,224.50000588595867A6,6,0,1,1,570.5000140219927,224.50000588595867A6,6,0,1,1,582.5000140219927,224.50000588595867"></path><path id="kity_path_483" fill="none" stroke="gray"></path></g><path id="node_outline39" fill="none" stroke="none" d="M587.5000144988298,213.50000588595867h67a5,5,0,0,1,5,5v12a5,5,0,0,1,-5,5h-67a5,5,0,0,1,-5,-5v-12a5,5,0,0,1,5,-5z"></path><g id="node_text39" fill="black"><text id="kity_text_375" text-rendering="inherit" font-size="12" dy=".8em" y="216.70000595947107" x="592.5000144988298">3.Boolean</text></g></g><g id="minder_node44"><g id="node_expander39" style="cursor: pointer;" display="none"><path id="kity_path_485" fill="white" stroke="gray" d="M808.5000207573175,276.50000743567944A6,6,0,1,1,796.5000207573175,276.50000743567944A6,6,0,1,1,808.5000207573175,276.50000743567944"></path><path id="kity_path_486" fill="none" stroke="gray"></path></g><path id="node_outline40" fill="none" stroke="none" d="M813.5000212341547,265.50000743567944h34a5,5,0,0,1,5,5v12a5,5,0,0,1,-5,5h-34a5,5,0,0,1,-5,-5v-12a5,5,0,0,1,5,-5z"></path><g id="node_text40" fill="black"><text id="kity_text_377" text-rendering="inherit" font-size="12" dy=".8em" y="268.70000750919183" x="818.5000212341547">字符</text></g></g><g id="minder_node46"><g id="node_expander40" style="cursor: pointer;" display="none"><path id="kity_path_488" fill="white" stroke="gray" d="M893.500023290515,328.5000089854002A6,6,0,1,1,881.500023290515,328.5000089854002A6,6,0,1,1,893.500023290515,328.5000089854002"></path><path id="kity_path_489" fill="none" stroke="gray"></path></g><path id="node_outline41" fill="none" stroke="none" d="M898.5000237673521,317.5000089854002h215a5,5,0,0,1,5,5v12a5,5,0,0,1,-5,5h-215a5,5,0,0,1,-5,-5v-12a5,5,0,0,1,5,-5z"></path><g id="node_text41" fill="black"><text id="kity_text_379" text-rendering="inherit" font-size="12" dy=".8em" y="320.7000090589126" x="903.5000237673521">每一个字符在内存中对应的二进制表示</text></g></g><g id="minder_node45"><g id="node_expander41" style="cursor: pointer;"><path id="kity_path_491" fill="white" stroke="gray" d="M808.5000207573175,328.5000089854002A6,6,0,1,1,796.5000207573175,328.5000089854002A6,6,0,1,1,808.5000207573175,328.5000089854002"></path><path id="kity_path_492" fill="none" stroke="gray" d="M798.0000207573175,328.5000089854002L807.0000207573175,328.5000089854002"></path></g><path id="node_outline42" fill="none" stroke="none" d="M813.5000212341547,317.5000089854002h35a5,5,0,0,1,5,5v12a5,5,0,0,1,-5,5h-35a5,5,0,0,1,-5,-5v-12a5,5,0,0,1,5,-5z"></path><g id="node_text42" fill="black"><text id="kity_text_381" text-rendering="inherit" font-size="12" dy=".8em" y="320.7000090589126" x="818.5000212341547">码点</text></g></g><g id="minder_node48"><g id="node_expander42" style="cursor: pointer;" display="none"><path id="kity_path_494" fill="white" stroke="gray" d="M905.5000236481428,416.50001160800457A6,6,0,1,1,893.5000236481428,416.50001160800457A6,6,0,1,1,905.5000236481428,416.50001160800457"></path><path id="kity_path_495" fill="none" stroke="gray"></path></g><path id="node_outline43" fill="none" stroke="none" d="M910.50002412498,369.50001160800457h64a5,5,0,0,1,5,5v84a5,5,0,0,1,-5,5h-64a5,5,0,0,1,-5,-5v-84a5,5,0,0,1,5,-5z"></path><g id="node_text43" fill="black"><text id="kity_text_383" text-rendering="inherit" font-size="12" dy=".8em" y="372.70001168151697" x="915.50002412498">ASCLL</text><text id="kity_text_384" text-rendering="inherit" font-size="12" dy=".8em" y="390.70001168151697" x="915.50002412498">Unicode</text><text id="kity_text_385" text-rendering="inherit" font-size="12" dy=".8em" y="408.70001168151697" x="915.50002412498">GB&#xa0;</text><text id="kity_text_386" text-rendering="inherit" font-size="12" dy=".8em" y="426.70001168151697" x="915.50002412498">ISO-8895</text><text id="kity_text_387" text-rendering="inherit" font-size="12" dy=".8em" y="444.70001168151697" x="915.50002412498">BIG5</text></g></g><g id="minder_node47"><g id="node_expander43" style="cursor: pointer;"><path id="kity_path_497" fill="white" stroke="gray" d="M808.5000207573175,416.50001160800457A6,6,0,1,1,796.5000207573175,416.50001160800457A6,6,0,1,1,808.5000207573175,416.50001160800457"></path><path id="kity_path_498" fill="none" stroke="gray" d="M798.0000207573175,416.50001160800457L807.0000207573175,416.50001160800457"></path></g><path id="node_outline44" fill="none" stroke="none" d="M813.5000212341547,405.50001160800457h47a5,5,0,0,1,5,5v12a5,5,0,0,1,-5,5h-47a5,5,0,0,1,-5,-5v-12a5,5,0,0,1,5,-5z"></path><g id="node_text44" fill="black"><text id="kity_text_389" text-rendering="inherit" font-size="12" dy=".8em" y="408.70001168151697" x="818.5000212341547">字符集</text></g></g><g id="minder_node43"><g id="node_expander44" style="cursor: pointer;"><path id="kity_path_500" fill="white" stroke="gray" d="M687.5000171512365,346.500009521842A6,6,0,1,1,675.5000171512365,346.500009521842A6,6,0,1,1,687.5000171512365,346.500009521842"></path><path id="kity_path_501" fill="none" stroke="gray" d="M677.0000171512365,346.500009521842L686.0000171512365,346.500009521842"></path></g><path id="node_outline45" fill="none" stroke="none" d="M692.5000176280737,335.500009521842h71a5,5,0,0,1,5,5v12a5,5,0,0,1,-5,5h-71a5,5,0,0,1,-5,-5v-12a5,5,0,0,1,5,-5z"></path><g id="node_text45" fill="black"><text id="kity_text_391" text-rendering="inherit" font-size="12" dy=".8em" y="338.7000095953544" x="697.5000176280737">字符的表示</text></g></g><g id="minder_node49"><g id="node_expander45" style="cursor: pointer;" display="none"><path id="kity_path_503" fill="white" stroke="gray" d="M687.5000171512365,513.5000144988298A6,6,0,1,1,675.5000171512365,513.5000144988298A6,6,0,1,1,687.5000171512365,513.5000144988298"></path><path id="kity_path_504" fill="none" stroke="gray"></path></g><path id="node_outline46" fill="none" stroke="none" d="M692.5000176280737,493.50001449882984h544a5,5,0,0,1,5,5v30a5,5,0,0,1,-5,5h-544a5,5,0,0,1,-5,-5v-30a5,5,0,0,1,5,-5z"></path><g id="node_text46" fill="black"><text id="kity_text_393" text-rendering="inherit" font-size="12" dy=".8em" y="496.70001457234224" x="697.5000176280737">字符串所占字节数</text><text id="kity_text_394" text-rendering="inherit" font-size="12" dy=".8em" y="514.7000145723423" x="697.5000176280737">http://www.alloyteam.com/2013/12/js-calculate-the-number-of-bytes-occupied-by-a-string/</text></g></g><g id="minder_node42"><g id="node_expander46" style="cursor: pointer;"><path id="kity_path_506" fill="white" stroke="gray" d="M582.5000140219927,434.5000121444464A6,6,0,1,1,570.5000140219927,434.5000121444464A6,6,0,1,1,582.5000140219927,434.5000121444464"></path><path id="kity_path_507" fill="none" stroke="gray" d="M572.0000140219927,434.5000121444464L581.0000140219927,434.5000121444464"></path></g><path id="node_outline47" fill="none" stroke="none" d="M587.5000144988298,423.5000121444464h55a5,5,0,0,1,5,5v12a5,5,0,0,1,-5,5h-55a5,5,0,0,1,-5,-5v-12a5,5,0,0,1,5,-5z"></path><g id="node_text47" fill="black"><text id="kity_text_396" text-rendering="inherit" font-size="12" dy=".8em" y="426.7000122179588" x="592.5000144988298">4.String</text></g></g><g id="minder_node54"><g id="node_expander47" style="cursor: pointer;" display="none"><path id="kity_path_509" fill="white" stroke="gray" d="M1191.500032171607,575.5000163465738A6,6,0,1,1,1179.500032171607,575.5000163465738A6,6,0,1,1,1191.500032171607,575.5000163465738"></path><path id="kity_path_510" fill="none" stroke="gray"></path></g><path id="node_outline48" fill="none" stroke="none" d="M1196.5000326484442,564.5000163465738h66a5,5,0,0,1,5,5v12a5,5,0,0,1,-5,5h-66a5,5,0,0,1,-5,-5v-12a5,5,0,0,1,5,-5z"></path><g id="node_text48" fill="black"><text id="kity_text_398" text-rendering="inherit" font-size="12" dy=".8em" y="567.7000164200863" x="1201.5000326484442">0表示正数</text></g></g><g id="minder_node55"><g id="node_expander48" style="cursor: pointer;" display="none"><path id="kity_path_512" fill="white" stroke="gray" d="M1191.500032171607,627.5000178962946A6,6,0,1,1,1179.500032171607,627.5000178962946A6,6,0,1,1,1191.500032171607,627.5000178962946"></path><path id="kity_path_513" fill="none" stroke="gray"></path></g><path id="node_outline49" fill="none" stroke="none" d="M1196.5000326484442,616.5000178962946h66a5,5,0,0,1,5,5v12a5,5,0,0,1,-5,5h-66a5,5,0,0,1,-5,-5v-12a5,5,0,0,1,5,-5z"></path><g id="node_text49" fill="black"><text id="kity_text_400" text-rendering="inherit" font-size="12" dy=".8em" y="619.700017969807" x="1201.5000326484442">1表示负数</text></g></g><g id="minder_node53"><g id="node_expander49" style="cursor: pointer;"><path id="kity_path_515" fill="white" stroke="gray" d="M1070.500028565526,601.5000171214342A6,6,0,1,1,1058.500028565526,601.5000171214342A6,6,0,1,1,1070.500028565526,601.5000171214342"></path><path id="kity_path_516" fill="none" stroke="gray" d="M1060.000028565526,601.5000171214342L1069.000028565526,601.5000171214342"></path></g><path id="node_outline50" fill="none" stroke="none" d="M1075.5000290423632,590.5000171214342h71a5,5,0,0,1,5,5v12a5,5,0,0,1,-5,5h-71a5,5,0,0,1,-5,-5v-12a5,5,0,0,1,5,-5z"></path><g id="node_text50" fill="black"><text id="kity_text_402" text-rendering="inherit" font-size="12" dy=".8em" y="593.7000171949467" x="1080.5000290423632">一个符号位</text></g></g><g id="minder_node56"><g id="node_expander50" style="cursor: pointer;" display="none"><path id="kity_path_518" fill="white" stroke="gray" d="M1070.500028565526,679.5000194460154A6,6,0,1,1,1058.500028565526,679.5000194460154A6,6,0,1,1,1070.500028565526,679.5000194460154"></path><path id="kity_path_519" fill="none" stroke="gray"></path></g><path id="node_outline51" fill="none" stroke="none" d="M1075.5000290423632,668.5000194460154h73a5,5,0,0,1,5,5v12a5,5,0,0,1,-5,5h-73a5,5,0,0,1,-5,-5v-12a5,5,0,0,1,5,-5z"></path><g id="node_text51" fill="black"><text id="kity_text_404" text-rendering="inherit" font-size="12" dy=".8em" y="671.7000195195278" x="1080.5000290423632">11个指数位</text></g></g><g id="minder_node57"><g id="node_expander51" style="cursor: pointer;" display="none"><path id="kity_path_521" fill="white" stroke="gray" d="M1070.500028565526,731.5000209957361A6,6,0,1,1,1058.500028565526,731.5000209957361A6,6,0,1,1,1070.500028565526,731.5000209957361"></path><path id="kity_path_522" fill="none" stroke="gray"></path></g><path id="node_outline52" fill="none" stroke="none" d="M1075.5000290423632,720.5000209957361h73a5,5,0,0,1,5,5v12a5,5,0,0,1,-5,5h-73a5,5,0,0,1,-5,-5v-12a5,5,0,0,1,5,-5z"></path><g id="node_text52" fill="black"><text id="kity_text_406" text-rendering="inherit" font-size="12" dy=".8em" y="723.7000210692486" x="1080.5000290423632">52个小数位</text></g></g><g id="minder_node52"><g id="node_expander52" style="cursor: pointer;"><path id="kity_path_524" fill="white" stroke="gray" d="M961.5000253170729,666.5000190585852A6,6,0,1,1,949.5000253170729,666.5000190585852A6,6,0,1,1,961.5000253170729,666.5000190585852"></path><path id="kity_path_525" fill="none" stroke="gray" d="M951.0000253170729,666.5000190585852L960.0000253170729,666.5000190585852"></path></g><path id="node_outline53" fill="none" stroke="none" d="M966.50002579391,655.5000190585852h59a5,5,0,0,1,5,5v12a5,5,0,0,1,-5,5h-59a5,5,0,0,1,-5,-5v-12a5,5,0,0,1,5,-5z"></path><g id="node_text53" fill="black"><text id="kity_text_408" text-rendering="inherit" font-size="12" dy=".8em" y="658.7000191320976" x="971.50002579391">内存表示</text></g></g><g id="minder_node51"><g id="node_expander53" style="cursor: pointer;"><path id="kity_path_527" fill="white" stroke="gray" d="M700.5000175386667,666.5000190585852A6,6,0,1,1,688.5000175386667,666.5000190585852A6,6,0,1,1,700.5000175386667,666.5000190585852"></path><path id="kity_path_528" fill="none" stroke="gray" d="M690.0000175386667,666.5000190585852L699.0000175386667,666.5000190585852"></path></g><path id="node_outline54" fill="none" stroke="none" d="M705.5000180155039,655.5000190585852h211a5,5,0,0,1,5,5v12a5,5,0,0,1,-5,5h-211a5,5,0,0,1,-5,-5v-12a5,5,0,0,1,5,-5z"></path><g id="node_text54" fill="black"><text id="kity_text_410" text-rendering="inherit" font-size="12" dy=".8em" y="658.7000191320976" x="710.5000180155039">遵循IEEE 754 Double Float 规范设计</text></g></g><g id="minder_node58"><g id="node_expander54" style="cursor: pointer;" display="none"><path id="kity_path_530" fill="white" stroke="gray" d="M700.5000175386667,801.5000230818987A6,6,0,1,1,688.5000175386667,801.5000230818987A6,6,0,1,1,700.5000175386667,801.5000230818987"></path><path id="kity_path_531" fill="none" stroke="gray"></path></g><path id="node_outline55" fill="none" stroke="none" d="M705.5000180155039,772.5000230818987h256a5,5,0,0,1,5,5v48a5,5,0,0,1,-5,5h-256a5,5,0,0,1,-5,-5v-48a5,5,0,0,1,5,-5z"></path><g id="node_text55" fill="black"><text id="kity_text_412" text-rendering="inherit" font-size="12" dy=".8em" y="775.7000231554111" x="710.5000180155039">参考资料</text><text id="kity_text_413" text-rendering="inherit" font-size="12" dy=".8em" y="793.7000231554111" x="710.5000180155039">https://www.jianshu.com/p/8ee02e9bb57d</text><text id="kity_text_414" text-rendering="inherit" font-size="12" dy=".8em" y="811.7000231554111" x="710.5000180155039">https://www.html.cn/archives/7340</text></g></g><g id="minder_node50"><g id="node_expander55" style="cursor: pointer;"><path id="kity_path_533" fill="white" stroke="gray" d="M582.5000140219927,742.5000213235617A6,6,0,1,1,570.5000140219927,742.5000213235617A6,6,0,1,1,582.5000140219927,742.5000213235617"></path><path id="kity_path_534" fill="none" stroke="gray" d="M572.0000140219927,742.5000213235617L581.0000140219927,742.5000213235617"></path></g><path id="node_outline56" fill="none" stroke="none" d="M587.5000144988298,731.5000213235617h68a5,5,0,0,1,5,5v12a5,5,0,0,1,-5,5h-68a5,5,0,0,1,-5,-5v-12a5,5,0,0,1,5,-5z"></path><g id="node_text56" fill="black"><text id="kity_text_416" text-rendering="inherit" font-size="12" dy=".8em" y="734.7000213970741" x="592.5000144988298">5.Number</text></g></g><g id="minder_node59"><g id="node_expander56" style="cursor: pointer;" display="none"><path id="kity_path_536" fill="white" stroke="gray" d="M582.5000140219927,870.5000251382589A6,6,0,1,1,570.5000140219927,870.5000251382589A6,6,0,1,1,582.5000140219927,870.5000251382589"></path><path id="kity_path_537" fill="none" stroke="gray"></path></g><path id="node_outline57" fill="none" stroke="none" d="M587.5000144988298,859.5000251382589h63a5,5,0,0,1,5,5v12a5,5,0,0,1,-5,5h-63a5,5,0,0,1,-5,-5v-12a5,5,0,0,1,5,-5z"></path><g id="node_text57" fill="black"><text id="kity_text_418" text-rendering="inherit" font-size="12" dy=".8em" y="862.7000252117714" x="592.5000144988298">6.Symbol</text></g></g><g id="minder_node34"><g id="node_expander57" style="cursor: pointer;"><path id="kity_path_539" fill="white" stroke="gray" d="M389.50000827014446,468.50001315772533A6,6,0,1,1,377.50000827014446,468.50001315772533A6,6,0,1,1,389.50000827014446,468.50001315772533"></path><path id="kity_path_540" fill="none" stroke="gray" d="M379.00000827014446,468.50001315772533L388.00000827014446,468.50001315772533"></path></g><path id="node_outline58" fill="none" stroke="none" d="M394.5000087469816,457.50001315772533h143a5,5,0,0,1,5,5v12a5,5,0,0,1,-5,5h-143a5,5,0,0,1,-5,-5v-12a5,5,0,0,1,5,-5z"></path><g id="node_text58" fill="black"><text id="kity_text_420" text-rendering="inherit" font-size="12" dy=".8em" y="460.70001323123773" x="399.5000087469816">基本数据类型（值类型）</text></g></g><g id="minder_node62"><g id="node_expander58" style="cursor: pointer;" display="none"><path id="kity_path_542" fill="white" stroke="gray" d="M847.5000219196081,922.5000266879797A6,6,0,1,1,835.5000219196081,922.5000266879797A6,6,0,1,1,847.5000219196081,922.5000266879797"></path><path id="kity_path_543" fill="none" stroke="gray"></path></g><path id="node_outline59" fill="none" stroke="none" d="M852.5000223964453,911.5000266879797h238a5,5,0,0,1,5,5v12a5,5,0,0,1,-5,5h-238a5,5,0,0,1,-5,-5v-12a5,5,0,0,1,5,-5z"></path><g id="node_text59" fill="black"><text id="kity_text_422" text-rendering="inherit" font-size="12" dy=".8em" y="914.7000267614922" x="857.5000223964453">可以new的函数对象（构造函数、构造器）</text></g></g><g id="minder_node63"><g id="node_expander59" style="cursor: pointer;" display="none"><path id="kity_path_545" fill="white" stroke="gray" d="M847.5000219196081,974.5000282377005A6,6,0,1,1,835.5000219196081,974.5000282377005A6,6,0,1,1,847.5000219196081,974.5000282377005"></path><path id="kity_path_546" fill="none" stroke="gray"></path></g><path id="node_outline60" fill="none" stroke="none" d="M852.5000223964453,963.5000282377005h131a5,5,0,0,1,5,5v12a5,5,0,0,1,-5,5h-131a5,5,0,0,1,-5,-5v-12a5,5,0,0,1,5,-5z"></path><g id="node_text60" fill="black"><text id="kity_text_424" text-rendering="inherit" font-size="12" dy=".8em" y="966.7000283112129" x="857.5000223964453">不可以new的普通对象</text></g></g><g id="minder_node61"><g id="node_expander60" style="cursor: pointer;"><path id="kity_path_548" fill="white" stroke="gray" d="M594.5000143796206,948.5000274628401A6,6,0,1,1,582.5000143796206,948.5000274628401A6,6,0,1,1,594.5000143796206,948.5000274628401"></path><path id="kity_path_549" fill="none" stroke="gray" d="M584.0000143796206,948.5000274628401L593.0000143796206,948.5000274628401"></path></g><path id="node_outline61" fill="none" stroke="none" d="M599.5000148564577,928.5000274628401h203a5,5,0,0,1,5,5v30a5,5,0,0,1,-5,5h-203a5,5,0,0,1,-5,-5v-30a5,5,0,0,1,5,-5z"></path><g id="node_text61" fill="black"><text id="kity_text_426" text-rendering="inherit" font-size="12" dy=".8em" y="931.7000275363525" x="604.5000148564577">7.Object</text><text id="kity_text_427" text-rendering="inherit" font-size="12" dy=".8em" y="949.7000275363525" x="604.5000148564577">在JS中，对象数据类型基本分为两类</text></g></g><g id="minder_node60"><g id="node_expander61" style="cursor: pointer;"><path id="kity_path_551" fill="white" stroke="gray" d="M389.50000827014446,948.5000274628401A6,6,0,1,1,377.50000827014446,948.5000274628401A6,6,0,1,1,389.50000827014446,948.5000274628401"></path><path id="kity_path_552" fill="none" stroke="gray" d="M379.00000827014446,948.5000274628401L388.00000827014446,948.5000274628401"></path></g><path id="node_outline62" fill="none" stroke="none" d="M394.5000087469816,937.5000274628401h155a5,5,0,0,1,5,5v12a5,5,0,0,1,-5,5h-155a5,5,0,0,1,-5,-5v-12a5,5,0,0,1,5,-5z"></path><g id="node_text62" fill="black"><text id="kity_text_429" text-rendering="inherit" font-size="12" dy=".8em" y="940.7000275363525" x="399.5000087469816">对象数据类型（引用类型）</text></g></g></g></g></svg>