<svg id="kity_svg_6" xmlns="http://www.w3.org/2000/svg" xmlns:xlink="http://www.w3.org/1999/xlink" version="1.1" width="1658" height="2683" style="background: rgb(251, 251, 251); visibility: visible;" viewBox="0 0 1658 2683"><defs id="kity_defs_7"><linearGradient id="kity_linearGradient_17" x1="0" y1="0" x2="0" y2="1"><stop id="kity_stop_18" offset="0" stop-color="rgb(255, 255, 255)"></stop><stop id="kity_stop_19" offset="1" stop-color="rgb(204, 204, 204)"></stop></linearGradient><marker id="kity_marker_2" orient="auto" refX="6" refY="0" viewBox="-7 -7 14 14" markerWidth="7" markerHeight="7" markerUnits="userSpaceOnUse"><path id="kity_path_3" fill="rgb(115, 161, 191)" stroke="none" d="M6,0A6,6,0,1,1,-6,0A6,6,0,1,1,6,0"></path></marker></defs><g id="kity_g_8"><g id="minder1" text-rendering="optimize-speed"><g id="minder_connect_group1"><path id="kity_path_587" fill="none" stroke="rgb(115, 161, 191)" stroke-width="1" d="M76.50000412762165,1243.5000200420618A174,0,0,0,1,250.50000412762165,1243.5000200420618"></path><path id="kity_path_589" fill="none" stroke="rgb(115, 161, 191)" stroke-width="1" d="M377.50000412762165,1243.5000200420618C392.50000412762165,1243.5000200420618,392.50000412762165,255.5000200420618,407.50000412762165,255.5000200420618L498.50000412762165,255.5000200420618"></path><path id="kity_path_591" fill="none" stroke="rgb(115, 161, 191)" stroke-width="1" d="M498.50000412762165,255.5000200420618C513.5000041276217,255.5000200420618,513.5000041276217,44.500020042061806,528.5000041276217,44.500020042061806L618.5000041276217,44.500020042061806"></path><path id="kity_path_593" fill="none" stroke="rgb(115, 161, 191)" stroke-width="1" d="M618.5000041276217,44.500020042061806C633.5000041276217,44.500020042061806,633.5000041276217,44.500020042061806,648.5000041276217,44.500020042061806L822.5000041276217,44.500020042061806"></path><path id="kity_path_595" fill="none" stroke="rgb(115, 161, 191)" stroke-width="1" d="M498.50000412762165,255.5000200420618C513.5000041276217,255.5000200420618,513.5000041276217,466.5000200420618,528.5000041276217,466.5000200420618L607.5000041276217,466.5000200420618"></path><path id="kity_path_597" fill="none" stroke="rgb(115, 161, 191)" stroke-width="1" d="M607.5000041276217,466.5000200420618C622.5000041276217,466.5000200420618,622.5000041276217,174.5000200420618,637.5000041276217,174.5000200420618L740.5000041276217,174.5000200420618"></path><path id="kity_path_599" fill="none" stroke="rgb(115, 161, 191)" stroke-width="1" d="M740.5000041276217,174.5000200420618C755.5000041276217,174.5000200420618,755.5000041276217,96.5000200420618,770.5000041276217,96.5000200420618L883.5000041276217,96.5000200420618"></path><path id="kity_path_601" fill="none" stroke="rgb(115, 161, 191)" stroke-width="1" d="M740.5000041276217,174.5000200420618C755.5000041276217,174.5000200420618,755.5000041276217,148.5000200420618,770.5000041276217,148.5000200420618L907.5000041276217,148.5000200420618"></path><path id="kity_path_603" fill="none" stroke="rgb(115, 161, 191)" stroke-width="1" d="M740.5000041276217,174.5000200420618C755.5000041276217,174.5000200420618,755.5000041276217,200.5000200420618,770.5000041276217,200.5000200420618L907.5000041276217,200.5000200420618"></path><path id="kity_path_605" fill="none" stroke="rgb(115, 161, 191)" stroke-width="1" d="M740.5000041276217,174.5000200420618C755.5000041276217,174.5000200420618,755.5000041276217,252.5000200420618,770.5000041276217,252.5000200420618L871.5000041276217,252.5000200420618"></path><path id="kity_path_607" fill="none" stroke="rgb(115, 161, 191)" stroke-width="1" d="M607.5000041276217,466.5000200420618C622.5000041276217,466.5000200420618,622.5000041276217,416.5000200420618,637.5000041276217,416.5000200420618L692.5000041276217,416.5000200420618"></path><path id="kity_path_609" fill="none" stroke="rgb(115, 161, 191)" stroke-width="1" d="M692.5000041276217,416.5000200420618C707.5000041276217,416.5000200420618,707.5000041276217,341.5000200420618,722.5000041276217,341.5000200420618L825.5000041276217,341.5000200420618"></path><path id="kity_path_611" fill="none" stroke="rgb(115, 161, 191)" stroke-width="1" d="M825.5000041276217,341.5000200420618C840.5000041276217,341.5000200420618,840.5000041276217,377.5000200420618,855.5000041276217,377.5000200420618L920.5000041276217,377.5000200420618"></path><path id="kity_path_613" fill="none" stroke="rgb(115, 161, 191)" stroke-width="1" d="M692.5000041276217,416.5000200420618C707.5000041276217,416.5000200420618,707.5000041276217,492.5000200420618,722.5000041276217,492.5000200420618L801.5000041276217,492.5000200420618"></path><path id="kity_path_615" fill="none" stroke="rgb(115, 161, 191)" stroke-width="1" d="M801.5000041276217,492.5000200420618C816.5000041276217,492.5000200420618,816.5000041276217,555.5000200420618,831.5000041276217,555.5000200420618L919.5000041276217,555.5000200420618"></path><path id="kity_path_617" fill="none" stroke="rgb(115, 161, 191)" stroke-width="1" d="M607.5000041276217,466.5000200420618C622.5000041276217,466.5000200420618,622.5000041276217,758.5000200420618,637.5000041276217,758.5000200420618L716.5000041276217,758.5000200420618"></path><path id="kity_path_619" fill="none" stroke="rgb(115, 161, 191)" stroke-width="1" d="M716.5000041276217,758.5000200420618C731.5000041276217,758.5000200420618,731.5000041276217,669.5000200420618,746.5000041276217,669.5000200420618L836.5000041276217,669.5000200420618"></path><path id="kity_path_621" fill="none" stroke="rgb(115, 161, 191)" stroke-width="1" d="M836.5000041276217,669.5000200420618C851.5000041276217,669.5000200420618,851.5000041276217,732.5000200420618,866.5000041276217,732.5000200420618L937.5000041276217,732.5000200420618"></path><path id="kity_path_623" fill="none" stroke="rgb(115, 161, 191)" stroke-width="1" d="M716.5000041276217,758.5000200420618C731.5000041276217,758.5000200420618,731.5000041276217,847.5000200420618,746.5000041276217,847.5000200420618L837.5000041276217,847.5000200420618"></path><path id="kity_path_625" fill="none" stroke="rgb(115, 161, 191)" stroke-width="1" d="M837.5000041276217,847.5000200420618C852.5000041276217,847.5000200420618,852.5000041276217,910.5000200420618,867.5000041276217,910.5000200420618L955.5000041276217,910.5000200420618"></path><path id="kity_path_627" fill="none" stroke="rgb(115, 161, 191)" stroke-width="1" d="M377.50000412762165,1243.5000200420618C392.50000412762165,1243.5000200420618,392.50000412762165,1301.5000200420618,407.50000412762165,1301.5000200420618L485.50000412762165,1301.5000200420618"></path><path id="kity_path_629" fill="none" stroke="rgb(115, 161, 191)" stroke-width="1" d="M485.50000412762165,1301.5000200420618C500.50000412762165,1301.5000200420618,500.50000412762165,1162.5000200420618,515.5000041276217,1162.5000200420618L570.5000041276217,1162.5000200420618"></path><path id="kity_path_631" fill="none" stroke="rgb(115, 161, 191)" stroke-width="1" d="M570.5000041276217,1162.5000200420618C585.5000041276217,1162.5000200420618,585.5000041276217,962.5000200420618,600.5000041276217,962.5000200420618L684.5000041276217,962.5000200420618"></path><path id="kity_path_633" fill="none" stroke="rgb(115, 161, 191)" stroke-width="1" d="M570.5000041276217,1162.5000200420618C585.5000041276217,1162.5000200420618,585.5000041276217,1058.5000200420618,600.5000041276217,1058.5000200420618L834.5000041276217,1058.5000200420618"></path><path id="kity_path_635" fill="none" stroke="rgb(115, 161, 191)" stroke-width="1" d="M834.5000041276217,1058.5000200420618C849.5000041276217,1058.5000200420618,849.5000041276217,1032.5000200420618,864.5000041276217,1032.5000200420618L943.5000041276217,1032.5000200420618"></path><path id="kity_path_637" fill="none" stroke="rgb(115, 161, 191)" stroke-width="1" d="M834.5000041276217,1058.5000200420618C849.5000041276217,1058.5000200420618,849.5000041276217,1102.5000200420618,864.5000041276217,1102.5000200420618L943.5000041276217,1102.5000200420618"></path><path id="kity_path_639" fill="none" stroke="rgb(115, 161, 191)" stroke-width="1" d="M570.5000041276217,1162.5000200420618C585.5000041276217,1162.5000200420618,585.5000041276217,1154.5000200420618,600.5000041276217,1154.5000200420618L786.5000041276217,1154.5000200420618"></path><path id="kity_path_641" fill="none" stroke="rgb(115, 161, 191)" stroke-width="1" d="M570.5000041276217,1162.5000200420618C585.5000041276217,1162.5000200420618,585.5000041276217,1206.5000200420618,600.5000041276217,1206.5000200420618L670.5000041276217,1206.5000200420618"></path><path id="kity_path_643" fill="none" stroke="rgb(115, 161, 191)" stroke-width="1" d="M570.5000041276217,1162.5000200420618C585.5000041276217,1162.5000200420618,585.5000041276217,1258.5000200420618,600.5000041276217,1258.5000200420618L691.5000041276217,1258.5000200420618"></path><path id="kity_path_645" fill="none" stroke="rgb(115, 161, 191)" stroke-width="1" d="M570.5000041276217,1162.5000200420618C585.5000041276217,1162.5000200420618,585.5000041276217,1310.5000200420618,600.5000041276217,1310.5000200420618L708.5000041276217,1310.5000200420618"></path><path id="kity_path_647" fill="none" stroke="rgb(115, 161, 191)" stroke-width="1" d="M570.5000041276217,1162.5000200420618C585.5000041276217,1162.5000200420618,585.5000041276217,1362.5000200420618,600.5000041276217,1362.5000200420618L712.5000041276217,1362.5000200420618"></path><path id="kity_path_649" fill="none" stroke="rgb(115, 161, 191)" stroke-width="1" d="M485.50000412762165,1301.5000200420618C500.50000412762165,1301.5000200420618,500.50000412762165,1440.5000200420618,515.5000041276217,1440.5000200420618L570.5000041276217,1440.5000200420618"></path><path id="kity_path_651" fill="none" stroke="rgb(115, 161, 191)" stroke-width="1" d="M570.5000041276217,1440.5000200420618C585.5000041276217,1440.5000200420618,585.5000041276217,1440.5000200420618,600.5000041276217,1440.5000200420618L679.5000041276217,1440.5000200420618"></path><path id="kity_path_653" fill="none" stroke="rgb(115, 161, 191)" stroke-width="1" d="M679.5000041276217,1440.5000200420618C694.5000041276217,1440.5000200420618,694.5000041276217,1414.5000200420618,709.5000041276217,1414.5000200420618L1460.5000041276217,1414.5000200420618"></path><path id="kity_path_655" fill="none" stroke="rgb(115, 161, 191)" stroke-width="1" d="M679.5000041276217,1440.5000200420618C694.5000041276217,1440.5000200420618,694.5000041276217,1466.5000200420618,709.5000041276217,1466.5000200420618L1638.5000041276217,1466.5000200420618"></path><path id="kity_path_657" fill="none" stroke="rgb(115, 161, 191)" stroke-width="1" d="M377.50000412762165,1243.5000200420618C392.50000412762165,1243.5000200420618,392.50000412762165,1609.5000200420618,407.50000412762165,1609.5000200420618L522.5000041276217,1609.5000200420618"></path><path id="kity_path_659" fill="none" stroke="rgb(115, 161, 191)" stroke-width="1" d="M522.5000041276217,1609.5000200420618C537.5000041276217,1609.5000200420618,537.5000041276217,1518.5000200420618,552.5000041276217,1518.5000200420618L643.5000041276217,1518.5000200420618"></path><path id="kity_path_661" fill="none" stroke="rgb(115, 161, 191)" stroke-width="1" d="M522.5000041276217,1609.5000200420618C537.5000041276217,1609.5000200420618,537.5000041276217,1700.5000200420618,552.5000041276217,1700.5000200420618L643.5000041276217,1700.5000200420618"></path><path id="kity_path_663" fill="none" stroke="rgb(115, 161, 191)" stroke-width="1" d="M643.5000041276217,1700.5000200420618C658.5000041276217,1700.5000200420618,658.5000041276217,1622.5000200420618,673.5000041276217,1622.5000200420618L728.5000041276217,1622.5000200420618"></path><path id="kity_path_665" fill="none" stroke="rgb(115, 161, 191)" stroke-width="1" d="M728.5000041276217,1622.5000200420618C743.5000041276217,1622.5000200420618,743.5000041276217,1570.5000200420618,758.5000041276217,1570.5000200420618L938.5000041276217,1570.5000200420618"></path><path id="kity_path_667" fill="none" stroke="rgb(115, 161, 191)" stroke-width="1" d="M728.5000041276217,1622.5000200420618C743.5000041276217,1622.5000200420618,743.5000041276217,1622.5000200420618,758.5000041276217,1622.5000200420618L873.5000041276217,1622.5000200420618"></path><path id="kity_path_669" fill="none" stroke="rgb(115, 161, 191)" stroke-width="1" d="M728.5000041276217,1622.5000200420618C743.5000041276217,1622.5000200420618,743.5000041276217,1674.5000200420618,758.5000041276217,1674.5000200420618L836.5000041276217,1674.5000200420618"></path><path id="kity_path_671" fill="none" stroke="rgb(115, 161, 191)" stroke-width="1" d="M643.5000041276217,1700.5000200420618C658.5000041276217,1700.5000200420618,658.5000041276217,1778.5000200420618,673.5000041276217,1778.5000200420618L728.5000041276217,1778.5000200420618"></path><path id="kity_path_673" fill="none" stroke="rgb(115, 161, 191)" stroke-width="1" d="M728.5000041276217,1778.5000200420618C743.5000041276217,1778.5000200420618,743.5000041276217,1726.5000200420618,758.5000041276217,1726.5000200420618L885.5000041276217,1726.5000200420618"></path><path id="kity_path_675" fill="none" stroke="rgb(115, 161, 191)" stroke-width="1" d="M728.5000041276217,1778.5000200420618C743.5000041276217,1778.5000200420618,743.5000041276217,1778.5000200420618,758.5000041276217,1778.5000200420618L849.5000041276217,1778.5000200420618"></path><path id="kity_path_677" fill="none" stroke="rgb(115, 161, 191)" stroke-width="1" d="M728.5000041276217,1778.5000200420618C743.5000041276217,1778.5000200420618,743.5000041276217,1830.5000200420618,758.5000041276217,1830.5000200420618L861.5000041276217,1830.5000200420618"></path><path id="kity_path_679" fill="none" stroke="rgb(115, 161, 191)" stroke-width="1" d="M377.50000412762165,1243.5000200420618C392.50000412762165,1243.5000200420618,392.50000412762165,2259.500020042062,407.50000412762165,2259.500020042062L581.5000041276217,2259.500020042062"></path><path id="kity_path_681" fill="none" stroke="rgb(115, 161, 191)" stroke-width="1" d="M581.5000041276217,2259.500020042062C596.5000041276217,2259.500020042062,596.5000041276217,1908.5000200420618,611.5000041276217,1908.5000200420618L673.5000041276217,1908.5000200420618"></path><path id="kity_path_683" fill="none" stroke="rgb(115, 161, 191)" stroke-width="1" d="M673.5000041276217,1908.5000200420618C688.5000041276217,1908.5000200420618,688.5000041276217,1882.5000200420618,703.5000041276217,1882.5000200420618L786.5000041276217,1882.5000200420618"></path><path id="kity_path_685" fill="none" stroke="rgb(115, 161, 191)" stroke-width="1" d="M673.5000041276217,1908.5000200420618C688.5000041276217,1908.5000200420618,688.5000041276217,1934.5000200420618,703.5000041276217,1934.5000200420618L768.5000041276217,1934.5000200420618"></path><path id="kity_path_687" fill="none" stroke="rgb(115, 161, 191)" stroke-width="1" d="M581.5000041276217,2259.500020042062C596.5000041276217,2259.500020042062,596.5000041276217,2038.5000200420618,611.5000041276217,2038.5000200420618L702.5000041276217,2038.5000200420618"></path><path id="kity_path_689" fill="none" stroke="rgb(115, 161, 191)" stroke-width="1" d="M702.5000041276217,2038.5000200420618C717.5000041276217,2038.5000200420618,717.5000041276217,1986.5000200420618,732.5000041276217,1986.5000200420618L794.5000041276217,1986.5000200420618"></path><path id="kity_path_691" fill="none" stroke="rgb(115, 161, 191)" stroke-width="1" d="M702.5000041276217,2038.5000200420618C717.5000041276217,2038.5000200420618,717.5000041276217,2038.5000200420618,732.5000041276217,2038.5000200420618L815.5000041276217,2038.5000200420618"></path><path id="kity_path_693" fill="none" stroke="rgb(115, 161, 191)" stroke-width="1" d="M702.5000041276217,2038.5000200420618C717.5000041276217,2038.5000200420618,717.5000041276217,2090.500020042062,732.5000041276217,2090.500020042062L826.5000041276217,2090.500020042062"></path><path id="kity_path_695" fill="none" stroke="rgb(115, 161, 191)" stroke-width="1" d="M581.5000041276217,2259.500020042062C596.5000041276217,2259.500020042062,596.5000041276217,2194.500020042062,611.5000041276217,2194.500020042062L700.5000041276217,2194.500020042062"></path><path id="kity_path_697" fill="none" stroke="rgb(115, 161, 191)" stroke-width="1" d="M700.5000041276217,2194.500020042062C715.5000041276217,2194.500020042062,715.5000041276217,2142.500020042062,730.5000041276217,2142.500020042062L821.5000041276217,2142.500020042062"></path><path id="kity_path_699" fill="none" stroke="rgb(115, 161, 191)" stroke-width="1" d="M700.5000041276217,2194.500020042062C715.5000041276217,2194.500020042062,715.5000041276217,2194.500020042062,730.5000041276217,2194.500020042062L810.5000041276217,2194.500020042062"></path><path id="kity_path_701" fill="none" stroke="rgb(115, 161, 191)" stroke-width="1" d="M700.5000041276217,2194.500020042062C715.5000041276217,2194.500020042062,715.5000041276217,2246.500020042062,730.5000041276217,2246.500020042062L824.5000041276217,2246.500020042062"></path><path id="kity_path_703" fill="none" stroke="rgb(115, 161, 191)" stroke-width="1" d="M581.5000041276217,2259.500020042062C596.5000041276217,2259.500020042062,596.5000041276217,2402.500020042062,611.5000041276217,2402.500020042062L694.5000041276217,2402.500020042062"></path><path id="kity_path_705" fill="none" stroke="rgb(115, 161, 191)" stroke-width="1" d="M694.5000041276217,2402.500020042062C709.5000041276217,2402.500020042062,709.5000041276217,2298.500020042062,724.5000041276217,2298.500020042062L804.5000041276217,2298.500020042062"></path><path id="kity_path_707" fill="none" stroke="rgb(115, 161, 191)" stroke-width="1" d="M694.5000041276217,2402.500020042062C709.5000041276217,2402.500020042062,709.5000041276217,2350.500020042062,724.5000041276217,2350.500020042062L783.5000041276217,2350.500020042062"></path><path id="kity_path_709" fill="none" stroke="rgb(115, 161, 191)" stroke-width="1" d="M694.5000041276217,2402.500020042062C709.5000041276217,2402.500020042062,709.5000041276217,2402.500020042062,724.5000041276217,2402.500020042062L798.5000041276217,2402.500020042062"></path><path id="kity_path_711" fill="none" stroke="rgb(115, 161, 191)" stroke-width="1" d="M694.5000041276217,2402.500020042062C709.5000041276217,2402.500020042062,709.5000041276217,2454.500020042062,724.5000041276217,2454.500020042062L821.5000041276217,2454.500020042062"></path><path id="kity_path_713" fill="none" stroke="rgb(115, 161, 191)" stroke-width="1" d="M694.5000041276217,2402.500020042062C709.5000041276217,2402.500020042062,709.5000041276217,2506.500020042062,724.5000041276217,2506.500020042062L771.5000041276217,2506.500020042062"></path><path id="kity_path_715" fill="none" stroke="rgb(115, 161, 191)" stroke-width="1" d="M581.5000041276217,2259.500020042062C596.5000041276217,2259.500020042062,596.5000041276217,2610.500020042062,611.5000041276217,2610.500020042062L691.5000041276217,2610.500020042062"></path><path id="kity_path_717" fill="none" stroke="rgb(115, 161, 191)" stroke-width="1" d="M691.5000041276217,2610.500020042062C706.5000041276217,2610.500020042062,706.5000041276217,2558.500020042062,721.5000041276217,2558.500020042062L795.5000041276217,2558.500020042062"></path><path id="kity_path_719" fill="none" stroke="rgb(115, 161, 191)" stroke-width="1" d="M691.5000041276217,2610.500020042062C706.5000041276217,2610.500020042062,706.5000041276217,2610.500020042062,721.5000041276217,2610.500020042062L799.5000041276217,2610.500020042062"></path><path id="kity_path_721" fill="none" stroke="rgb(115, 161, 191)" stroke-width="1" d="M691.5000041276217,2610.500020042062C706.5000041276217,2610.500020042062,706.5000041276217,2662.500020042062,721.5000041276217,2662.500020042062L790.5000041276217,2662.500020042062"></path></g><g id="minder_node1"><path id="node_outline1" fill="rgb(115, 161, 191)" stroke="rgb(115, 161, 191)" d="M25.50000412762165,1223.5000200420618h102a5,5,0,0,1,5,5v30a5,5,0,0,1,-5,5h-102a5,5,0,0,1,-5,-5v-30a5,5,0,0,1,5,-5z" stroke-width="3"></path><g id="node_text1" fill="white"><text id="kity_text_22" text-rendering="inherit" font-size="16" dy=".8em" y="1233.1000198751688" x="44.50000412762165">中心主题</text></g></g><g id="kity_g_14" display="none"><path id="kity_path_15" fill="none" stroke="none" d="M44.50000412762165,1243.5000200420618h0v0h0z"></path><path id="kity_path_16" fill="none" stroke="none"></path></g><g id="kity_g_12" display="none"><path id="kity_path_13" fill="none" stroke="rgb(66, 94, 112)" d="M25.50000412762165,1223.5000200420618h102a5,5,0,0,1,5,5v30a5,5,0,0,1,-5,5h-102a5,5,0,0,1,-5,-5v-30a5,5,0,0,1,5,-5z" stroke-width="5"></path></g><g id="minder_node64"><g id="node_expander63" style="cursor: pointer;"><path id="kity_path_726" fill="white" stroke="gray" d="M251.50001011788845,1243.5000200420618A6,6,0,1,1,239.50001011788845,1243.5000200420618A6,6,0,1,1,251.50001011788845,1243.5000200420618"></path><path id="kity_path_727" fill="none" stroke="gray" d="M241.00001011788845,1243.5000200420618L250.00001011788845,1243.5000200420618"></path></g><path id="node_outline64" fill="rgb(238, 243, 246)" stroke="rgb(115, 161, 191)" d="M255.50001092255116,1230.5000200420618h119a3,3,0,0,1,3,3v20a3,3,0,0,1,-3,3h-119a3,3,0,0,1,-3,-3v-20a3,3,0,0,1,3,-3z" stroke-width="1"></path><g id="node_text64" fill="black"><text id="kity_text_723" text-rendering="inherit" font-size="14" dy=".8em" y="1234.4000200748444" x="272.50001092255116">编程语言通识</text></g></g><g id="minder_node65"><g id="node_expander82" style="cursor: pointer;"><path id="kity_path_1011" fill="white" stroke="gray" d="M417.50001506507397,241.49999018013477A6,6,0,1,1,405.50001506507397,241.49999018013477A6,6,0,1,1,417.50001506507397,241.49999018013477"></path><path id="kity_path_1012" fill="none" stroke="gray" d="M407.00001506507397,241.49999018013477L416.00001506507397,241.49999018013477"></path></g><path id="node_outline83" fill="none" stroke="none" d="M422.5000155419111,230.49999018013477h71a5,5,0,0,1,5,5v12a5,5,0,0,1,-5,5h-71a5,5,0,0,1,-5,-5v-12a5,5,0,0,1,5,-5z" stroke-width="3"></path><g id="node_text83" fill="black"><text id="kity_text_790" text-rendering="inherit" font-size="12" dy=".8em" y="233.69999025364717" x="427.5000155419111">按语法分类</text></g></g><g id="minder_node66"><g id="node_expander65" style="cursor: pointer;"><path id="kity_path_960" fill="white" stroke="gray" d="M538.500018671155,30.49998389184475A6,6,0,1,1,526.500018671155,30.49998389184475A6,6,0,1,1,538.500018671155,30.49998389184475"></path><path id="kity_path_961" fill="none" stroke="gray" d="M528.000018671155,30.49998389184475L537.000018671155,30.49998389184475"></path></g><path id="node_outline66" fill="none" stroke="none" d="M543.5000191479921,19.49998389184475h70a5,5,0,0,1,5,5v12a5,5,0,0,1,-5,5h-70a5,5,0,0,1,-5,-5v-12a5,5,0,0,1,5,-5z"></path><g id="node_text66" fill="black"><text id="kity_text_731" text-rendering="inherit" font-size="12" dy=".8em" y="22.69998396535715" x="548.5000191479921">非形式语言</text></g></g><g id="minder_node67"><g id="node_expander64" style="cursor: pointer;" display="none"><path id="kity_path_957" fill="white" stroke="gray" d="M658.5000222474337,30.49998389184475A6,6,0,1,1,646.5000222474337,30.49998389184475A6,6,0,1,1,658.5000222474337,30.49998389184475"></path><path id="kity_path_958" fill="none" stroke="gray"></path></g><path id="node_outline65" fill="none" stroke="none" d="M663.5000227242708,19.49998389184475h154a5,5,0,0,1,5,5v12a5,5,0,0,1,-5,5h-154a5,5,0,0,1,-5,-5v-12a5,5,0,0,1,5,-5z"></path><g id="node_text65" fill="black"><text id="kity_text_729" text-rendering="inherit" font-size="12" dy=".8em" y="22.69998396535715" x="668.5000227242708">中文、英文、法语、德语等</text></g></g><g id="minder_node68"><g id="node_expander81" style="cursor: pointer;"><path id="kity_path_1008" fill="white" stroke="gray" d="M538.500018671155,452.4999964684248A6,6,0,1,1,526.500018671155,452.4999964684248A6,6,0,1,1,538.500018671155,452.4999964684248"></path><path id="kity_path_1009" fill="none" stroke="gray" d="M528.000018671155,452.4999964684248L537.000018671155,452.4999964684248"></path></g><path id="node_outline82" fill="none" stroke="none" d="M543.5000191479921,441.4999964684248h59a5,5,0,0,1,5,5v12a5,5,0,0,1,-5,5h-59a5,5,0,0,1,-5,-5v-12a5,5,0,0,1,5,-5z"></path><g id="node_text82" fill="black"><text id="kity_text_788" text-rendering="inherit" font-size="12" dy=".8em" y="444.6999965419372" x="548.5000191479921">形式语言</text></g></g><g id="minder_node69"><g id="node_expander70" style="cursor: pointer;"><path id="kity_path_975" fill="white" stroke="gray" d="M647.5000219196081,160.49998776614666A6,6,0,1,1,635.5000219196081,160.49998776614666A6,6,0,1,1,647.5000219196081,160.49998776614666"></path><path id="kity_path_976" fill="none" stroke="gray" d="M637.0000219196081,160.49998776614666L646.0000219196081,160.49998776614666"></path></g><path id="node_outline71" fill="none" stroke="none" d="M652.5000223964453,149.49998776614666h83a5,5,0,0,1,5,5v12a5,5,0,0,1,-5,5h-83a5,5,0,0,1,-5,-5v-12a5,5,0,0,1,5,-5z"></path><g id="node_text71" fill="black"><text id="kity_text_741" text-rendering="inherit" font-size="12" dy=".8em" y="152.69998783965906" x="657.5000223964453">乔姆斯基谱系</text></g></g><g id="minder_node70"><g id="node_expander66" style="cursor: pointer;" display="none"><path id="kity_path_963" fill="white" stroke="gray" d="M780.500025883317,82.49998544156551A6,6,0,1,1,768.500025883317,82.49998544156551A6,6,0,1,1,780.500025883317,82.49998544156551"></path><path id="kity_path_964" fill="none" stroke="gray"></path></g><path id="node_outline67" fill="none" stroke="none" d="M785.5000263601542,71.49998544156551h93a5,5,0,0,1,5,5v12a5,5,0,0,1,-5,5h-93a5,5,0,0,1,-5,-5v-12a5,5,0,0,1,5,-5z"></path><g id="node_text67" fill="black"><text id="kity_text_733" text-rendering="inherit" font-size="12" dy=".8em" y="74.69998551507791" x="790.5000263601542">0型 无限制文法</text></g></g><g id="minder_node71"><g id="node_expander67" style="cursor: pointer;" display="none"><path id="kity_path_966" fill="white" stroke="gray" d="M780.500025883317,134.49998699128628A6,6,0,1,1,768.500025883317,134.49998699128628A6,6,0,1,1,780.500025883317,134.49998699128628"></path><path id="kity_path_967" fill="none" stroke="gray"></path></g><path id="node_outline68" fill="none" stroke="none" d="M785.5000263601542,123.49998699128628h117a5,5,0,0,1,5,5v12a5,5,0,0,1,-5,5h-117a5,5,0,0,1,-5,-5v-12a5,5,0,0,1,5,-5z"></path><g id="node_text68" fill="black"><text id="kity_text_735" text-rendering="inherit" font-size="12" dy=".8em" y="126.69998706479868" x="790.5000263601542">1型 上下文相关文法</text></g></g><g id="minder_node72"><g id="node_expander68" style="cursor: pointer;" display="none"><path id="kity_path_969" fill="white" stroke="gray" d="M780.500025883317,186.49998854100704A6,6,0,1,1,768.500025883317,186.49998854100704A6,6,0,1,1,780.500025883317,186.49998854100704"></path><path id="kity_path_970" fill="none" stroke="gray"></path></g><path id="node_outline69" fill="none" stroke="none" d="M785.5000263601542,175.49998854100704h117a5,5,0,0,1,5,5v12a5,5,0,0,1,-5,5h-117a5,5,0,0,1,-5,-5v-12a5,5,0,0,1,5,-5z"></path><g id="node_text69" fill="black"><text id="kity_text_737" text-rendering="inherit" font-size="12" dy=".8em" y="178.69998861451944" x="790.5000263601542">2型 上下文无关文法</text></g></g><g id="minder_node73"><g id="node_expander69" style="cursor: pointer;" display="none"><path id="kity_path_972" fill="white" stroke="gray" d="M780.500025883317,238.4999900907278A6,6,0,1,1,768.500025883317,238.4999900907278A6,6,0,1,1,780.500025883317,238.4999900907278"></path><path id="kity_path_973" fill="none" stroke="gray"></path></g><path id="node_outline70" fill="none" stroke="none" d="M785.5000263601542,227.4999900907278h81a5,5,0,0,1,5,5v12a5,5,0,0,1,-5,5h-81a5,5,0,0,1,-5,-5v-12a5,5,0,0,1,5,-5z"></path><g id="node_text70" fill="black"><text id="kity_text_739" text-rendering="inherit" font-size="12" dy=".8em" y="230.6999901642402" x="790.5000263601542">3型 正则文法</text></g></g><g id="minder_node74"><g id="node_expander75" style="cursor: pointer;"><path id="kity_path_990" fill="white" stroke="gray" d="M647.5000219196081,402.4999949783087A6,6,0,1,1,635.5000219196081,402.4999949783087A6,6,0,1,1,647.5000219196081,402.4999949783087"></path><path id="kity_path_991" fill="none" stroke="gray" d="M637.0000219196081,402.4999949783087L646.0000219196081,402.4999949783087"></path></g><path id="node_outline76" fill="none" stroke="none" d="M652.5000223964453,391.4999949783087h35a5,5,0,0,1,5,5v12a5,5,0,0,1,-5,5h-35a5,5,0,0,1,-5,-5v-12a5,5,0,0,1,5,-5z"></path><g id="node_text76" fill="black"><text id="kity_text_762" text-rendering="inherit" font-size="12" dy=".8em" y="394.6999950518211" x="657.5000223964453">用途</text></g></g><g id="minder_node75"><g id="node_expander72" style="cursor: pointer;"><path id="kity_path_981" fill="white" stroke="gray" d="M732.5000244528055,327.4999927431345A6,6,0,1,1,720.5000244528055,327.4999927431345A6,6,0,1,1,732.5000244528055,327.4999927431345"></path><path id="kity_path_982" fill="none" stroke="gray" d="M722.0000244528055,327.4999927431345L731.0000244528055,327.4999927431345"></path></g><path id="node_outline73" fill="none" stroke="none" d="M737.5000249296427,316.4999927431345h83a5,5,0,0,1,5,5v12a5,5,0,0,1,-5,5h-83a5,5,0,0,1,-5,-5v-12a5,5,0,0,1,5,-5z"></path><g id="node_text73" fill="black"><text id="kity_text_749" text-rendering="inherit" font-size="12" dy=".8em" y="319.6999928166469" x="742.5000249296427">数据描述语言</text></g></g><g id="minder_node76"><g id="node_expander71" style="cursor: pointer;" display="none"><path id="kity_path_978" fill="white" stroke="gray" d="M865.5000284165144,327.4999927431345A6,6,0,1,1,853.5000284165144,327.4999927431345A6,6,0,1,1,865.5000284165144,327.4999927431345"></path><path id="kity_path_979" fill="none" stroke="gray"></path></g><path id="node_outline72" fill="none" stroke="none" d="M870.5000288933516,280.4999927431345h45a5,5,0,0,1,5,5v84a5,5,0,0,1,-5,5h-45a5,5,0,0,1,-5,-5v-84a5,5,0,0,1,5,-5z"></path><g id="node_text72" fill="black"><text id="kity_text_743" text-rendering="inherit" font-size="12" dy=".8em" y="283.6999928166469" x="875.5000288933516">JSON</text><text id="kity_text_744" text-rendering="inherit" font-size="12" dy=".8em" y="301.6999928166469" x="875.5000288933516">XML</text><text id="kity_text_745" text-rendering="inherit" font-size="12" dy=".8em" y="319.6999928166469" x="875.5000288933516">HTML</text><text id="kity_text_746" text-rendering="inherit" font-size="12" dy=".8em" y="337.6999928166469" x="875.5000288933516">CSS</text><text id="kity_text_747" text-rendering="inherit" font-size="12" dy=".8em" y="355.6999928166469" x="875.5000288933516">SQL</text></g></g><g id="minder_node77"><g id="node_expander74" style="cursor: pointer;"><path id="kity_path_987" fill="white" stroke="gray" d="M732.5000244528055,478.4999972432852A6,6,0,1,1,720.5000244528055,478.4999972432852A6,6,0,1,1,732.5000244528055,478.4999972432852"></path><path id="kity_path_988" fill="none" stroke="gray" d="M722.0000244528055,478.4999972432852L731.0000244528055,478.4999972432852"></path></g><path id="node_outline75" fill="none" stroke="none" d="M737.5000249296427,467.4999972432852h59a5,5,0,0,1,5,5v12a5,5,0,0,1,-5,5h-59a5,5,0,0,1,-5,-5v-12a5,5,0,0,1,5,-5z"></path><g id="node_text75" fill="black"><text id="kity_text_760" text-rendering="inherit" font-size="12" dy=".8em" y="470.6999973167976" x="742.5000249296427">编程语言</text></g></g><g id="minder_node78"><g id="node_expander73" style="cursor: pointer;" display="none"><path id="kity_path_984" fill="white" stroke="gray" d="M841.5000277012587,478.4999972432852A6,6,0,1,1,829.5000277012587,478.4999972432852A6,6,0,1,1,841.5000277012587,478.4999972432852"></path><path id="kity_path_985" fill="none" stroke="gray"></path></g><path id="node_outline74" fill="none" stroke="none" d="M846.5000281780958,404.4999972432852h68a5,5,0,0,1,5,5v138a5,5,0,0,1,-5,5h-68a5,5,0,0,1,-5,-5v-138a5,5,0,0,1,5,-5z"></path><g id="node_text74" fill="black"><text id="kity_text_751" text-rendering="inherit" font-size="12" dy=".8em" y="407.6999973167976" x="851.5000281780958">C</text><text id="kity_text_752" text-rendering="inherit" font-size="12" dy=".8em" y="425.6999973167976" x="851.5000281780958">C++</text><text id="kity_text_753" text-rendering="inherit" font-size="12" dy=".8em" y="443.6999973167976" x="851.5000281780958">C#</text><text id="kity_text_754" text-rendering="inherit" font-size="12" dy=".8em" y="461.6999973167976" x="851.5000281780958">Java</text><text id="kity_text_755" text-rendering="inherit" font-size="12" dy=".8em" y="479.6999973167976" x="851.5000281780958">Python</text><text id="kity_text_756" text-rendering="inherit" font-size="12" dy=".8em" y="497.6999973167976" x="851.5000281780958">Ruby</text><text id="kity_text_757" text-rendering="inherit" font-size="12" dy=".8em" y="515.6999973167976" x="851.5000281780958">Perl</text><text id="kity_text_758" text-rendering="inherit" font-size="12" dy=".8em" y="533.6999973167976" x="851.5000281780958">JavaScript</text></g></g><g id="minder_node79"><g id="node_expander80" style="cursor: pointer;"><path id="kity_path_1005" fill="white" stroke="gray" d="M647.5000219196081,744.5000051707029A6,6,0,1,1,635.5000219196081,744.5000051707029A6,6,0,1,1,647.5000219196081,744.5000051707029"></path><path id="kity_path_1006" fill="none" stroke="gray" d="M637.0000219196081,744.5000051707029L646.0000219196081,744.5000051707029"></path></g><path id="node_outline81" fill="none" stroke="none" d="M652.5000223964453,733.5000051707029h59a5,5,0,0,1,5,5v12a5,5,0,0,1,-5,5h-59a5,5,0,0,1,-5,-5v-12a5,5,0,0,1,5,-5z"></path><g id="node_text81" fill="black"><text id="kity_text_786" text-rendering="inherit" font-size="12" dy=".8em" y="736.7000052442154" x="657.5000223964453">表达方式</text></g></g><g id="minder_node80"><g id="node_expander77" style="cursor: pointer;"><path id="kity_path_996" fill="white" stroke="gray" d="M756.5000251680613,655.5000025182962A6,6,0,1,1,744.5000251680613,655.5000025182962A6,6,0,1,1,756.5000251680613,655.5000025182962"></path><path id="kity_path_997" fill="none" stroke="gray" d="M746.0000251680613,655.5000025182962L755.0000251680613,655.5000025182962"></path></g><path id="node_outline78" fill="none" stroke="none" d="M761.5000256448984,644.5000025182962h70a5,5,0,0,1,5,5v12a5,5,0,0,1,-5,5h-70a5,5,0,0,1,-5,-5v-12a5,5,0,0,1,5,-5z"></path><g id="node_text78" fill="black"><text id="kity_text_773" text-rendering="inherit" font-size="12" dy=".8em" y="647.7000025918087" x="766.5000256448984">声明式语言</text></g></g><g id="minder_node81"><g id="node_expander76" style="cursor: pointer;" display="none"><path id="kity_path_993" fill="white" stroke="gray" d="M876.5000287443399,655.5000025182962A6,6,0,1,1,864.5000287443399,655.5000025182962A6,6,0,1,1,876.5000287443399,655.5000025182962"></path><path id="kity_path_994" fill="none" stroke="gray"></path></g><path id="node_outline77" fill="none" stroke="none" d="M881.5000292211771,581.5000025182962h51a5,5,0,0,1,5,5v138a5,5,0,0,1,-5,5h-51a5,5,0,0,1,-5,-5v-138a5,5,0,0,1,5,-5z"></path><g id="node_text77" fill="black"><text id="kity_text_764" text-rendering="inherit" font-size="12" dy=".8em" y="584.7000025918087" x="886.5000292211771">JSON</text><text id="kity_text_765" text-rendering="inherit" font-size="12" dy=".8em" y="602.7000025918087" x="886.5000292211771">XML</text><text id="kity_text_766" text-rendering="inherit" font-size="12" dy=".8em" y="620.7000025918087" x="886.5000292211771">HTML</text><text id="kity_text_767" text-rendering="inherit" font-size="12" dy=".8em" y="638.7000025918087" x="886.5000292211771">CSS</text><text id="kity_text_768" text-rendering="inherit" font-size="12" dy=".8em" y="656.7000025918087" x="886.5000292211771">SQL</text><text id="kity_text_769" text-rendering="inherit" font-size="12" dy=".8em" y="674.7000025918087" x="886.5000292211771">Lisp</text><text id="kity_text_770" text-rendering="inherit" font-size="12" dy=".8em" y="692.7000025918087" x="886.5000292211771">Clojure</text><text id="kity_text_771" text-rendering="inherit" font-size="12" dy=".8em" y="710.7000025918087" x="886.5000292211771">Haskell</text></g></g><g id="minder_node82"><g id="node_expander79" style="cursor: pointer;"><path id="kity_path_1002" fill="white" stroke="gray" d="M756.5000251680613,833.5000078231096A6,6,0,1,1,744.5000251680613,833.5000078231096A6,6,0,1,1,756.5000251680613,833.5000078231096"></path><path id="kity_path_1003" fill="none" stroke="gray" d="M746.0000251680613,833.5000078231096L755.0000251680613,833.5000078231096"></path></g><path id="node_outline80" fill="none" stroke="none" d="M761.5000256448984,822.5000078231096h71a5,5,0,0,1,5,5v12a5,5,0,0,1,-5,5h-71a5,5,0,0,1,-5,-5v-12a5,5,0,0,1,5,-5z"></path><g id="node_text80" fill="black"><text id="kity_text_784" text-rendering="inherit" font-size="12" dy=".8em" y="825.7000078966221" x="766.5000256448984">命令式语言</text></g></g><g id="minder_node83"><g id="node_expander78" style="cursor: pointer;" display="none"><path id="kity_path_999" fill="white" stroke="gray" d="M877.5000287741423,833.5000078231096A6,6,0,1,1,865.5000287741423,833.5000078231096A6,6,0,1,1,877.5000287741423,833.5000078231096"></path><path id="kity_path_1000" fill="none" stroke="gray"></path></g><path id="node_outline79" fill="none" stroke="none" d="M882.5000292509794,759.5000078231096h68a5,5,0,0,1,5,5v138a5,5,0,0,1,-5,5h-68a5,5,0,0,1,-5,-5v-138a5,5,0,0,1,5,-5z"></path><g id="node_text79" fill="black"><text id="kity_text_775" text-rendering="inherit" font-size="12" dy=".8em" y="762.7000078966221" x="887.5000292509794">C</text><text id="kity_text_776" text-rendering="inherit" font-size="12" dy=".8em" y="780.7000078966221" x="887.5000292509794">C++</text><text id="kity_text_777" text-rendering="inherit" font-size="12" dy=".8em" y="798.7000078966221" x="887.5000292509794">C#</text><text id="kity_text_778" text-rendering="inherit" font-size="12" dy=".8em" y="816.7000078966221" x="887.5000292509794">Java</text><text id="kity_text_779" text-rendering="inherit" font-size="12" dy=".8em" y="834.7000078966221" x="887.5000292509794">Python</text><text id="kity_text_780" text-rendering="inherit" font-size="12" dy=".8em" y="852.7000078966221" x="887.5000292509794">Ruby</text><text id="kity_text_781" text-rendering="inherit" font-size="12" dy=".8em" y="870.7000078966221" x="887.5000292509794">Perl</text><text id="kity_text_782" text-rendering="inherit" font-size="12" dy=".8em" y="888.7000078966221" x="887.5000292509794">JavaScript</text></g></g><g id="minder_node84"><g id="node_expander97" style="cursor: pointer;"><path id="kity_path_1056" fill="white" stroke="gray" d="M417.50001506507397,1287.500021353364A6,6,0,1,1,405.50001506507397,1287.500021353364A6,6,0,1,1,417.50001506507397,1287.500021353364"></path><path id="kity_path_1057" fill="none" stroke="gray" d="M407.00001506507397,1287.500021353364L416.00001506507397,1287.500021353364"></path></g><path id="node_outline98" fill="none" stroke="none" d="M422.5000155419111,1276.500021353364h58a5,5,0,0,1,5,5v12a5,5,0,0,1,-5,5h-58a5,5,0,0,1,-5,-5v-12a5,5,0,0,1,5,-5z" stroke-width="3"></path><g id="node_text98" fill="black"><text id="kity_text_822" text-rendering="inherit" font-size="12" dy=".8em" y="1279.7000214268764" x="427.5000155419111">BNF范式</text></g></g><g id="minder_node85"><g id="node_expander92" style="cursor: pointer;"><path id="kity_path_1041" fill="white" stroke="gray" d="M525.5000182837248,1148.5000172108412A6,6,0,1,1,513.5000182837248,1148.5000172108412A6,6,0,1,1,525.5000182837248,1148.5000172108412"></path><path id="kity_path_1042" fill="none" stroke="gray" d="M515.0000182837248,1148.5000172108412L524.0000182837248,1148.5000172108412"></path></g><path id="node_outline93" fill="none" stroke="none" d="M530.5000187605619,1137.5000172108412h35a5,5,0,0,1,5,5v12a5,5,0,0,1,-5,5h-35a5,5,0,0,1,-5,-5v-12a5,5,0,0,1,5,-5z"></path><g id="node_text93" fill="black"><text id="kity_text_812" text-rendering="inherit" font-size="12" dy=".8em" y="1140.7000172843536" x="535.5000187605619">规则</text></g></g><g id="minder_node86"><g id="node_expander83" style="cursor: pointer;" display="none"><path id="kity_path_1014" fill="white" stroke="gray" d="M610.5000208169222,948.5000112503767A6,6,0,1,1,598.5000208169222,948.5000112503767A6,6,0,1,1,610.5000208169222,948.5000112503767"></path><path id="kity_path_1015" fill="none" stroke="gray"></path></g><path id="node_outline84" fill="none" stroke="none" d="M615.5000212937593,937.5000112503767h64a5,5,0,0,1,5,5v12a5,5,0,0,1,-5,5h-64a5,5,0,0,1,-5,-5v-12a5,5,0,0,1,5,-5z"></path><g id="node_text84" fill="black"><text id="kity_text_792" text-rendering="inherit" font-size="12" dy=".8em" y="940.7000113238892" x="620.5000212937593">::= 定义为</text></g></g><g id="minder_node87"><g id="node_expander86" style="cursor: pointer;"><path id="kity_path_1023" fill="white" stroke="gray" d="M610.5000208169222,1044.5000141113997A6,6,0,1,1,598.5000208169222,1044.5000141113997A6,6,0,1,1,610.5000208169222,1044.5000141113997"></path><path id="kity_path_1024" fill="none" stroke="gray" d="M600.0000208169222,1044.5000141113997L609.0000208169222,1044.5000141113997"></path></g><path id="node_outline87" fill="none" stroke="none" d="M615.5000212937593,1033.5000141113997h214a5,5,0,0,1,5,5v12a5,5,0,0,1,-5,5h-214a5,5,0,0,1,-5,-5v-12a5,5,0,0,1,5,-5z"></path><g id="node_text87" fill="black"><text id="kity_text_800" text-rendering="inherit" font-size="12" dy=".8em" y="1036.700014184912" x="620.5000212937593">用尖括号括起来的名称表示语法结构名</text></g></g><g id="minder_node88"><g id="node_expander84" style="cursor: pointer;" display="none"><path id="kity_path_1017" fill="white" stroke="gray" d="M874.5000286847353,1009.5000130683184A6,6,0,1,1,862.5000286847353,1009.5000130683184A6,6,0,1,1,874.5000286847353,1009.5000130683184"></path><path id="kity_path_1018" fill="none" stroke="gray"></path></g><path id="node_outline85" fill="none" stroke="none" d="M879.5000291615725,989.5000130683184h59a5,5,0,0,1,5,5v30a5,5,0,0,1,-5,5h-59a5,5,0,0,1,-5,-5v-30a5,5,0,0,1,5,-5z"></path><g id="node_text85" fill="black"><text id="kity_text_794" text-rendering="inherit" font-size="12" dy=".8em" y="992.7000131418308" x="884.5000291615725">基础结构</text><text id="kity_text_795" text-rendering="inherit" font-size="12" dy=".8em" y="1010.7000131418308" x="884.5000291615725">终结符</text></g></g><g id="minder_node89"><g id="node_expander85" style="cursor: pointer;" display="none"><path id="kity_path_1020" fill="white" stroke="gray" d="M874.5000286847353,1079.500015154481A6,6,0,1,1,862.5000286847353,1079.500015154481A6,6,0,1,1,874.5000286847353,1079.500015154481"></path><path id="kity_path_1021" fill="none" stroke="gray"></path></g><path id="node_outline86" fill="none" stroke="none" d="M879.5000291615725,1059.500015154481h59a5,5,0,0,1,5,5v30a5,5,0,0,1,-5,5h-59a5,5,0,0,1,-5,-5v-30a5,5,0,0,1,5,-5z"></path><g id="node_text86" fill="black"><text id="kity_text_797" text-rendering="inherit" font-size="12" dy=".8em" y="1062.7000152279934" x="884.5000291615725">复合结构</text><text id="kity_text_798" text-rendering="inherit" font-size="12" dy=".8em" y="1080.7000152279934" x="884.5000291615725">非终结符</text></g></g><g id="minder_node90"><g id="node_expander87" style="cursor: pointer;" display="none"><path id="kity_path_1026" fill="white" stroke="gray" d="M610.5000208169222,1140.5000169724226A6,6,0,1,1,598.5000208169222,1140.5000169724226A6,6,0,1,1,610.5000208169222,1140.5000169724226"></path><path id="kity_path_1027" fill="none" stroke="gray"></path></g><path id="node_outline88" fill="none" stroke="none" d="M615.5000212937593,1129.5000169724226h166a5,5,0,0,1,5,5v12a5,5,0,0,1,-5,5h-166a5,5,0,0,1,-5,-5v-12a5,5,0,0,1,5,-5z"></path><g id="node_text88" fill="black"><text id="kity_text_802" text-rendering="inherit" font-size="12" dy=".8em" y="1132.700017045935" x="620.5000212937593">引号和中间的字符表示终结符</text></g></g><g id="minder_node91"><g id="node_expander88" style="cursor: pointer;" display="none"><path id="kity_path_1029" fill="white" stroke="gray" d="M610.5000208169222,1192.5000185221434A6,6,0,1,1,598.5000208169222,1192.5000185221434A6,6,0,1,1,610.5000208169222,1192.5000185221434"></path><path id="kity_path_1030" fill="none" stroke="gray"></path></g><path id="node_outline89" fill="none" stroke="none" d="M615.5000212937593,1181.5000185221434h50a5,5,0,0,1,5,5v12a5,5,0,0,1,-5,5h-50a5,5,0,0,1,-5,-5v-12a5,5,0,0,1,5,-5z"></path><g id="node_text89" fill="black"><text id="kity_text_804" text-rendering="inherit" font-size="12" dy=".8em" y="1184.7000185956558" x="620.5000212937593">|表示或</text></g></g><g id="minder_node92"><g id="node_expander89" style="cursor: pointer;" display="none"><path id="kity_path_1032" fill="white" stroke="gray" d="M610.5000208169222,1244.5000200718641A6,6,0,1,1,598.5000208169222,1244.5000200718641A6,6,0,1,1,610.5000208169222,1244.5000200718641"></path><path id="kity_path_1033" fill="none" stroke="gray"></path></g><path id="node_outline90" fill="none" stroke="none" d="M615.5000212937593,1233.5000200718641h71a5,5,0,0,1,5,5v12a5,5,0,0,1,-5,5h-71a5,5,0,0,1,-5,-5v-12a5,5,0,0,1,5,-5z"></path><g id="node_text90" fill="black"><text id="kity_text_806" text-rendering="inherit" font-size="12" dy=".8em" y="1236.7000201453766" x="620.5000212937593">可以有括号</text></g></g><g id="minder_node93"><g id="node_expander90" style="cursor: pointer;" display="none"><path id="kity_path_1035" fill="white" stroke="gray" d="M610.5000208169222,1296.500021621585A6,6,0,1,1,598.5000208169222,1296.500021621585A6,6,0,1,1,610.5000208169222,1296.500021621585"></path><path id="kity_path_1036" fill="none" stroke="gray"></path></g><path id="node_outline91" fill="none" stroke="none" d="M615.5000212937593,1285.500021621585h88a5,5,0,0,1,5,5v12a5,5,0,0,1,-5,5h-88a5,5,0,0,1,-5,-5v-12a5,5,0,0,1,5,-5z"></path><g id="node_text91" fill="black"><text id="kity_text_808" text-rendering="inherit" font-size="12" dy=".8em" y="1288.7000216950973" x="620.5000212937593">*表示重复多次</text></g></g><g id="minder_node94"><g id="node_expander91" style="cursor: pointer;" display="none"><path id="kity_path_1038" fill="white" stroke="gray" d="M610.5000208169222,1348.5000231713057A6,6,0,1,1,598.5000208169222,1348.5000231713057A6,6,0,1,1,610.5000208169222,1348.5000231713057"></path><path id="kity_path_1039" fill="none" stroke="gray"></path></g><path id="node_outline92" fill="none" stroke="none" d="M615.5000212937593,1337.5000231713057h92a5,5,0,0,1,5,5v12a5,5,0,0,1,-5,5h-92a5,5,0,0,1,-5,-5v-12a5,5,0,0,1,5,-5z"></path><g id="node_text92" fill="black"><text id="kity_text_810" text-rendering="inherit" font-size="12" dy=".8em" y="1340.700023244818" x="620.5000212937593">+表示至少一次</text></g></g><g id="minder_node95"><g id="node_expander96" style="cursor: pointer;"><path id="kity_path_1053" fill="white" stroke="gray" d="M525.5000182837248,1426.5000254958868A6,6,0,1,1,513.5000182837248,1426.5000254958868A6,6,0,1,1,525.5000182837248,1426.5000254958868"></path><path id="kity_path_1054" fill="none" stroke="gray" d="M515.0000182837248,1426.5000254958868L524.0000182837248,1426.5000254958868"></path></g><path id="node_outline97" fill="none" stroke="none" d="M530.5000187605619,1415.5000254958868h35a5,5,0,0,1,5,5v12a5,5,0,0,1,-5,5h-35a5,5,0,0,1,-5,-5v-12a5,5,0,0,1,5,-5z"></path><g id="node_text97" fill="black"><text id="kity_text_820" text-rendering="inherit" font-size="12" dy=".8em" y="1418.7000255693993" x="535.5000187605619">例子</text></g></g><g id="minder_node96"><g id="node_expander95" style="cursor: pointer;"><path id="kity_path_1050" fill="white" stroke="gray" d="M610.5000208169222,1426.5000254958868A6,6,0,1,1,598.5000208169222,1426.5000254958868A6,6,0,1,1,610.5000208169222,1426.5000254958868"></path><path id="kity_path_1051" fill="none" stroke="gray" d="M600.0000208169222,1426.5000254958868L609.0000208169222,1426.5000254958868"></path></g><path id="node_outline96" fill="none" stroke="none" d="M615.5000212937593,1415.5000254958868h59a5,5,0,0,1,5,5v12a5,5,0,0,1,-5,5h-59a5,5,0,0,1,-5,-5v-12a5,5,0,0,1,5,-5z"></path><g id="node_text96" fill="black"><text id="kity_text_818" text-rendering="inherit" font-size="12" dy=".8em" y="1418.7000255693993" x="620.5000212937593">四则运算</text></g></g><g id="minder_node97"><g id="node_expander93" style="cursor: pointer;" display="none"><path id="kity_path_1044" fill="white" stroke="gray" d="M719.5000240653753,1400.5000247210264A6,6,0,1,1,707.5000240653753,1400.5000247210264A6,6,0,1,1,719.5000240653753,1400.5000247210264"></path><path id="kity_path_1045" fill="none" stroke="gray"></path></g><path id="node_outline94" fill="none" stroke="none" d="M724.5000245422125,1389.5000247210264h731a5,5,0,0,1,5,5v12a5,5,0,0,1,-5,5h-731a5,5,0,0,1,-5,-5v-12a5,5,0,0,1,5,-5z"></path><g id="node_text94" fill="black"><text id="kity_text_814" text-rendering="inherit" font-size="12" dy=".8em" y="1392.7000247945389" x="729.5000245422125">&lt;MultiplicativeExpression&gt;::=&lt;Number&gt;|&lt;MultiplicativeExpression&gt;"*"&lt;Number&gt;|&lt;MultiplicativeExpression&gt;"/"&lt;Number&gt;|</text></g></g><g id="minder_node98"><g id="node_expander94" style="cursor: pointer;" display="none"><path id="kity_path_1047" fill="white" stroke="gray" d="M719.5000240653753,1452.5000262707472A6,6,0,1,1,707.5000240653753,1452.5000262707472A6,6,0,1,1,719.5000240653753,1452.5000262707472"></path><path id="kity_path_1048" fill="none" stroke="gray"></path></g><path id="node_outline95" fill="none" stroke="none" d="M724.5000245422125,1441.5000262707472h909a5,5,0,0,1,5,5v12a5,5,0,0,1,-5,5h-909a5,5,0,0,1,-5,-5v-12a5,5,0,0,1,5,-5z"></path><g id="node_text95" fill="black"><text id="kity_text_816" text-rendering="inherit" font-size="12" dy=".8em" y="1444.7000263442596" x="729.5000245422125">&lt;AddtiveExpression&gt;::=&lt;MultiplicativeExpression&gt;|&lt;AddtiveExpression&gt;"+"&lt;MultiplicativeExpression&gt;|&lt;AddtiveExpression&gt;"-"&lt;MultiplicativeExpression&gt;|</text></g></g><g id="minder_node99"><g id="node_expander108" style="cursor: pointer;"><path id="kity_path_1089" fill="white" stroke="gray" d="M417.50001506507397,1595.5000305324793A6,6,0,1,1,405.50001506507397,1595.5000305324793A6,6,0,1,1,417.50001506507397,1595.5000305324793"></path><path id="kity_path_1090" fill="none" stroke="gray" d="M407.00001506507397,1595.5000305324793L416.00001506507397,1595.5000305324793"></path></g><path id="node_outline109" fill="none" stroke="none" d="M422.5000155419111,1584.5000305324793h95a5,5,0,0,1,5,5v12a5,5,0,0,1,-5,5h-95a5,5,0,0,1,-5,-5v-12a5,5,0,0,1,5,-5z" stroke-width="3"></path><g id="node_text109" fill="black"><text id="kity_text_844" text-rendering="inherit" font-size="12" dy=".8em" y="1587.7000306059917" x="427.5000155419111">编程语言的性质</text></g></g><g id="minder_node100"><g id="node_expander98" style="cursor: pointer;" display="none"><path id="kity_path_1059" fill="white" stroke="gray" d="M562.5000193864107,1504.500027820468A6,6,0,1,1,550.5000193864107,1504.500027820468A6,6,0,1,1,562.5000193864107,1504.500027820468"></path><path id="kity_path_1060" fill="none" stroke="gray"></path></g><path id="node_outline99" fill="none" stroke="none" d="M567.5000198632479,1493.500027820468h71a5,5,0,0,1,5,5v12a5,5,0,0,1,-5,5h-71a5,5,0,0,1,-5,-5v-12a5,5,0,0,1,5,-5z"></path><g id="node_text99" fill="black"><text id="kity_text_824" text-rendering="inherit" font-size="12" dy=".8em" y="1496.7000278939804" x="572.5000198632479">图灵完备性</text></g></g><g id="minder_node101"><g id="node_expander107" style="cursor: pointer;"><path id="kity_path_1086" fill="white" stroke="gray" d="M562.5000193864107,1686.5000332444906A6,6,0,1,1,550.5000193864107,1686.5000332444906A6,6,0,1,1,562.5000193864107,1686.5000332444906"></path><path id="kity_path_1087" fill="none" stroke="gray" d="M552.0000193864107,1686.5000332444906L561.0000193864107,1686.5000332444906"></path></g><path id="node_outline108" fill="none" stroke="none" d="M567.5000198632479,1675.5000332444906h71a5,5,0,0,1,5,5v12a5,5,0,0,1,-5,5h-71a5,5,0,0,1,-5,-5v-12a5,5,0,0,1,5,-5z" stroke-width="3"></path><g id="node_text108" fill="black"><text id="kity_text_842" text-rendering="inherit" font-size="12" dy=".8em" y="1678.700033318003" x="572.5000198632479">动态与静态</text></g></g><g id="minder_node102"><g id="node_expander102" style="cursor: pointer;"><path id="kity_path_1071" fill="white" stroke="gray" d="M683.5000229924917,1608.5000309199095A6,6,0,1,1,671.5000229924917,1608.5000309199095A6,6,0,1,1,683.5000229924917,1608.5000309199095"></path><path id="kity_path_1072" fill="none" stroke="gray" d="M673.0000229924917,1608.5000309199095L682.0000229924917,1608.5000309199095"></path></g><path id="node_outline103" fill="none" stroke="none" d="M688.5000234693289,1597.5000309199095h35a5,5,0,0,1,5,5v12a5,5,0,0,1,-5,5h-35a5,5,0,0,1,-5,-5v-12a5,5,0,0,1,5,-5z"></path><g id="node_text103" fill="black"><text id="kity_text_832" text-rendering="inherit" font-size="12" dy=".8em" y="1600.700030993422" x="693.5000234693289">动态</text></g></g><g id="minder_node103"><g id="node_expander99" style="cursor: pointer;" display="none"><path id="kity_path_1062" fill="white" stroke="gray" d="M768.5000255256891,1556.5000293701887A6,6,0,1,1,756.5000255256891,1556.5000293701887A6,6,0,1,1,768.5000255256891,1556.5000293701887"></path><path id="kity_path_1063" fill="none" stroke="gray"></path></g><path id="node_outline100" fill="none" stroke="none" d="M773.5000260025263,1545.5000293701887h160a5,5,0,0,1,5,5v12a5,5,0,0,1,-5,5h-160a5,5,0,0,1,-5,-5v-12a5,5,0,0,1,5,-5z"></path><g id="node_text100" fill="black"><text id="kity_text_826" text-rendering="inherit" font-size="12" dy=".8em" y="1548.7000294437012" x="778.5000260025263">在用户的设备/在线服务器上</text></g></g><g id="minder_node104"><g id="node_expander100" style="cursor: pointer;" display="none"><path id="kity_path_1065" fill="white" stroke="gray" d="M768.5000255256891,1608.5000309199095A6,6,0,1,1,756.5000255256891,1608.5000309199095A6,6,0,1,1,768.5000255256891,1608.5000309199095"></path><path id="kity_path_1066" fill="none" stroke="gray"></path></g><path id="node_outline101" fill="none" stroke="none" d="M773.5000260025263,1597.5000309199095h95a5,5,0,0,1,5,5v12a5,5,0,0,1,-5,5h-95a5,5,0,0,1,-5,-5v-12a5,5,0,0,1,5,-5z"></path><g id="node_text101" fill="black"><text id="kity_text_828" text-rendering="inherit" font-size="12" dy=".8em" y="1600.700030993422" x="778.5000260025263">产品实际运行时</text></g></g><g id="minder_node105"><g id="node_expander101" style="cursor: pointer;" display="none"><path id="kity_path_1068" fill="white" stroke="gray" d="M768.5000255256891,1660.5000324696302A6,6,0,1,1,756.5000255256891,1660.5000324696302A6,6,0,1,1,768.5000255256891,1660.5000324696302"></path><path id="kity_path_1069" fill="none" stroke="gray"></path></g><path id="node_outline102" fill="none" stroke="none" d="M773.5000260025263,1649.5000324696302h58a5,5,0,0,1,5,5v12a5,5,0,0,1,-5,5h-58a5,5,0,0,1,-5,-5v-12a5,5,0,0,1,5,-5z"></path><g id="node_text102" fill="black"><text id="kity_text_830" text-rendering="inherit" font-size="12" dy=".8em" y="1652.7000325431427" x="778.5000260025263">Runtime</text></g></g><g id="minder_node106"><g id="node_expander106" style="cursor: pointer;"><path id="kity_path_1083" fill="white" stroke="gray" d="M683.5000229924917,1764.5000355690718A6,6,0,1,1,671.5000229924917,1764.5000355690718A6,6,0,1,1,683.5000229924917,1764.5000355690718"></path><path id="kity_path_1084" fill="none" stroke="gray" d="M673.0000229924917,1764.5000355690718L682.0000229924917,1764.5000355690718"></path></g><path id="node_outline107" fill="none" stroke="none" d="M688.5000234693289,1753.5000355690718h35a5,5,0,0,1,5,5v12a5,5,0,0,1,-5,5h-35a5,5,0,0,1,-5,-5v-12a5,5,0,0,1,5,-5z"></path><g id="node_text107" fill="black"><text id="kity_text_840" text-rendering="inherit" font-size="12" dy=".8em" y="1756.7000356425842" x="693.5000234693289">静态</text></g></g><g id="minder_node107"><g id="node_expander103" style="cursor: pointer;" display="none"><path id="kity_path_1074" fill="white" stroke="gray" d="M768.5000255256891,1712.500034019351A6,6,0,1,1,756.5000255256891,1712.500034019351A6,6,0,1,1,768.5000255256891,1712.500034019351"></path><path id="kity_path_1075" fill="none" stroke="gray"></path></g><path id="node_outline104" fill="none" stroke="none" d="M773.5000260025263,1701.500034019351h107a5,5,0,0,1,5,5v12a5,5,0,0,1,-5,5h-107a5,5,0,0,1,-5,-5v-12a5,5,0,0,1,5,-5z"></path><g id="node_text104" fill="black"><text id="kity_text_834" text-rendering="inherit" font-size="12" dy=".8em" y="1704.7000340928635" x="778.5000260025263">在程序员的设备商</text></g></g><g id="minder_node108"><g id="node_expander104" style="cursor: pointer;" display="none"><path id="kity_path_1077" fill="white" stroke="gray" d="M768.5000255256891,1764.5000355690718A6,6,0,1,1,756.5000255256891,1764.5000355690718A6,6,0,1,1,768.5000255256891,1764.5000355690718"></path><path id="kity_path_1078" fill="none" stroke="gray"></path></g><path id="node_outline105" fill="none" stroke="none" d="M773.5000260025263,1753.5000355690718h71a5,5,0,0,1,5,5v12a5,5,0,0,1,-5,5h-71a5,5,0,0,1,-5,-5v-12a5,5,0,0,1,5,-5z"></path><g id="node_text105" fill="black"><text id="kity_text_836" text-rendering="inherit" font-size="12" dy=".8em" y="1756.7000356425842" x="778.5000260025263">产品开发时</text></g></g><g id="minder_node109"><g id="node_expander105" style="cursor: pointer;" display="none"><path id="kity_path_1080" fill="white" stroke="gray" d="M768.5000255256891,1816.5000371187925A6,6,0,1,1,756.5000255256891,1816.5000371187925A6,6,0,1,1,768.5000255256891,1816.5000371187925"></path><path id="kity_path_1081" fill="none" stroke="gray"></path></g><path id="node_outline106" fill="none" stroke="none" d="M773.5000260025263,1805.5000371187925h83a5,5,0,0,1,5,5v12a5,5,0,0,1,-5,5h-83a5,5,0,0,1,-5,-5v-12a5,5,0,0,1,5,-5z"></path><g id="node_text106" fill="black"><text id="kity_text_838" text-rendering="inherit" font-size="12" dy=".8em" y="1808.700037192305" x="778.5000260025263">Compiletime</text></g></g><g id="minder_node110"><g id="node_expander130" style="cursor: pointer;"><path id="kity_path_1155" fill="white" stroke="gray" d="M417.50001506507397,2245.500049903989A6,6,0,1,1,405.50001506507397,2245.500049903989A6,6,0,1,1,417.50001506507397,2245.500049903989"></path><path id="kity_path_1156" fill="none" stroke="gray" d="M407.00001506507397,2245.500049903989L416.00001506507397,2245.500049903989"></path></g><path id="node_outline131" fill="none" stroke="rgb(57, 80, 96)" d="M422.5000155419111,2234.500049903989h154a5,5,0,0,1,5,5v12a5,5,0,0,1,-5,5h-154a5,5,0,0,1,-5,-5v-12a5,5,0,0,1,5,-5z" stroke-width="3"></path><g id="node_text131" fill="black"><text id="kity_text_888" text-rendering="inherit" font-size="12" dy=".8em" y="2237.7000499775013" x="427.5000155419111">一般命令式编程语言的设计</text></g></g><g id="minder_node111"><g id="node_expander111" style="cursor: pointer;"><path id="kity_path_1098" fill="white" stroke="gray" d="M621.5000211447477,1894.5000394433737A6,6,0,1,1,609.5000211447477,1894.5000394433737A6,6,0,1,1,621.5000211447477,1894.5000394433737"></path><path id="kity_path_1099" fill="none" stroke="gray" d="M611.0000211447477,1894.5000394433737L620.0000211447477,1894.5000394433737"></path></g><path id="node_outline112" fill="none" stroke="none" d="M626.5000216215849,1883.5000394433737h42a5,5,0,0,1,5,5v12a5,5,0,0,1,-5,5h-42a5,5,0,0,1,-5,-5v-12a5,5,0,0,1,5,-5z"></path><g id="node_text112" fill="black"><text id="kity_text_850" text-rendering="inherit" font-size="12" dy=".8em" y="1886.7000395168861" x="631.5000216215849">Atom</text></g></g><g id="minder_node112"><g id="node_expander109" style="cursor: pointer;" display="none"><path id="kity_path_1092" fill="white" stroke="gray" d="M713.5000238865614,1868.5000386685133A6,6,0,1,1,701.5000238865614,1868.5000386685133A6,6,0,1,1,713.5000238865614,1868.5000386685133"></path><path id="kity_path_1093" fill="none" stroke="gray"></path></g><path id="node_outline110" fill="none" stroke="none" d="M718.5000243633986,1857.5000386685133h63a5,5,0,0,1,5,5v12a5,5,0,0,1,-5,5h-63a5,5,0,0,1,-5,-5v-12a5,5,0,0,1,5,-5z"></path><g id="node_text110" fill="black"><text id="kity_text_846" text-rendering="inherit" font-size="12" dy=".8em" y="1860.7000387420258" x="723.5000243633986">Identifier</text></g></g><g id="minder_node113"><g id="node_expander110" style="cursor: pointer;" display="none"><path id="kity_path_1095" fill="white" stroke="gray" d="M713.5000238865614,1920.500040218234A6,6,0,1,1,701.5000238865614,1920.500040218234A6,6,0,1,1,713.5000238865614,1920.500040218234"></path><path id="kity_path_1096" fill="none" stroke="gray"></path></g><path id="node_outline111" fill="none" stroke="none" d="M718.5000243633986,1909.500040218234h45a5,5,0,0,1,5,5v12a5,5,0,0,1,-5,5h-45a5,5,0,0,1,-5,-5v-12a5,5,0,0,1,5,-5z"></path><g id="node_text111" fill="black"><text id="kity_text_848" text-rendering="inherit" font-size="12" dy=".8em" y="1912.7000402917465" x="723.5000243633986">Literal</text></g></g><g id="minder_node114"><g id="node_expander115" style="cursor: pointer;"><path id="kity_path_1110" fill="white" stroke="gray" d="M621.5000211447477,2024.5000433176756A6,6,0,1,1,609.5000211447477,2024.5000433176756A6,6,0,1,1,621.5000211447477,2024.5000433176756"></path><path id="kity_path_1111" fill="none" stroke="gray" d="M611.0000211447477,2024.5000433176756L620.0000211447477,2024.5000433176756"></path></g><path id="node_outline116" fill="none" stroke="none" d="M626.5000216215849,2013.5000433176756h71a5,5,0,0,1,5,5v12a5,5,0,0,1,-5,5h-71a5,5,0,0,1,-5,-5v-12a5,5,0,0,1,5,-5z"></path><g id="node_text116" fill="black"><text id="kity_text_858" text-rendering="inherit" font-size="12" dy=".8em" y="2016.700043391188" x="631.5000216215849">Expression</text></g></g><g id="minder_node115"><g id="node_expander112" style="cursor: pointer;" display="none"><path id="kity_path_1101" fill="white" stroke="gray" d="M742.5000247508287,1972.5000417679548A6,6,0,1,1,730.5000247508287,1972.5000417679548A6,6,0,1,1,742.5000247508287,1972.5000417679548"></path><path id="kity_path_1102" fill="none" stroke="gray"></path></g><path id="node_outline113" fill="none" stroke="none" d="M747.5000252276659,1961.5000417679548h42a5,5,0,0,1,5,5v12a5,5,0,0,1,-5,5h-42a5,5,0,0,1,-5,-5v-12a5,5,0,0,1,5,-5z"></path><g id="node_text113" fill="black"><text id="kity_text_852" text-rendering="inherit" font-size="12" dy=".8em" y="1964.7000418414673" x="752.5000252276659">Atom</text></g></g><g id="minder_node116"><g id="node_expander113" style="cursor: pointer;" display="none"><path id="kity_path_1104" fill="white" stroke="gray" d="M742.5000247508287,2024.5000433176756A6,6,0,1,1,730.5000247508287,2024.5000433176756A6,6,0,1,1,742.5000247508287,2024.5000433176756"></path><path id="kity_path_1105" fill="none" stroke="gray"></path></g><path id="node_outline114" fill="none" stroke="none" d="M747.5000252276659,2013.5000433176756h63a5,5,0,0,1,5,5v12a5,5,0,0,1,-5,5h-63a5,5,0,0,1,-5,-5v-12a5,5,0,0,1,5,-5z"></path><g id="node_text114" fill="black"><text id="kity_text_854" text-rendering="inherit" font-size="12" dy=".8em" y="2016.700043391188" x="752.5000252276659">Operator</text></g></g><g id="minder_node117"><g id="node_expander114" style="cursor: pointer;" display="none"><path id="kity_path_1107" fill="white" stroke="gray" d="M742.5000247508287,2076.5000448673964A6,6,0,1,1,730.5000247508287,2076.5000448673964A6,6,0,1,1,742.5000247508287,2076.5000448673964"></path><path id="kity_path_1108" fill="none" stroke="gray"></path></g><path id="node_outline115" fill="none" stroke="none" d="M747.5000252276659,2065.5000448673964h74a5,5,0,0,1,5,5v12a5,5,0,0,1,-5,5h-74a5,5,0,0,1,-5,-5v-12a5,5,0,0,1,5,-5z"></path><g id="node_text115" fill="black"><text id="kity_text_856" text-rendering="inherit" font-size="12" dy=".8em" y="2068.700044940909" x="752.5000252276659">Punctuator</text></g></g><g id="minder_node118"><g id="node_expander119" style="cursor: pointer;"><path id="kity_path_1122" fill="white" stroke="gray" d="M621.5000211447477,2180.500047966838A6,6,0,1,1,609.5000211447477,2180.500047966838A6,6,0,1,1,621.5000211447477,2180.500047966838"></path><path id="kity_path_1123" fill="none" stroke="gray" d="M611.0000211447477,2180.500047966838L620.0000211447477,2180.500047966838"></path></g><path id="node_outline120" fill="none" stroke="none" d="M626.5000216215849,2169.500047966838h69a5,5,0,0,1,5,5v12a5,5,0,0,1,-5,5h-69a5,5,0,0,1,-5,-5v-12a5,5,0,0,1,5,-5z"></path><g id="node_text120" fill="black"><text id="kity_text_866" text-rendering="inherit" font-size="12" dy=".8em" y="2172.7000480403503" x="631.5000216215849">Statement</text></g></g><g id="minder_node119"><g id="node_expander116" style="cursor: pointer;" display="none"><path id="kity_path_1113" fill="white" stroke="gray" d="M740.5000246912241,2128.500046417117A6,6,0,1,1,728.5000246912241,2128.500046417117A6,6,0,1,1,740.5000246912241,2128.500046417117"></path><path id="kity_path_1114" fill="none" stroke="gray"></path></g><path id="node_outline117" fill="none" stroke="none" d="M745.5000251680613,2117.500046417117h71a5,5,0,0,1,5,5v12a5,5,0,0,1,-5,5h-71a5,5,0,0,1,-5,-5v-12a5,5,0,0,1,5,-5z"></path><g id="node_text117" fill="black"><text id="kity_text_860" text-rendering="inherit" font-size="12" dy=".8em" y="2120.7000464906296" x="750.5000251680613">Expression</text></g></g><g id="minder_node120"><g id="node_expander117" style="cursor: pointer;" display="none"><path id="kity_path_1116" fill="white" stroke="gray" d="M740.5000246912241,2180.500047966838A6,6,0,1,1,728.5000246912241,2180.500047966838A6,6,0,1,1,740.5000246912241,2180.500047966838"></path><path id="kity_path_1117" fill="none" stroke="gray"></path></g><path id="node_outline118" fill="none" stroke="none" d="M745.5000251680613,2169.500047966838h60a5,5,0,0,1,5,5v12a5,5,0,0,1,-5,5h-60a5,5,0,0,1,-5,-5v-12a5,5,0,0,1,5,-5z"></path><g id="node_text118" fill="black"><text id="kity_text_862" text-rendering="inherit" font-size="12" dy=".8em" y="2172.7000480403503" x="750.5000251680613">Keyword</text></g></g><g id="minder_node121"><g id="node_expander118" style="cursor: pointer;" display="none"><path id="kity_path_1119" fill="white" stroke="gray" d="M740.5000246912241,2232.5000495165586A6,6,0,1,1,728.5000246912241,2232.5000495165586A6,6,0,1,1,740.5000246912241,2232.5000495165586"></path><path id="kity_path_1120" fill="none" stroke="gray"></path></g><path id="node_outline119" fill="none" stroke="none" d="M745.5000251680613,2221.5000495165586h74a5,5,0,0,1,5,5v12a5,5,0,0,1,-5,5h-74a5,5,0,0,1,-5,-5v-12a5,5,0,0,1,5,-5z"></path><g id="node_text119" fill="black"><text id="kity_text_864" text-rendering="inherit" font-size="12" dy=".8em" y="2224.700049590071" x="750.5000251680613">Punctuator</text></g></g><g id="minder_node122"><g id="node_expander125" style="cursor: pointer;"><path id="kity_path_1140" fill="white" stroke="gray" d="M621.5000211447477,2388.500054165721A6,6,0,1,1,609.5000211447477,2388.500054165721A6,6,0,1,1,621.5000211447477,2388.500054165721"></path><path id="kity_path_1141" fill="none" stroke="gray" d="M611.0000211447477,2388.500054165721L620.0000211447477,2388.500054165721"></path></g><path id="node_outline126" fill="none" stroke="none" d="M626.5000216215849,2377.500054165721h63a5,5,0,0,1,5,5v12a5,5,0,0,1,-5,5h-63a5,5,0,0,1,-5,-5v-12a5,5,0,0,1,5,-5z"></path><g id="node_text126" fill="black"><text id="kity_text_878" text-rendering="inherit" font-size="12" dy=".8em" y="2380.7000542392334" x="631.5000216215849">Structure</text></g></g><g id="minder_node123"><g id="node_expander120" style="cursor: pointer;" display="none"><path id="kity_path_1125" fill="white" stroke="gray" d="M734.5000245124102,2284.5000510662794A6,6,0,1,1,722.5000245124102,2284.5000510662794A6,6,0,1,1,734.5000245124102,2284.5000510662794"></path><path id="kity_path_1126" fill="none" stroke="gray"></path></g><path id="node_outline121" fill="none" stroke="none" d="M739.5000249892473,2273.5000510662794h60a5,5,0,0,1,5,5v12a5,5,0,0,1,-5,5h-60a5,5,0,0,1,-5,-5v-12a5,5,0,0,1,5,-5z"></path><g id="node_text121" fill="black"><text id="kity_text_868" text-rendering="inherit" font-size="12" dy=".8em" y="2276.700051139792" x="744.5000249892473">Function</text></g></g><g id="minder_node124"><g id="node_expander121" style="cursor: pointer;" display="none"><path id="kity_path_1128" fill="white" stroke="gray" d="M734.5000245124102,2336.500052616A6,6,0,1,1,722.5000245124102,2336.500052616A6,6,0,1,1,734.5000245124102,2336.500052616"></path><path id="kity_path_1129" fill="none" stroke="gray"></path></g><path id="node_outline122" fill="none" stroke="none" d="M739.5000249892473,2325.500052616h39a5,5,0,0,1,5,5v12a5,5,0,0,1,-5,5h-39a5,5,0,0,1,-5,-5v-12a5,5,0,0,1,5,-5z"></path><g id="node_text122" fill="black"><text id="kity_text_870" text-rendering="inherit" font-size="12" dy=".8em" y="2328.7000526895126" x="744.5000249892473">Class</text></g></g><g id="minder_node125"><g id="node_expander122" style="cursor: pointer;" display="none"><path id="kity_path_1131" fill="white" stroke="gray" d="M734.5000245124102,2388.500054165721A6,6,0,1,1,722.5000245124102,2388.500054165721A6,6,0,1,1,734.5000245124102,2388.500054165721"></path><path id="kity_path_1132" fill="none" stroke="gray"></path></g><path id="node_outline123" fill="none" stroke="none" d="M739.5000249892473,2377.500054165721h54a5,5,0,0,1,5,5v12a5,5,0,0,1,-5,5h-54a5,5,0,0,1,-5,-5v-12a5,5,0,0,1,5,-5z"></path><g id="node_text123" fill="black"><text id="kity_text_872" text-rendering="inherit" font-size="12" dy=".8em" y="2380.7000542392334" x="744.5000249892473">Process</text></g></g><g id="minder_node126"><g id="node_expander123" style="cursor: pointer;" display="none"><path id="kity_path_1134" fill="white" stroke="gray" d="M734.5000245124102,2440.5000557154417A6,6,0,1,1,722.5000245124102,2440.5000557154417A6,6,0,1,1,734.5000245124102,2440.5000557154417"></path><path id="kity_path_1135" fill="none" stroke="gray"></path></g><path id="node_outline124" fill="none" stroke="none" d="M739.5000249892473,2429.5000557154417h77a5,5,0,0,1,5,5v12a5,5,0,0,1,-5,5h-77a5,5,0,0,1,-5,-5v-12a5,5,0,0,1,5,-5z"></path><g id="node_text124" fill="black"><text id="kity_text_874" text-rendering="inherit" font-size="12" dy=".8em" y="2432.700055788954" x="744.5000249892473">Namespace</text></g></g><g id="minder_node127"><g id="node_expander124" style="cursor: pointer;" display="none"><path id="kity_path_1137" fill="white" stroke="gray" d="M734.5000245124102,2492.5000572651625A6,6,0,1,1,722.5000245124102,2492.5000572651625A6,6,0,1,1,734.5000245124102,2492.5000572651625"></path><path id="kity_path_1138" fill="none" stroke="gray"></path></g><path id="node_outline125" fill="none" stroke="none" d="M739.5000249892473,2481.5000572651625h27a5,5,0,0,1,5,5v12a5,5,0,0,1,-5,5h-27a5,5,0,0,1,-5,-5v-12a5,5,0,0,1,5,-5z"></path><g id="node_text125" fill="black"><text id="kity_text_876" text-rendering="inherit" font-size="12" dy=".8em" y="2484.700057338675" x="744.5000249892473">......</text></g></g><g id="minder_node128"><g id="node_expander129" style="cursor: pointer;"><path id="kity_path_1152" fill="white" stroke="gray" d="M621.5000211447477,2596.500060364604A6,6,0,1,1,609.5000211447477,2596.500060364604A6,6,0,1,1,621.5000211447477,2596.500060364604"></path><path id="kity_path_1153" fill="none" stroke="gray" d="M611.0000211447477,2596.500060364604L620.0000211447477,2596.500060364604"></path></g><path id="node_outline130" fill="none" stroke="none" d="M626.5000216215849,2585.500060364604h60a5,5,0,0,1,5,5v12a5,5,0,0,1,-5,5h-60a5,5,0,0,1,-5,-5v-12a5,5,0,0,1,5,-5z"></path><g id="node_text130" fill="black"><text id="kity_text_886" text-rendering="inherit" font-size="12" dy=".8em" y="2588.7000604381165" x="631.5000216215849">Program</text></g></g><g id="minder_node129"><g id="node_expander126" style="cursor: pointer;" display="none"><path id="kity_path_1143" fill="white" stroke="gray" d="M731.5000244230032,2544.5000588148832A6,6,0,1,1,719.5000244230032,2544.5000588148832A6,6,0,1,1,731.5000244230032,2544.5000588148832"></path><path id="kity_path_1144" fill="none" stroke="gray"></path></g><path id="node_outline127" fill="none" stroke="none" d="M736.5000248998404,2533.5000588148832h54a5,5,0,0,1,5,5v12a5,5,0,0,1,-5,5h-54a5,5,0,0,1,-5,-5v-12a5,5,0,0,1,5,-5z"></path><g id="node_text127" fill="black"><text id="kity_text_880" text-rendering="inherit" font-size="12" dy=".8em" y="2536.7000588883957" x="741.5000248998404">Module</text></g></g><g id="minder_node130"><g id="node_expander127" style="cursor: pointer;" display="none"><path id="kity_path_1146" fill="white" stroke="gray" d="M731.5000244230032,2596.500060364604A6,6,0,1,1,719.5000244230032,2596.500060364604A6,6,0,1,1,731.5000244230032,2596.500060364604"></path><path id="kity_path_1147" fill="none" stroke="gray"></path></g><path id="node_outline128" fill="none" stroke="none" d="M736.5000248998404,2585.500060364604h58a5,5,0,0,1,5,5v12a5,5,0,0,1,-5,5h-58a5,5,0,0,1,-5,-5v-12a5,5,0,0,1,5,-5z"></path><g id="node_text128" fill="black"><text id="kity_text_882" text-rendering="inherit" font-size="12" dy=".8em" y="2588.7000604381165" x="741.5000248998404">Package</text></g></g><g id="minder_node131"><g id="node_expander128" style="cursor: pointer;" display="none"><path id="kity_path_1149" fill="white" stroke="gray" d="M731.5000244230032,2648.5000619143248A6,6,0,1,1,719.5000244230032,2648.5000619143248A6,6,0,1,1,731.5000244230032,2648.5000619143248"></path><path id="kity_path_1150" fill="none" stroke="gray"></path></g><path id="node_outline129" fill="none" stroke="none" d="M736.5000248998404,2637.5000619143248h49a5,5,0,0,1,5,5v12a5,5,0,0,1,-5,5h-49a5,5,0,0,1,-5,-5v-12a5,5,0,0,1,5,-5z"></path><g id="node_text129" fill="black"><text id="kity_text_884" text-rendering="inherit" font-size="12" dy=".8em" y="2640.700061987837" x="741.5000248998404">Library</text></g></g></g></g></svg>